STARTFONT 2.3
FONT -FontForge-Lobster-Book-R-Normal--32-320-72-72-P-187-ISO10646-1
SIZE 32 72 72  4
FONTBOUNDINGBOX 65 48 -15 -16
COMMENT "Generated by fontforge, http://fontforge.sourceforge.net"
COMMENT "Copyright 2010 The Lobster Project Authors (https://github.com/impallari/The-Lobster-Font), with Reserved Font Name "Lobster"."
STARTPROPERTIES 41
FOUNDRY "FontForge"
FAMILY_NAME "Lobster"
WEIGHT_NAME "Book"
SLANT "R"
SETWIDTH_NAME "Normal"
ADD_STYLE_NAME ""
PIXEL_SIZE 32
POINT_SIZE 320
RESOLUTION_X 72
RESOLUTION_Y 72
SPACING "P"
AVERAGE_WIDTH 187
CHARSET_REGISTRY "ISO10646"
CHARSET_ENCODING "1"
FONTNAME_REGISTRY ""
CHARSET_COLLECTIONS "ISO8859-2 ISO8859-5 ISO8859-9 ISO8859-4 ISO10646-1"
BITS_PER_PIXEL 4
FONT_NAME "Lobster-Regular"
FACE_NAME "Lobster Regular"
COPYRIGHT "Copyright 2010 The Lobster Project Authors (https://github.com/impallari/The-Lobster-Font), with Reserved Font Name "Lobster"."
FONT_VERSION "2.100"
FONT_ASCENT 26
FONT_DESCENT 6
UNDERLINE_POSITION -3
UNDERLINE_THICKNESS 2
X_HEIGHT 16
CAP_HEIGHT 23
DEFAULT_CHAR 1
RAW_ASCENT 800
RAW_DESCENT 200
NORM_SPACE 7
RELATIVE_WEIGHT 40
RELATIVE_SETWIDTH 50
SUPERSCRIPT_X 0
SUPERSCRIPT_Y 11
SUPERSCRIPT_SIZE 19
SUBSCRIPT_X 0
SUBSCRIPT_Y 2
SUBSCRIPT_SIZE 19
AVG_LOWERCASE_WIDTH 150
AVG_UPPERCASE_WIDTH 197
ENDPROPERTIES
CHARS 1148
STARTCHAR NULL.dup1
ENCODING 0
SWIDTH 600 0
DWIDTH 19 0
BBX 1 1 0 0
BITMAP
00
ENDCHAR
STARTCHAR nonmarkingreturn
ENCODING 13
SWIDTH 600 0
DWIDTH 19 0
BBX 1 1 0 0
BITMAP
00
ENDCHAR
STARTCHAR space
ENCODING 32
SWIDTH 217 0
DWIDTH 7 0
BBX 1 1 0 0
BITMAP
00
ENDCHAR
STARTCHAR exclam
ENCODING 33
SWIDTH 257 0
DWIDTH 8 0
BBX 10 24 1 0
BITMAP
00002579B5
00008FFFF2
0000BFFFC0
0000DFFF80
0000FFFF40
0003FFFE00
0005FFFA00
0007FFF600
0009FFF200
000CFFD000
000EFF8000
001FFF4000
004FFE0000
006FFB0000
008FF60000
00BFF20000
0068700000
0000000000
0000000000
1BEC300000
BFFFD00000
EFFFF10000
AFFFD00000
1BEC300000
ENDCHAR
STARTCHAR quotedbl
ENCODING 34
SWIDTH 353 0
DWIDTH 11 0
BBX 12 7 2 17
BITMAP
003FFE13FFF2
008FF808FF90
00DFE10DFF20
04FF803FF900
09FE108FF200
0EF800DF9000
4FE104FF2000
ENDCHAR
STARTCHAR numbersign
ENCODING 35
SWIDTH 659 0
DWIDTH 21 0
BBX 17 21 2 2
BITMAP
000000111000011000
000000DF70006FE000
000001FF40009FB000
000004FF1000CF8000
000007FD0000FF5000
00000AFB0003FF3000
00000CF80006FE0000
05FFFFFFFFFFFFFFD0
08EEEFFEEEEFFEEE80
00008FC0001FF40000
0000BF90004FF10000
0000EF60007FD00000
0002FF3000AFB00000
AEEEFFEEEEFFFEE700
EFFFFFFFFFFFFFF400
000CF80005FE000000
001FF50008FC000000
004FF1000CF8000000
007FD0000EF5000000
00AFA0003FF2000000
00CE70005ED0000000
ENDCHAR
STARTCHAR dollar
ENCODING 36
SWIDTH 548 0
DWIDTH 18 0
BBX 17 32 0 -5
BITMAP
000000000000EA0000
000000000003F70000
000000000007F30000
000000017CEFF94000
0000006EFFEFFFF800
000006FFF92F88FF70
00001EFFD04F51FFD0
00006FFF808F11FFF0
00009FFF70BD05FFF0
00009FFFA0EA1DFFA0
00006FFFE3F61AEB20
00001FFFFDF3000000
000008FFFFE0000000
000000CFFFF6000000
0000002EFFFF600000
00000005FFFFF50000
00000000AFFFFE2000
00000000DFFFFFA000
01AEE901F8DFFFF200
0BFFFF85F45FFFF600
4FFFC419F10EFFF700
7FFF200CC00DFFF600
8FFC001F800FFFF200
5FFD004F506FFFA000
1EFF808F15EFFD1000
04EFFDEFDFFFD20000
003BFFFFFFD8000000
000028F96400000000
000007F20000000000
00000AE00000000000
00000DB00000000000
00001F800000000000
ENDCHAR
STARTCHAR percent
ENCODING 37
SWIDTH 796 0
DWIDTH 25 0
BBX 25 24 1 0
BITMAP
00004BEEB300000008FB000000
0006FFFFFE1000002FF3000000
005FFC16FF700000AFA0000000
01EFF202FFA00003FF20000000
07FFA002FFC0000CF800000000
0CFF4003FFB0005FE100000000
2FFF0003FFA000DF6000000000
4FFC0006FF8007FD0000000000
5FFA0008FF401EF50000000000
6FF9000CFE008FB00000000000
5FF8002FF602FF300000000000
2FF9009FC00AFA00029DFD7000
0BFD15FD103FF2004EFFFFF600
01BFFE9100CF8003EFE31EFD00
0001200005FE100CFF600CFF10
000000000DF7004FFD000CFF20
000000007FD0009FF8000DFF10
00000001EF5000DFF4000EFE00
00000008FC0000FFF1002FFA00
0000002FF30001FFE0006FF500
000000AFA00000FFE000BFC000
000003FF200000CFF004FF3000
00000BF80000005FF74DE40000
00005FE100000006DFE9200000
ENDCHAR
STARTCHAR ampersand
ENCODING 38
SWIDTH 682 0
DWIDTH 22 0
BBX 22 25 0 -1
BITMAP
000000004ADFEA30000000
0000001AFFFFFFF5000000
000000CFFF602EFE200000
000008FFF60009FF600000
00001EFFD00009FF800000
00004FFF90001EFF600000
00006FFF80008FFD100000
00006FFFA0000561000000
00003FFFE1000000000000
00000AFFFA000000000000
000001DFFFD40000000490
00004CFFFC300000139FF1
0008FFFF90004AEFFFFFF0
007FFFFA0007FFFFFFFF80
03FFFFE1002FFFFFFFF900
0BFFFF80005FFEACE73000
2FFFFF30002F710DB00000
6FFFFF100003003F700000
8FFFFF10000000CF200000
7FFFFF40000009FA000000
5FFFFFC10002BFE2000000
1EFFFFFE98BFFE30000000
04FFFFFFFFFFD300000000
003CFFFFFFE81000000000
0000367763000000000000
ENDCHAR
STARTCHAR quotesingle
ENCODING 39
SWIDTH 196 0
DWIDTH 6 0
BBX 7 8 2 16
BITMAP
003FFF20
008FF900
00DFF200
03FFA000
07FF3000
0CFB0000
2FF40000
37700000
ENDCHAR
STARTCHAR parenleft
ENCODING 40
SWIDTH 437 0
DWIDTH 14 0
BBX 13 33 4 -8
BITMAP
00000000000030
00000000003CD0
0000000008FD40
00000001BFC100
0000001CFD1000
000000BFF30000
000009FF700000
00005FFD100000
0001EFF6000000
0009FFD0000000
002FFF70000000
008FFF20000000
00EFFC00000000
04FFF700000000
08FFF300000000
0CFFF000000000
0EFFC000000000
1FFFA000000000
2FFF9000000000
3FFF8000000000
3FFF7000000000
2FFF7000000000
0FFF8000000000
0DFF8000000000
09FFA000000000
05FFC000000000
01FFF000000000
009FF300000000
002FF800000000
0009FD00000000
0001DF40000000
00003EA0000000
00000410000000
ENDCHAR
STARTCHAR parenright
ENCODING 41
SWIDTH 413 0
DWIDTH 13 0
BBX 13 33 -3 -8
BITMAP
00000001200000
0000000CC10000
00000008FA0000
00000001FF5000
00000000BFD000
000000006FF500
000000002FFC00
000000000FFF20
000000000CFF60
000000000BFF90
000000000AFFC0
0000000009FFE0
0000000009FFF0
000000000AFFF0
000000000BFFF0
000000000CFFE0
000000000EFFC0
000000002FFF90
000000005FFF60
000000009FFF20
00000000DFFC00
00000003FFF600
00000009FFE100
0000000EFF7000
0000007FFD1000
000001EFF40000
000008FF900000
00003FFB000000
0001DFC1000000
001CFB10000000
03DF9000000000
1FD40000000000
05000000000000
ENDCHAR
STARTCHAR asterisk
ENCODING 42
SWIDTH 515 0
DWIDTH 16 0
BBX 12 12 2 12
BITMAP
00000AEB0000
00002FFA0000
07B12FF80350
0EFD2EF5AFF9
0CFFEDFDFFFB
017BEFFFB720
0049EFFFC820
3EFFFDFCFFF3
1EFE4DF68FF6
02410FF906C1
00003FF90000
00004ED30000
ENDCHAR
STARTCHAR plus
ENCODING 43
SWIDTH 442 0
DWIDTH 14 0
BBX 13 12 0 4
BITMAP
0000008FF10000
000000BFD00000
000000EFA00000
000002FF700000
000004FF400000
1EEEEEFFEEEEA0
5FFFFFFFFFFF60
00001FF7000000
00005FF4000000
00008FF1000000
0000BFC0000000
00007750000000
ENDCHAR
STARTCHAR comma
ENCODING 44
SWIDTH 216 0
DWIDTH 7 0
BBX 6 9 0 -4
BITMAP
03CE90
1EFFF4
3FFFF7
1EFFF5
04EFE1
006F70
00BC00
08D200
0A1000
ENDCHAR
STARTCHAR hyphen
ENCODING 45
SWIDTH 290 0
DWIDTH 9 0
BBX 8 2 0 7
BITMAP
0DEEEEE6
4FFFFFF3
ENDCHAR
STARTCHAR period
ENCODING 46
SWIDTH 263 0
DWIDTH 8 0
BBX 5 5 1 0
BITMAP
2BEB20
BFFFC0
FFFFF0
BFFFC0
2BEB20
ENDCHAR
STARTCHAR slash
ENCODING 47
SWIDTH 311 0
DWIDTH 10 0
BBX 10 32 0 -8
BITMAP
0000000EF5
0000003FF2
0000006FE0
0000009FA0
000000CF70
000001FF40
000004FF10
000007FD00
00000AFA00
00000DF600
00001FF300
00004FF000
00008FC000
0000BF9000
0000EF5000
0002FF2000
0005FE0000
0009FB0000
000CF80000
000FF50000
003FF10000
006FD00000
009FA00000
00DF700000
01FF400000
04FF100000
07FC000000
0AF9000000
0EF6000000
2FF3000000
5FE0000000
8FB0000000
ENDCHAR
STARTCHAR zero
ENCODING 48
SWIDTH 546 0
DWIDTH 17 0
BBX 18 24 0 0
BITMAP
000000006BEFEB5000
0000004DFFFFFFFA00
000006FFFE408FFF70
00005FFFF3001FFFE1
0002EFFF80000CFFF5
000BFFFE10000AFFF8
004FFFF800000AFFFA
00AFFFF200000AFFFB
01FFFFC000000BFFFA
06FFFF8000000CFFFA
0AFFFF4000000DFFF8
0DFFFF1000001FFFF6
1FFFFE0000003FFFF3
3FFFFB0000006FFFE0
4FFFF90000009FFFB0
5FFFF8000000DFFF60
5FFFF7000003FFFF10
4FFFF7000008FFF900
2FFFF700000EFFF200
0EFFF900007FFF8000
09FFFD0002EFFC0000
02FFFF603DFFD20000
005FFFFEFFFB100000
00029DEFDA40000000
ENDCHAR
STARTCHAR one
ENCODING 49
SWIDTH 317 0
DWIDTH 10 0
BBX 11 24 0 0
BITMAP
000000000120
000000017E20
000136AEFE00
00DFFFFFFB00
01EEEFFFF800
00004FFFF400
00007FFFF100
0000AFFFD000
0000EFFFA000
0002FFFF6000
0005FFFF3000
0009FFFF0000
000CFFFC0000
000FFFF80000
003FFFF50000
007FFFF20000
00AFFFE00000
00DFFFA00000
02FFFF700000
05FFFF400000
08FFFF100000
0CFFFC000000
0FFFF9000000
3FFFF6000000
ENDCHAR
STARTCHAR two
ENCODING 50
SWIDTH 492 0
DWIDTH 16 0
BBX 17 25 -1 -1
BITMAP
00000049DEEC820000
000019FFFFFFFE4000
0000AFF601AFFFE200
0005FF90002FFFFA00
000AFF60000DFFFE00
000CFF70000BFFFF10
000BFFC0000CFFFF10
0007FFF8000EFFFD00
0000AEC3004FFFF800
0000000000BFFFE100
0000000005FFFF5000
000000002EFFF60000
00000002DFFF600000
0000001DFFE4000000
000001DFFC20000000
00001DFFA000000000
0001DFF70000000000
001CFF500000000000
00BFF6000000000000
06FFB232000001C100
0DFFFFFFFC989EF400
3FFFFFFFFFFFFFF300
5FFFFFFFFFFFFFC000
4E96568CFFFFFC2000
000000001577400000
ENDCHAR
STARTCHAR three
ENCODING 51
SWIDTH 514 0
DWIDTH 16 0
BBX 16 24 0 0
BITMAP
0000005ADEED9300
00001BFFFEFFFF70
0000CFFB103DFFF4
0005FFF10005FFFB
0009FFE00003FFFE
0008FFF20005FFFD
0003FFFB000AFFF9
00004971004FFFE2
0000000002EFFF50
000000005EFFE500
0000002CFFFE2000
00000002CFFFE500
000000001CFFFF60
0000000003FFFFE1
02AEEA0000BFFFF6
1DFFFF60007FFFF8
7FFFB100006FFFF8
AFFF2000007FFFF5
CFFD0000009FFFE1
BFFC000001EFFF80
8FFE100009FFFC00
2FFFB2029FFFC200
05EFFFEFFFF91000
0017BEFEC8300000
ENDCHAR
STARTCHAR four
ENCODING 52
SWIDTH 476 0
DWIDTH 15 0
BBX 16 24 0 0
BITMAP
0000003DEC300000
0000002FFFE10000
0000001FFFF40000
0000003FFFF30000
0000006FFFE00000
000000AFFF700000
000001FFFD01FF10
000008FFF306FD00
00002EFF600BFA00
0000AFF8001FF700
0005FF90006FF400
002EF90000BFF100
00CF800002FFD1B1
08FCBDFDBBFFDEF3
5FFFFFFFFFFFFFF2
EFFFFFFFFFFFFFA0
7843247BFFFFF910
00000000CFFD1000
00000002FFF90000
00000007FFF60000
0000000CFFF30000
0000002FFFE00000
0000008FFFB00000
000000DFFF800000
ENDCHAR
STARTCHAR five
ENCODING 53
SWIDTH 517 0
DWIDTH 17 0
BBX 16 23 0 0
BITMAP
000005421001248B
00002FFFFFFFFFFF
00005FFFFFFFFFFD
00009FFFFFFFFFF6
0000CFE47ACEFD70
0000FFB000000000
0003FF7000000000
0007FF3000000000
000AFE49DFEB5000
000DFFFFFFFFF900
001FFFEDFFFFFF60
005E82002BFFFFD0
0011000001EFFFF3
00000000008FFFF5
004ACA20006FFFF6
06FFFFB0005FFFF5
2FFFE400006FFFF2
6FFF5000009FFFD0
7FFF100001EFFF70
6FFF30000AFFFB00
2EFFD424BFFFD100
05FFFFFFFFF91000
0029DEFEC8200000
ENDCHAR
STARTCHAR six
ENCODING 54
SWIDTH 500 0
DWIDTH 16 0
BBX 17 24 0 0
BITMAP
000000005ADFEB4000
0000003DFFFFFFF700
000006FFFD403EFF10
00006FFFE2000AFF40
0003FFFF50000BFF30
000CFFFB00004FFD00
006FFFF300003DC300
00DFFFC00000000000
04FFFF700000000000
09FFFF300000000000
0DFFFE04ADFE920000
1FFFFB8FEFFFFE3000
4FFFFCC3019FFFC000
6FFFFE10000EFFF300
7FFFF800000BFFF600
7FFFF500000AFFF600
7FFFF300000BFFF500
6FFFF300000DFFF200
4FFFF400002FFFC000
1FFFF600008FFF4000
0BFFFA0002EFF90000
03FFFF502CFFB00000
006FFFFEFFF8000000
00039DEFD920000000
ENDCHAR
STARTCHAR seven
ENCODING 55
SWIDTH 464 0
DWIDTH 15 0
BBX 16 24 1 0
BITMAP
004BEEB500000002
06FFFFFFC62026C8
0EFFFFFFFFFFFFF2
2FFFFFFFFFFFFF80
1F920258A99FFD00
0600000000AFF400
0000000006FF9000
000000004FFD1000
00000002EFF40000
0000001DFF900000
000000BFFE100000
000008FFF6000000
00005FFFC0000000
0001EFFF40000000
000AFFFC00000000
003FFFF600000000
00BFFFE100000000
01FFFFA000000000
06FFFF7000000000
08FFFF5000000000
08FFFF4000000000
06FFFF6000000000
01EFFF9000000000
003CFD7000000000
ENDCHAR
STARTCHAR eight
ENCODING 56
SWIDTH 499 0
DWIDTH 16 0
BBX 16 24 0 0
BITMAP
00000028CEFD9300
000008FFFFFFFF80
00008FFFC303EFF6
0003FFFE20008FFD
0009FFFC00006FFF
000CFFFB00008FFE
000CFFFE1000DFF9
0009FFFF8007FFE1
0003FFFFF54FFE30
00009FFFFFEFB200
00000CFFFFFA0000
000006FFFFFF7000
0004CFFEFFFFF700
008FFF61DFFFFF40
0AFFF7002EFFFFD0
5FFFC00004FFFFF4
CFFF700000BFFFF6
FFFF4000006FFFF7
FFFF3000005FFFF4
DFFF5000007FFFD0
7FFFB00001EFFF50
1CFFF7103CFFF600
01BFFFFEFFFD4000
00049DEEDA500000
ENDCHAR
STARTCHAR nine
ENCODING 57
SWIDTH 489 0
DWIDTH 16 0
BBX 16 24 0 0
BITMAP
0000005ADFEB5000
00003DFFFFFFFA00
0005FFF701BFFF70
004FFF70003FFFE0
01EFFD00000EFFF4
07FFF700000DFFF7
0DFFF300000DFFFA
1FFFF000000EFFFB
2FFFE000001FFFFB
1FFFF000005FFFFB
0DFFF30000CFFFFA
07FFFC102BDFFFF8
00BFFFFEFD7FFFF6
0007DFEC718FFFF2
0000000000BFFFE0
0000000001FFFF90
0000000006FFFF30
03A800000BFFFB00
2EFF30003FFFF400
7FF80000CFFF9000
8FF60008FFFC1000
5FFC33AFFFC10000
0CFFFFFFF9100000
006CEED930000000
ENDCHAR
STARTCHAR colon
ENCODING 58
SWIDTH 267 0
DWIDTH 9 0
BBX 7 13 1 2
BITMAP
002BEB20
00CFFFB0
01FFFFE0
00DFFFB0
003CEB20
00000000
00000000
00000000
08ED5000
6FFFF200
AFFFF500
6FFFF200
09ED5000
ENDCHAR
STARTCHAR semicolon
ENCODING 59
SWIDTH 276 0
DWIDTH 9 0
BBX 8 17 1 -4
BITMAP
002BEB20
00BFFFC0
00EFFFF1
00BFFFC0
002BEC20
00000000
00000000
01661000
1DFFC000
6FFFF200
7FFFF200
1DFFD000
02DF7000
00BD1000
07E20000
2E400000
12000000
ENDCHAR
STARTCHAR less
ENCODING 60
SWIDTH 358 0
DWIDTH 11 0
BBX 12 13 0 2
BITMAP
000000000011
0000000017E3
00000017EFF2
000017EFFE70
0006EFFE8100
06DFFF910000
9FFFA2000000
7FFFC4000000
02AFFFC40000
0004CFFFB300
000006DFFA00
00000018E500
000000002100
ENDCHAR
STARTCHAR equal
ENCODING 61
SWIDTH 515 0
DWIDTH 16 0
BBX 14 11 1 3
BITMAP
00DFFFFFFFFFFD
01FFFFFFFFFFFA
04FFFFFFFFFFF8
07FFFFFFFFFFF5
00000000000000
00000000000000
00000000000000
4FFFFFFFFFFF70
7FFFFFFFFFFF40
AFFFFFFFFFFF20
DFFFFFFFFFFE00
ENDCHAR
STARTCHAR greater
ENCODING 62
SWIDTH 362 0
DWIDTH 12 0
BBX 12 13 0 2
BITMAP
002000000000
00CC30000000
02FFF9200000
017EFFE71000
00018FFFD500
0000029FFFC2
0000005DFFF2
00004CFFFB30
003BFFFB4000
2BFFFB400000
9FFB40000000
BB4000000000
200000000000
ENDCHAR
STARTCHAR question
ENCODING 63
SWIDTH 441 0
DWIDTH 14 0
BBX 13 24 1 0
BITMAP
00028CEFEA5000
006EFFFFFFF900
06FFB106FFFF60
1EFE1000CFFFB0
4FFD00009FFFC0
5FFE1000AFFFA0
3FFFB100DFFF50
07EE8106FFFA00
0000002EFFC100
000001DFFA1000
00000BFF800000
0000AFF6000000
0006FF50000000
000DF800000000
005FE100000000
008F9000000000
007B6000000000
00000000000000
00000000000000
07EE7000000000
4FFFF500000000
7FFFF800000000
4FFFF500000000
06DE7000000000
ENDCHAR
STARTCHAR at
ENCODING 64
SWIDTH 688 0
DWIDTH 22 0
BBX 22 22 -1 -3
BITMAP
00000000027BDFEDA60000
00000003BFFFFFEFFFD400
0000007FFFC620016DFF40
00000AFFE500000002EFD1
0000AFFC20000000007FF6
0007FFC1019ED6CC602FFA
002FFE202DFFFFFF601FFB
00AFF600CFF91AFF201FFB
02FFD007FFB00DFD002FFA
08FF601EFF302FF9006FF7
0CFF105FFB006FF500AFF2
0FFD009FF700AFF102FFB0
3FFA00BFF500EFD00BFF30
4FFA00AFF708FFD08FF700
4FFA006FFFFC7FFFFF7000
3FFC0009EE8109EEB40000
1FFF200000000013000000
0CFFA000000002CD000000
06FFFB3000049FFF000000
00BFFFFEDEFFFFF9000000
0019FFFFFFFFFE70000000
000038CEFEDA6100000000
ENDCHAR
STARTCHAR A
ENCODING 65
SWIDTH 668 0
DWIDTH 21 0
BBX 23 28 0 -4
BITMAP
000000000000000028DFEA10
0000000000000006EFFFFE00
000000000000009FFFFFFB00
00000000000009FE6FFFF800
0000000000008FF43FFFF400
000000000005FF606FFFF100
00000000003EFB00AFFFD000
0000000000CFE200DFFFA000
0000000008FF7001FFFF7000
000000002FFD0004FFFF3000
0017BEFFEFFA3007FFFF0000
06EFFFFFFFFFFEACFFFC0000
5FFF821DFF6036CFFFF90000
AFFD007FFE10002FFFF60000
8FFF01EFF800006FFFF20000
068308FFF200009FFFE00000
00001EFFB00000CFFFB00000
00007FFF600001FFFF800000
0000DFFF100004FFFF500000
0004FFFB000007FFFF100000
0009FFF600000BFFFD000000
000DFFF200000EFFFA000000
002FFFE000002FFFF7000000
004FFFB000006FFFF3000000
004FFF900000000000000000
002FFF800000000000000000
0007FF900000000000000000
000026600000000000000000
ENDCHAR
STARTCHAR B
ENCODING 66
SWIDTH 641 0
DWIDTH 21 0
BBX 20 25 0 -1
BITMAP
000000038BEFEDA60000
000005CFFFFEFFFFC200
0002BFFD720004CFFD10
003DFF701357201DFF70
01DFF508FFFF1008FFB0
0AFF800CFFFC0007FFB0
3FFE000FFFF9000AFF90
7FF9003FFFF5002FFF30
9FF7006FFFF201CFF800
7FF600AFFFE04DFF8000
2EF600DFFFFFFFFE8200
028601FFFFFFFFFFFE20
000004FFFF6027FFFFB0
000008FFFF20009FFFF2
00000BFFFE00003FFFF4
00000EFFFA00002FFFF5
00002FFFF700002FFFF4
00006FFFF400003FFFF2
00009FFFF100007FFFD0
0000CFFFC00000CFFF90
0001FFFF930005FFFF20
0004FFFF5AD9AFFFF900
0007FFFF2BFFFFFFB000
000AFFFE05FFFFFA1000
00000000002676200000
ENDCHAR
STARTCHAR C
ENCODING 67
SWIDTH 497 0
DWIDTH 16 0
BBX 18 25 0 -1
BITMAP
000000006ADFEC8100
0000004DFFFFEFFD20
000005FFFFC302DFB0
00003FFFFD10008FF0
0001DFFFF300008FF1
0009FFFF900000DFF0
002FFFFF200009FFA0
009FFFFA0000027600
00EFFFF50000000000
04FFFFE10000000000
08FFFFB00000000000
0CFFFF800000000000
0FFFFF500000000000
2FFFFF200000000000
4FFFFF100000000000
5FFFFF000000000000
6FFFFE000000000000
5FFFFF000000000000
4FFFFF200000000350
2FFFFF600000003E40
0DFFFFD2000017FA00
07FFFFFEA89BFFB100
00CFFFFFFFFFF90000
0019FFFFFFFA300000
000014676410000000
ENDCHAR
STARTCHAR D
ENCODING 68
SWIDTH 663 0
DWIDTH 21 0
BBX 21 25 0 -1
BITMAP
000000048CEFFDB7100000
000017DFFFFEFFFFE60000
0003DFFC620005DFFF6000
005FFE500246001DFFF200
04FFE20AFFFD0005FFFA00
1DFF400EFFFA0001FFFF10
6FFB002FFFF70000DFFF50
AFF6006FFFF30000CFFF80
CFF4009FFFF00000CFFF90
AFF300CFFFC00000DFFF90
4FF401FFFF800000EFFF90
028404FFFF500001FFFF80
000007FFFF200003FFFF60
00000AFFFE000006FFFF30
00000EFFFA000009FFFE00
00002FFFF700000DFFFA00
00005FFFF400003FFFF600
00008FFFF100009FFFE100
0000CFFFC00002FFFF8000
0000FFFF90000AFFFE1000
0003FFFF60007FFFF70000
0007FFFFC76BFFFFB00000
000AFFFFFFFFFFFC100000
000DFFFB4DFFFF91000000
0000000000476200000000
ENDCHAR
STARTCHAR E
ENCODING 69
SWIDTH 459 0
DWIDTH 15 0
BBX 16 25 0 -1
BITMAP
000000006CEFD810
0000002CFFFFFFD1
000002EFFD303EF7
00000BFFF2000BFB
00004FFFA0000CFB
00009FFF60003FF7
0000BFFF5000CFD1
0000BFFF60001410
00008FFFB0000000
00002EFFF6000000
000004FFFF920000
00007DFFFB300000
001CFFFF80000000
00BFFFF900000000
07FFFFE100000000
1EFFFF7000000000
5FFFFF1000000000
9FFFFD0000000000
BFFFFD0000000053
BFFFFE10000004E1
9FFFFF8000029F50
4FFFFFFC89BFF600
0AFFFFFFFFFE4000
008FFFFFFD810000
0001577630000000
ENDCHAR
STARTCHAR F
ENCODING 70
SWIDTH 459 0
DWIDTH 15 0
BBX 20 24 0 0
BITMAP
0000016ACEFFFFFFFFF3
00018EFFFFFFFFFFFFB0
002DF71AFFFE8BDEEA10
01EF700EFFFA00000000
0AFE002FFFF800000000
2FF9005FFFF500000000
7FF7008FFFF200000000
AFF500BFFFE000000000
AFF400EFFFC000000000
9FF402FFFF9000000000
3FF506FFFFFFFFF10000
039609FFFFFFFFD00000
00000CFFFE5555400000
00000FFFFB0000000000
00003FFFF80000000000
00006FFFF50000000000
00009FFFF10000000000
0000CFFFD00000000000
0001FFFFA00000000000
0004FFFF600000000000
0007FFFF300000000000
000AFFFE000000000000
000DFFFB000000000000
001FFFF8000000000000
ENDCHAR
STARTCHAR G
ENCODING 71
SWIDTH 578 0
DWIDTH 19 0
BBX 19 31 0 -7
BITMAP
000000005ADEFEB60000
0000006DFFFFFFFFC100
00001AFFFFA3008FFA00
0001CFFFF700000EFF10
000AFFFF8000000EFF20
006FFFFB0000004FFF10
01EFFFF3000001DFFA00
06FFFFB00000005A8100
0BFFFF50000000000000
1FFFFF10000000000000
3FFFFC00000000000000
5FFFFA00000006FFF500
6FFFF80000000BFFF200
5FFFF80000001FFFE000
4FFFF90000007FFFB000
1FFFFC000001EFFF7000
0CFFFF30000AFFFF4000
05FFFFD303BFFFFF1000
00BFFFFFFFFBFFFD0000
001CFFFFFF78FFF90000
00005ACB830CFFF60000
00000353001FFFF30000
0002CFFF904FFFE00000
001DFFFFF28FFFA00000
006FFF99E3BFFF600000
00AFF40021EFFE100000
00CFE00004FFF9000000
00AFF1000CFFE2000000
004FFA12AFFF50000000
0007FFFFFFF600000000
00004ADEC82000000000
ENDCHAR
STARTCHAR H
ENCODING 72
SWIDTH 665 0
DWIDTH 21 0
BBX 23 24 0 0
BITMAP
000000038CEFB00008FFFF10
000004CFFFFF90000BFFFD00
0001AFFEFFFF60000EFFFA00
001CFE75FFFF30002FFFF700
01DFF508FFFF00005FFFF400
0AFF700CFFFC00008FFFF100
3FFE000FFFF90000BFFFC000
7FF9003FFFF50000EFFF9000
9FF7006FFFF20002FFFF6000
7FF600AFFFE00005FFFF3000
2FF600DFFFFFFFFFFFFE0000
039701FFFFFFFFFFFFFC0000
000005FFFF85555FFFF80000
000008FFFF20003FFFF50000
00000BFFFE00006FFFF20000
00000EFFFA00009FFFE00000
00003FFFF70000DFFFB00000
00006FFFF40001FFFF800000
00009FFFF10004FFFF400000
0000CFFFC00007FFFF100000
0001FFFF90000BFFFD000000
0004FFFF50000EFFFA000000
0007FFFF20002FFFF7000000
000AFFFE00006FFFF3000000
ENDCHAR
STARTCHAR I
ENCODING 73
SWIDTH 375 0
DWIDTH 12 0
BBX 13 24 0 0
BITMAP
000000059CEF90
000006EFFFFF60
0003CFEBFFFF30
004EFA19FFFE00
04FFB00CFFFB00
1EFE101FFFF800
7FF9004FFFF500
BFF5007FFFF200
CFF300AFFFE000
9FF300DFFFA000
2DF402FFFF7000
004305FFFF4000
000008FFFF1000
00000BFFFD0000
00000EFFF90000
00003FFFF60000
00006FFFF30000
00009FFFF00000
0000CFFFC00000
0001FFFF800000
0004FFFF500000
0007FFFF200000
000AFFFE000000
000DFFFB000000
ENDCHAR
STARTCHAR J
ENCODING 74
SWIDTH 536 0
DWIDTH 17 0
BBX 19 31 0 -7
BITMAP
00000000000016ADEF60
000000000018EFFFFF30
0000000005EFDCFFFE00
000000007FF80CFFFC00
00000007FF801FFFF800
0000003FFC004FFFF500
000000AFF6007FFFF200
000000EFF200AFFFE000
000000FFF000DFFFB000
000000CFF002FFFF8000
0000003DF105FFFF5000
000000003108FFFF1000
00000000000CFFFD0000
00000000000FFFFA0000
00000000003FFFF70000
00000000007FFFF40000
0000000000AFFFF10000
0000000000DFFFD00000
0000000001FFFF900000
0000000005FFFF600000
0000000008FFFF300000
000354000BFFFF000000
01CFFFE30EFFFC000000
0BFFFFF83FFFF8000000
3FFFB8C86FFFF4000000
6FFA0001AFFFE0000000
6FF40000EFFF80000000
4FF60005FFFE10000000
1EFD304EFFF400000000
05FFFFFFFE4000000000
003ADEDA610000000000
ENDCHAR
STARTCHAR K
ENCODING 75
SWIDTH 601 0
DWIDTH 19 0
BBX 22 25 0 -1
BITMAP
000000049CEF900007FFC1
000005DFFFFF60003FFE20
0002BFECFFFF3001DFF300
003EFC29FFFF0009FF6000
03EFD10CFFFC004FF90000
0CFF301FFFF901EFB00000
5FFB004FFFF60AFD100000
AFF6007FFFF36FE3000000
CFF400AFFFF2EF50000000
AFF300DFFFCCF700000000
5FF301FFFFFFB210000000
05B505FFFFFFFFFC400000
000008FFFF65BFFFE10000
00000BFFFE001EFFF50000
00000EFFFB000DFFF60000
00003FFFF7000FFFF40000
00006FFFF4002FFFF20000
00009FFFF1006FFFD00000
0000CFFFC000BFFF900000
0001FFFF9000EFFF500000
0004FFFF6004FFFF100000
0007FFFF2006FFFE000000
000AFFFE0008FFFE000000
000DFFFB0004FFFF700000
0000000000003775200000
ENDCHAR
STARTCHAR L
ENCODING 76
SWIDTH 379 0
DWIDTH 12 0
BBX 22 32 0 -8
BITMAP
000000059CEF9000000000
000006EFFFFF6000000000
0003CFEBFFFF3000000000
004EFA19FFFE0000000000
04FFB00CFFFB0000000000
1EFE101FFFF80000000000
7FF9004FFFF50000000000
BFF5007FFFF20000000000
CFF300AFFFE00000000000
9FF300EFFFA00000000000
2EF402FFFF700000000000
015305FFFF400000000000
000008FFFF100000000000
00000BFFFD000000000000
00000EFFF9000000000000
00003FFFF6000000000000
00006FFFF3000000000000
00009FFFE0000000000000
0000DFFFC0000000000000
0001FFFF80000000000000
0004FFFF50000000000000
0007FFFF20000000000000
000AFFFE00000000000000
000EFFFE92000000000000
00189CFFFF910000000000
0000003BFFFE5000000000
000000004DFFFB30000000
0000000001BFFFFA520261
000000000008FFFFFFFFE0
0000000000005EFFFFFFA0
00000000000002CFFFFF30
0000000000000005BED500
ENDCHAR
STARTCHAR M
ENCODING 77
SWIDTH 787 0
DWIDTH 25 0
BBX 24 24 2 0
BITMAP
00000028CEFFC000001FFFFA
00001AFFFFFFB000007FFFF8
0005EFA3EFFFB00000DFFFF6
006FF605FFFFA00005FFFFF4
05FF800BFFFF90000BFFFFF2
1EFD001FFFFF90002FFFFFE0
7FF8007FFFFF80008FFFFFC0
BFF500CFFFFF7000EFFFFFA0
BFF303FFFFFF7005FFFFFF80
8FF308FEFFFF600BFEFFFF60
1AF60EF9FFFF503FFAFFFF40
00014FF4FFFF509FE8FFFF20
0000AFD1FFFF41EF89FFFF00
0001EF82FFFF46FF2CFFFD00
0006FF23FFFF3CFA0EFFFB00
000BFC03FFFF6FF41FFFF800
002FF604FFFFBFD03FFFF600
007FF105FFFFFF705FFFF400
00DFA005FFFFFF107FFFF200
03FF5006FFFFFA009FFFF000
09FE0007FFFFF300BFFFD000
0EF90007FFFFC000DFFFB000
5FF40008FFFF6000FFFF9000
AFD00009FFFE1002FFFF7000
ENDCHAR
STARTCHAR N
ENCODING 78
SWIDTH 668 0
DWIDTH 21 0
BBX 23 24 0 0
BITMAP
0000017BDFEC50000003FFD0
00007EFFFFFFA0000007FFA0
001CFFB8FFFFE000000AFF60
01CFF708FFFFF200000DFF30
0AFF800BFFFFF500001FFF00
3FFE100EFFFFF900004FFC00
8FF9003FFFFFFC00007FF800
BFF6006FFFFFFF1000AFF500
CFF5009FFDFFFF4000DFF200
9FF700DFF6FFFF7001FFE000
3FF901FFF2DFFFB004FFA000
039B04FFD09FFFE007FF7000
000008FFA06FFFF20AFF4000
00000BFF602FFFF60DFF1000
00000EFF300EFFF91FFC0000
00003FFE000AFFFC5FF90000
00006FFB0006FFFF8FF60000
00009FF70003FFFFEFF30000
0000DFF40000EFFFFFE00000
0001FFF10000BFFFFFB00000
0004FFC000007FFFFF800000
0008FF8000004FFFFF500000
000BFF5000001FFFFF100000
000EFF1000000CFFFD000000
ENDCHAR
STARTCHAR O
ENCODING 79
SWIDTH 665 0
DWIDTH 21 0
BBX 21 24 0 0
BITMAP
0000000038BDEFEC820000
0000017DFFFFEFFFFF7000
00005DFFB621004CFFF600
0008FFD4028CC501EFFE10
009FFB106FFF90009FFF70
06FFD106FFFC00006FFFA0
0EFF402EFFF400005FFFD0
4FFC00BFFFC000004FFFE0
7FF805FFFF5000005FFFF0
6FF70BFFFD0000006FFFE0
1DF72FFFF90000008FFFC0
01658FFFF4000000BFFFA0
0000CFFFE0000000EFFF70
0001FFFFB0000003FFFF30
0003FFFF80000008FFFE00
0006FFFF6000000DFFF900
0007FFFF4000004FFFF300
0008FFFF300000CFFFA000
0008FFFF400005FFFF2000
0006FFFF50002EFFF70000
0002FFFFB002CFFFA00000
0000BFFFFB9EFFFA000000
00002DFFFFFFFE70000000
0000017CEFDB7100000000
ENDCHAR
STARTCHAR P
ENCODING 80
SWIDTH 573 0
DWIDTH 18 0
BBX 19 24 0 0
BITMAP
000000059CEFDC820000
000006DFFFFEFFFF8000
0003CFFA510016EFF900
003EFC200246006FFF40
03EFC10AFFFD000DFFA0
0DFF300EFFFA000AFFD0
6FFA002FFFF70009FFE0
AFF6006FFFF3000BFFD0
CFF4009FFFF0000EFFA0
AFF300CFFFC0004FFF40
3FF401FFFF9000CFFC00
027404FFFF5006FFE200
000007FFFF205FFE4000
00000AFFFE39FFC20000
00000EFFFFFEA5000000
00002FFFF70000000000
00005FFFF40000000000
00008FFFF10000000000
0000CFFFC00000000000
0000FFFF900000000000
0003FFFF600000000000
0007FFFF200000000000
000AFFFE000000000000
000DFFFB000000000000
ENDCHAR
STARTCHAR Q
ENCODING 81
SWIDTH 665 0
DWIDTH 21 0
BBX 21 28 0 -4
BITMAP
0000000038BDEFEC820000
0000017DFFFFEFFFFF7000
00005DFFB621004CFFF600
0008FFD4028BC501EFFE10
009FFC106FFFA0009FFF70
06FFD106FFFD10006FFFB0
0EFF402EFFF400005FFFD0
4FFC00BFFFC000004FFFE0
7FF905FFFF5000005FFFE0
6FF70BFFFE0000006FFFD0
1EF72FFFF90000008FFFC0
01658FFFF4000000BFFF90
0000CFFFE0000000EFFF60
0001FFFFC0000003FFFF30
0003FFFF80000008FFFD00
0006FFFF6000000DFFF800
0007FFFF4000004FFFE100
0008FFFF300000BFFF8000
0008FFFF300004FFFE1000
0006FFFFCEEC5DFFF40000
0002FFFFD47FFFFF700000
0000BFFFFEEFFFF6000000
00002DFFFFFFFFF4000000
0000017CEFDADFFE200000
0000000000007FFFE85200
0000000000001EFFFFF300
00000000000005FFFF8000
0000000000000026730000
ENDCHAR
STARTCHAR R
ENCODING 82
SWIDTH 601 0
DWIDTH 19 0
BBX 19 25 0 -1
BITMAP
000000059CEFEC940000
000006EFFFFEFFFFB100
0003CFFB621004CFFC00
004EFD402468002EFF60
04FFE20BFFFC000BFF90
1EFF300EFFF9000BFF90
7FFB003FFFF5000EFF60
BFF6006FFFF2006FFE10
CFF3009FFFD003EFF400
9FF300DFFFA16EFE5000
2EF401FFFFFFFFFA1000
014304FFFFFFFFFFD000
000007FFFF217FFFF400
00000BFFFD000EFFF600
00000EFFFA000DFFF500
00002FFFF7000FFFF300
00005FFFF3003FFFF000
00009FFFF0007FFFB000
0000CFFFC000BFFF8000
0000FFFF9001FFFF4000
0003FFFF5004FFFF1000
0007FFFF2007FFFE0000
000AFFFE0008FFFE0000
000DFFFB0004FFFF8000
00000000000037752000
ENDCHAR
STARTCHAR S
ENCODING 83
SWIDTH 570 0
DWIDTH 18 0
BBX 17 25 1 -1
BITMAP
000000049DEFD93000
000002BFFFFFFFF600
00001DFFFA103EFF30
00009FFFC00007FF80
0000EFFF800006FFA0
0002FFFF80000BFF90
0001FFFFB0005FFF30
0000DFFFF40018A400
00007FFFFE20000000
00001DFFFFD1000000
000003EFFFFC100000
0000005FFFFFB00000
00000008FFFFF80000
00000000AFFFFF4000
005BDB301DFFFFC000
08FFFFE203FFFFF200
4FFFF94100BFFFF500
AFFF5000007FFFF600
DFFD0000006FFFF500
DFFB0000008FFFF100
AFFE000001EFFF9000
4FFF91002CFFFC1000
08FFFEBCFFFFB10000
005DFFFFFFC6000000
000036775200000000
ENDCHAR
STARTCHAR T
ENCODING 84
SWIDTH 481 0
DWIDTH 15 0
BBX 23 24 0 0
BITMAP
0000016ACEFFDA6100000050
00019FFFFFFFFFFEA42039D0
003DFFFFDEFFFFFFFFFFFF90
02EFFC5109FFFFFFFFFFFF30
0BFFA0000CFFFF69CDEEB400
3FFE10000FFFFC0000000000
8FF900003FFFF80000000000
BFF500007FFFF50000000000
CFF40000AFFFF20000000000
BFF30000DFFFD00000000000
6FF30001FFFFA00000000000
06C60004FFFF600000000000
00000008FFFF300000000000
0000000BFFFE000000000000
0000000EFFFB000000000000
0000002FFFF8000000000000
0000005FFFF5000000000000
0000009FFFF1000000000000
000000CFFFD0000000000000
000000FFFFA0000000000000
000003FFFF60000000000000
000007FFFF30000000000000
00000AFFFE00000000000000
00000DFFFB00000000000000
ENDCHAR
STARTCHAR U
ENCODING 85
SWIDTH 716 0
DWIDTH 23 0
BBX 26 24 -1 0
BITMAP
0000000169CEFF7000004FFFF4
000002AFFFFFFF5000007FFFF1
00008FFB48FFFF100000AFFFD0
001BFF600BFFFC000000DFFFA0
00BFF5000FFFF8000002FFFF60
06FFA0004FFFF4000005FFFF30
0DFF30008FFFE0000008FFFF00
1FFE0000CFFFB000000CFFFC00
1FFD0001FFFF7000000FFFF900
0DFF0004FFFF3000003FFFF600
03DF4008FFFD0000006FFFF200
0014400CFFFA000000AFFFE000
0000001FFFF5000000DFFFB000
0000005FFFF1000001FFFF8000
0000008FFFD0000005FFFF4000
000000BFFF90000008FFFF1000
000000EFFF6000000CFFFB0000
000000FFFF4000003FFFF60000
000000FFFF400000AFFFE00000
000000EFFF600004FFFF600000
000000AFFFD3006EFFFB000000
0000003FFFFFEEFFFFC1000000
00000006FFFFFFFFF800000000
0000000029CEFEC82000000000
ENDCHAR
STARTCHAR V
ENCODING 86
SWIDTH 615 0
DWIDTH 20 0
BBX 22 24 0 0
BITMAP
000000059CEFA0000007FC
000006EFFFFFB000000CF6
0003CFD6FFFFB000002FF1
004EFA10FFFFB000007FA0
04FFA000FFFFB00000CF40
1EFE1000FFFFC00002FE00
7FF90000EFFFC00008F800
BFF50000EFFFC0000DF300
CFF30000EFFFC0003FC000
9FF30000DFFFD0008F6000
2DF40000DFFFD000DF1000
00430000DFFFD003FA0000
00000000CFFFD008F50000
00000000CFFFD00DE00000
00000000CFFFE03F900000
00000000BFFFE09F300000
00000000BFFFE0ED000000
00000000BFFFE4F7000000
00000000AFFFF9F2000000
00000000AFFFFEB0000000
00000000AFFFFF50000000
000000009FFFFE10000000
000000009FFFF900000000
000000008FFFF400000000
ENDCHAR
STARTCHAR W
ENCODING 87
SWIDTH 962 0
DWIDTH 31 0
BBX 33 24 0 0
BITMAP
000000059CEFA0000007FFFC0000006FD0
000006EFFFFFB000000CFFFC000000BF70
0003CFD6FFFFB000002FFFFC000001FF20
004EFA10FFFFB000007FFFFC000006FB00
04FFA000FFFFB00000CFFFFD00000BF500
1EFE1000FFFFC00002FFFFFD00001FE100
7FF90000EFFFC00008FFFFFD00006F9000
BFF50000EFFFC0000DFFFFFD0000CF4000
CFF30000EFFFC0003FDDFFFE0002FD0000
9FF30000DFFFD0008F7CFFFE0007F80000
2DF40000DFFFD000DF2CFFFE000CF20000
00430000DFFFD003FB0CFFFE002FB00000
00000000CFFFD008F50BFFFE007F600000
00000000CFFFD00DE10BFFFF00CE100000
00000000CFFFE03F900BFFFF02FA000000
00000000BFFFE09F400AFFFF07F4000000
00000000BFFFE0ED000AFFFF0DD0000000
00000000BFFFE4F7000AFFFF3F80000000
00000000AFFFF9F20009FFFF8F20000000
00000000AFFFFEB00009FFFFEC00000000
00000000AFFFFF600009FFFFF600000000
000000009FFFFE100008FFFFF100000000
000000009FFFF9000008FFFFA000000000
000000008FFFF4000007FFFF5000000000
ENDCHAR
STARTCHAR X
ENCODING 88
SWIDTH 620 0
DWIDTH 20 0
BBX 20 24 0 0
BITMAP
000000059CEFB00007FB
000006EFFFFFF0001EF3
0003CFD6FFFFF3009F90
004EFA10CFFFF602FE10
04FFA0009FFFF90AF700
1EFE10005FFFFC4FD000
7FF900002FFFFFCF5000
BFF500000EFFFFFC0000
CFF300000BFFFFF30000
9FF3000008FFFFB00000
2DF4000005FFFFD00000
0043000002FFFFF10000
0000000000DFFFF40000
0000000000CFFFF70000
0000000005FFFFFA0000
000000000DFFFFFD0000
000000007F9FFFFF2000
00000001EE1CFFFF5000
00000009F609FFFF8000
0000003FC006FFFFB000
000000BF4003FFFFE000
000005FA0000EFFFF200
00000DF20000BFFFF500
00007F8000008FFFF800
ENDCHAR
STARTCHAR Y
ENCODING 89
SWIDTH 620 0
DWIDTH 20 0
BBX 23 24 0 0
BITMAP
000000059CEFC0000001EF20
000006EFFFFFF1000006FA00
0003CFD6EFFFF400000CF400
004EFA10BFFFF800003FC000
04FFA0007FFFFC00009F5000
1EFE10003FFFFF1001FD0000
7FF900000EFFFF4007F70000
BFF500000AFFFF800DE10000
CFF3000007FFFFB04F900000
9FF3000003FFFFE0AF200000
2DF4000000EFFFF5FB000000
0043000000AFFFFEF4000000
00000000006FFFFFC0000000
00000000002FFFFF60000000
00000000001FFFFF10000000
00000000004FFFFC00000000
00000000007FFFF900000000
0000000000BFFFF600000000
0000000000EFFFF300000000
0000000002FFFFE000000000
0000000005FFFFB000000000
0000000009FFFF8000000000
000000000CFFFF5000000000
000000000FFFFF2000000000
ENDCHAR
STARTCHAR Z
ENCODING 90
SWIDTH 542 0
DWIDTH 17 0
BBX 18 24 0 0
BITMAP
00007DFFFFFFFFFFF6
0008FFFFEEEEFFFFD0
001FFE20000BFFFF60
003FFF30004FFFFD00
001EFE1000BFFFF600
0002520004FFFFD000
000000000CFFFF6000
000000004FFFFD0000
00000000CFFFF60000
00000004FFFFD00000
0000000CFFFF600000
0000005FFFFD000000
000000CFFFF6000000
000005FFFFD0000000
00000CFFFF60000000
00005FFFFD00000000
0000DFFFF600000000
0005FFFFD000000000
000DFFFF6000036100
005FFFFD00004FFC00
00DFFFF600007FFE00
06FFFFD000006FFB00
0DFFFFFEEEEFFFE200
6FFFFFFFFFFFEA2000
ENDCHAR
STARTCHAR bracketleft
ENCODING 91
SWIDTH 400 0
DWIDTH 13 0
BBX 15 32 -1 -8
BITMAP
00000009FFFFFF30
0000000CFFEEEE10
0000001FFF400000
0000004FFF100000
0000007FFD000000
000000AFFA000000
000000DFF6000000
000001FFF3000000
000004FFF0000000
000007FFC0000000
00000BFF90000000
00000EFF60000000
00002FFF20000000
00005FFE00000000
00008FFB00000000
0000BFF800000000
0000EFF500000000
0003FFF100000000
0006FFD000000000
0009FFA000000000
000CFF7000000000
000FFF4000000000
003FFF1000000000
007FFC0000000000
00AFF90000000000
00DFF60000000000
01FFF30000000000
04FFE00000000000
07FFB00000000000
0AFF800000000000
0EFFEEEC00000000
2FFFFFFA00000000
ENDCHAR
STARTCHAR backslash
ENCODING 92
SWIDTH 362 0
DWIDTH 12 0
BBX 10 32 1 -8
BITMAP
8FB0000000
5FE0000000
2FF3000000
0EF6000000
0BF9000000
07FC000000
04FF100000
01FF300000
00DF700000
00AFA00000
007FD00000
003FF10000
000FF40000
000CF80000
0009FB0000
0006FE0000
0002FF2000
0000EF5000
0000BF9000
00008FC000
00005FF000
00002FF300
00000DF600
00000AF900
000007FD00
000004FF10
000001FF40
000000CF70
0000009FA0
0000006FE0
0000003FF2
0000000EF5
ENDCHAR
STARTCHAR bracketright
ENCODING 93
SWIDTH 400 0
DWIDTH 13 0
BBX 14 32 -2 -8
BITMAP
0000004FFFFFF8
0000006EEEFFF5
0000000002FFF2
0000000005FFE0
0000000008FFA0
000000000BFF70
000000000EFF40
000000003FFF10
000000006FFD00
000000009FFA00
00000000CFF700
00000001FFF300
00000004FFF000
00000007FFC000
0000000AFF9000
0000000DFF6000
0000001FFF3000
0000005FFE0000
0000008FFB0000
000000BFF80000
000000EFF50000
000002FFF20000
000006FFE00000
000009FFB00000
00000CFF700000
00000FFF400000
00003FFF100000
00007FFD000000
0000AFFA000000
0000DFF7000000
9EEEFFF4000000
CFFFFFF1000000
ENDCHAR
STARTCHAR asciicircum
ENCODING 94
SWIDTH 421 0
DWIDTH 13 0
BBX 10 6 1 18
BITMAP
0000004E30
000005FF80
00007FFFD0
0008FFBDF3
00AFB403F7
1CB400006C
ENDCHAR
STARTCHAR underscore
ENCODING 95
SWIDTH 444 0
DWIDTH 14 0
BBX 12 2 1 0
BITMAP
6EEEEEEEEEEB
AFFFFFFFFFF8
ENDCHAR
STARTCHAR grave
ENCODING 96
SWIDTH 201 0
DWIDTH 6 0
BBX 5 6 0 18
BITMAP
1EFF30
09FF50
03FF80
00BFA0
005FC0
000DF0
ENDCHAR
STARTCHAR a
ENCODING 97
SWIDTH 526 0
DWIDTH 17 0
BBX 20 16 -1 0
BITMAP
0000029DFEA6FFFF4000
00005EFFFFFDFFFF1000
0004FFFF603FFFFC0000
002EFFF7000EFFF90000
00AFFFD0003FFFF60000
03FFFF60006FFFF30000
09FFFF10009FFFE00000
0DFFFC0000CFFFB00000
2FFFF80001FFFF800000
4FFFF60004FFFF500000
6FFFF50007FFFF2004C1
6FFFF5000DFFFE000BA0
4FFFFA01AFFFFF207F20
1EFFFFEFF9FFFFFEF700
06FFFFFF61DFFFFF8000
005CFEA3003BEEA30000
ENDCHAR
STARTCHAR b
ENCODING 98
SWIDTH 444 0
DWIDTH 14 0
BBX 14 23 -1 0
BITMAP
00000000200000
00006BDFF00000
0000CFFFC00000
0001FFFF800000
0004FFFF500000
0007FFFF200000
000AFFFE000000
000DFFFCADFC40
002FFFFFFFFFF3
005FFFF601DFF9
008FFFF0007FFD
00CFFFC0004FFF
00EFFF90004FFF
03FFFF50005FFE
06FFFF20007FFC
0AFFFE0000BFF9
0DFFFB0001FFF5
1FFFF80006FFE1
2FFFF6001EFF80
3FFFFB12BFFD10
0EFFFFFFFFE200
07FFFFFFFD2000
005CEFEB600000
ENDCHAR
STARTCHAR c
ENCODING 99
SWIDTH 384 0
DWIDTH 12 0
BBX 15 16 -1 0
BITMAP
0000018CEFD70000
00004EFFFFFF5000
0004FFFF40DFA000
002EFFF600BFA000
00BFFFD000EF4000
03FFFF6000220000
09FFFF1000000000
0DFFFC0000000000
2FFFF80000000000
4FFFF60000000000
6FFFF50000003C20
6FFFF6000004E700
4FFFFC10029FA000
1EFFFFFDEFFA0000
06FFFFFFFE700000
004AEFEC71000000
ENDCHAR
STARTCHAR d
ENCODING 100
SWIDTH 525 0
DWIDTH 17 0
BBX 19 23 -1 0
BITMAP
00000000000000000100
00000000000019BDF800
0000000000004FFFF500
0000000000007FFFF200
000000000000AFFFE000
000000000000EFFFB000
000000000002FFFF7000
0000029DFEA6FFFF4000
00005EFFFFFEFFFF1000
0004FFFF603FFFFD0000
002EFFF7000FFFF90000
00AFFFD0003FFFF60000
03FFFF60006FFFF30000
09FFFF1000AFFFF00000
0DFFFC0000DFFFC00000
2FFFF80001FFFF800000
4FFFF60004FFFF500000
6FFFF50007FFFF2003A0
6FFFF5000DFFFE000AA0
4FFFFA01AFFFFE106F30
1EFFFFEFFBFFFFEEF800
06FFFFFF71EFFFFF9000
005CFEB4003CEEB40000
ENDCHAR
STARTCHAR e
ENCODING 101
SWIDTH 384 0
DWIDTH 12 0
BBX 15 16 -1 0
BITMAP
0000018CEEC60000
00004EFFFFFF5000
0005FFFF50DFA000
002EFFF600CFB000
00BFFFD000EF9000
03FFFF6007FF4000
09FFFF104FFB0000
0DFFFC28FFC10000
2FFFFFFFFA100000
4FFFFEC930000000
6FFFF50000000610
6FFFF6000002CA00
4FFFFB10027EC100
1EFFFFFDEFFC1000
06FFFFFFFF800000
004AEFEC82000000
ENDCHAR
STARTCHAR f
ENCODING 102
SWIDTH 267 0
DWIDTH 9 0
BBX 20 32 -7 -8
BITMAP
00000000000029DFC600
000000000006FFFFFF90
00000000003FFFFFDFF2
0000000000AFFFF406F4
0000000001FFFF9003C3
0000000004FFFF500000
0000000008FFFF200000
000000000BFFFD000000
000000000EFFFFFF1000
000000002FFFF8220000
000000005FFFF4000000
000000008FFFF1000000
00000000CFFFC0000000
00000000FFFF90000000
00000003FFFF60000000
00000006FFFF30000000
00000009FFFE00000000
0000000DFFFB00000000
0000001FFFF800000000
0000004FFFF500000000
0000007FFFF200000000
000000AFFFE000000000
000000DFFFA000000000
000003FFFF7000000000
0016CFFFFF4000000000
03DC48FFFF1000000000
2EB00BFFFD0000000000
7F301FFFF90000000000
9F408FFFF40000000000
8FFEFFFFB00000000000
1DFFFFFD200000000000
019DFC71000000000000
ENDCHAR
STARTCHAR g
ENCODING 103
SWIDTH 507 0
DWIDTH 16 0
BBX 19 24 -1 -8
BITMAP
0000029DFEA6FFFF4000
00005EFFFFFDFFFF1000
0004FFFF603FFFFC0000
002EFFF7000EFFF90000
00AFFFD0003FFFF60000
03FFFF60006FFFF30000
09FFFF1000AFFFE00000
0DFFFB0000DFFFB00000
2FFFF80001FFFF800000
4FFFF60004FFFF500000
6FFFF50008FFFF100B50
6FFFF6001DFFFD005F20
4FFFFB12BFFFFA00DA00
1EFFFFFFFFFFF71AE100
06FFFFFFCFFFF9DD3000
005CFEB49FFFFE910000
0000003AFFFFD1000000
00002AFFFFFFA0000000
0002EF94FFFF60000000
000AF706FFFF20000000
000DE00AFFFC00000000
000DE14FFFF500000000
0007FFFFFF8000000000
00006CFEA40000000000
ENDCHAR
STARTCHAR h
ENCODING 104
SWIDTH 505 0
DWIDTH 16 0
BBX 20 23 -2 0
BITMAP
00000000010000000000
000005ACEF0000000000
00000CFFFC0000000000
00001FFFF90000000000
00003FFFF50000000000
00007FFFF20000000000
0000AFFFE00000000000
0000DFFFB3AEEC400000
0001FFFFCFFFFFF30000
0005FFFFFFEFFFF80000
0008FFFFB11EFFFA0000
000BFFFF200CFFF90000
000EFFFA000DFFF80000
003FFFF6001FFFF50000
006FFFF3005FFFF10000
009FFFE0008FFFD00000
00CFFFC000BFFF900000
01FFFF8000EFFF5000A4
04FFFF5002FFFF3006E1
07FFFF2003FFFF603E80
0AFFFE0001FFFFFEFD10
0DFFFB00009FFFFFE300
2FFFF7000018DFD91000
ENDCHAR
STARTCHAR i
ENCODING 105
SWIDTH 267 0
DWIDTH 9 0
BBX 11 22 -1 0
BITMAP
00003CEA1000
0000DFFF9000
0002FFFFD000
0000EFFFA000
00003CEA1000
000000000000
000EFFFA0000
002FFFF70000
005FFFF40000
009FFFF10000
00CFFFC00000
00FFFF900000
03FFFF600000
07FFFF300000
0AFFFE000000
0DFFFB000000
1FFFF8000890
3FFFF6002E50
3FFFF914DC00
1FFFFFFFE300
0AFFFFFE4000
019DFC710000
ENDCHAR
STARTCHAR j
ENCODING 106
SWIDTH 240 0
DWIDTH 8 0
BBX 16 30 -7 -8
BITMAP
00000000006DE800
0000000003FFFF50
0000000006FFFF90
0000000003FFFF60
00000000006DE800
0000000000000000
000000000EFFFB00
000000002FFFF800
000000005FFFF400
000000008FFFF100
00000000BFFFD000
00000000EFFFA000
00000003FFFF7000
00000006FFFF4000
00000009FFFF1000
0000000CFFFD0000
0000001FFFFA0036
0000004FFFF600AA
0000007FFFF302F4
000000AFFFF10BA0
000000DFFFC1BB10
000001FFFFEE7000
00016CFFFF810000
005EFFFFFF200000
07FFBCFFFE000000
2FE40DFFFA000000
6F702FFFF5000000
6F70BFFFC0000000
1EFFFFFD20000000
02AEFD8100000000
ENDCHAR
STARTCHAR k
ENCODING 107
SWIDTH 518 0
DWIDTH 17 0
BBX 20 23 -2 0
BITMAP
00000000130000000000
000007CEFF0000000000
00000CFFFC0000000000
00001FFFF80000000000
00004FFFF50000000000
00007FFFF20000000000
0000AFFFE00000000000
0000EFFFB0001AFF6000
0002FFFF7002CFC20000
0005FFFF404EF8000000
0008FFFF17FD40000000
000BFFFDAFFA94000000
000EFFFFFFFFFF600000
003FFFFFFFFFFFE10000
006FFFFC30AFFFF30000
009FFFE0007FFFF40000
00CFFFC0008FFFF20000
01FFFF8000BFFFD00068
04FFFF5000DFFFB001E7
07FFFF2000FFFFC00AE1
0AFFFE0000DFFFFEEF50
0EFFFB00007FFFFFF700
2FFFF7000005CEEB4000
ENDCHAR
STARTCHAR l
ENCODING 108
SWIDTH 267 0
DWIDTH 9 0
BBX 11 23 -1 0
BITMAP
000000125100
00008DFFE000
0000DFFFB000
0001FFFF8000
0004FFFF5000
0007FFFF2000
000BFFFD0000
000EFFFA0000
002FFFF70000
005FFFF40000
009FFFF10000
00CFFFC00000
00FFFF900000
03FFFF600000
07FFFF300000
0AFFFE000000
0DFFFB000000
1FFFF8000AA0
3FFFF6002F40
3FFFF914DC00
1FFFFFFFE200
0AFFFFFD3000
019DFC710000
ENDCHAR
STARTCHAR m
ENCODING 109
SWIDTH 752 0
DWIDTH 24 0
BBX 28 16 -2 0
BITMAP
0000EFFFA3AEEC5003BEEB300000
0002FFFFCFFFFFF36FFFFFE20000
0005FFFFFFEFFFFCFEEFFFF70000
0009FFFFB11FFFFFA02FFFF90000
000CFFFF200EFFFE100DFFF80000
000FFFFA001FFFF9000FFFF60000
003FFFF6004FFFF5003FFFF30000
006FFFF3007FFFF2006FFFE00000
009FFFF000BFFFD0009FFFB00000
00DFFFC000EFFFA000DFFF700000
01FFFF8002FFFF7001FFFF4001A3
04FFFF5005FFFF4003FFFF2007E0
07FFFF2009FFFF1004FFFF404F70
0AFFFE000CFFFC0002FFFFFEFD10
0EFFFB000FFFF90000AFFFFFD200
2FFFF7003FFFF6000019EFD81000
ENDCHAR
STARTCHAR n
ENCODING 110
SWIDTH 505 0
DWIDTH 16 0
BBX 20 16 -2 0
BITMAP
0000EFFFA3AEEC400000
0002FFFFCFFFFFF30000
0005FFFFFEEFFFF80000
0009FFFFB11EFFFA0000
000CFFFF200CFFF90000
000FFFFA000DFFF80000
003FFFF6001FFFF50000
006FFFF3005FFFF10000
009FFFE0008FFFD00000
00DFFFC000BFFF900000
01FFFF8000EFFF5000A4
04FFFF5002FFFF3006E1
07FFFF2003FFFF603E80
0AFFFE0001FFFFFEFD10
0EFFFB00009FFFFFE300
2FFFF7000018DFD91000
ENDCHAR
STARTCHAR o
ENCODING 111
SWIDTH 439 0
DWIDTH 14 0
BBX 19 16 -1 0
BITMAP
0000017CEFD700000000
00004EFFFFFF80000000
0004FFFF608FF1000000
002EFFF7004FF4000280
00AFFFD100EFF614AF70
03FFFF7002FFFFFFA300
09FFFF2000AFFA610000
0DFFFC00007FF2000000
2FFFF90000BFF0000000
4FFFF60001FFC0000000
6FFFF50006FF60000000
6FFFF6001DFE10000000
5FFFFA01BFF600000000
1EFFFFEEFFB000000000
05FFFFFFFA0000000000
003AEFEB500000000000
ENDCHAR
STARTCHAR p
ENCODING 112
SWIDTH 468 0
DWIDTH 15 0
BBX 18 25 -3 -8
BITMAP
00000AFFFE00000000
00000DFFFB6BEFC500
00002FFFFFFFFFFF50
00005FFFFC20BFFFC0
00008FFFF1005FFFF1
0000BFFFC0003FFFF2
0000EFFF80004FFFF2
0003FFFF50005FFFF1
0006FFFF20008FFFE0
0009FFFE0000BFFFB0
000DFFFB0001FFFF80
001FFFF80007FFFF40
004FFFF5001EFFFC00
007FFFF301BFFFF400
00BFFFFECEFFFF9000
00EFFFFFFFFFF90000
02FFFF8AEFDA400000
05FFFF300000000000
09FFFF000000000000
0CFFFC000000000000
0FFFF9000000000000
3FFFF5000000000000
6FFFF2000000000000
AFFDA0000000000000
762000000000000000
ENDCHAR
STARTCHAR q
ENCODING 113
SWIDTH 486 0
DWIDTH 16 0
BBX 17 24 -1 -8
BITMAP
0000029DFEA6FFFF30
00005EFFFFFEFFFF00
0004FFFF603FFFFC00
002EFFF7000FFFF900
00AFFFD0003FFFF500
03FFFF60007FFFF200
09FFFF1000AFFFE000
0DFFFB0000DFFFB000
2FFFF80001FFFF7000
4FFFF60005FFFF4000
6FFFF50008FFFF1000
6FFFF6001EFFFD0000
4FFFFB12BFFFFA0000
1EFFFFFFFFFFF60000
06FFFFFFBFFFF30000
005CFEA39FFFF00000
00000000DFFFC00000
00000001FFFF800000
00000004FFFF500000
00000007FFFF200000
0000000AFFFE000000
0000000EFFFA000000
0000002FFFC5000000
000000384100000000
ENDCHAR
STARTCHAR r
ENCODING 114
SWIDTH 376 0
DWIDTH 12 0
BBX 15 16 -2 0
BITMAP
0000EFFFA08DE800
0002FFFF9CFFFF30
0005FFFFFEEFFF60
0009FFFF803FFF30
000CFFFD000CE800
000FFFF900000000
003FFFF600000000
006FFFF300000000
009FFFF000000000
00DFFFC000000000
01FFFF8000000000
04FFFF5000000000
07FFFF2000000000
0AFFFE0000000000
0EFFFB0000000000
2FFFF70000000000
ENDCHAR
STARTCHAR s
ENCODING 115
SWIDTH 382 0
DWIDTH 12 0
BBX 15 17 -1 0
BITMAP
0000038ACE600000
00000BFFFF600000
00001FFFFF700000
00006FFFFF800000
0000CCFFFF900000
0003F5FFFFA00000
0009D0FFFFB00000
001F60EFFFC00000
008D00DFFFD00000
02F600BFFFE00000
2DFB00AFFFF00000
BFFC009FFFF07D20
FC7200AFFFFCD200
ED0000DFFFFC2000
AF501AFFFF700000
2EFFFFFFE3000000
029DFEB710000000
ENDCHAR
STARTCHAR t
ENCODING 116
SWIDTH 267 0
DWIDTH 9 0
BBX 11 21 -1 0
BITMAP
000058ACA000
0001FFFF8000
0004FFFF5000
0007FFFF2000
000BFFFD0000
00FFFFFFF900
004FFFF82100
006FFFF40000
009FFFF10000
00CFFFC00000
00FFFF900000
03FFFF600000
07FFFF300000
0AFFFE000000
0DFFFB000000
1FFFF8000890
3FFFF6002E50
3FFFF914DC00
1FFFFFFFE300
0AFFFFFE4000
019DFC710000
ENDCHAR
STARTCHAR u
ENCODING 117
SWIDTH 505 0
DWIDTH 16 0
BBX 19 16 -1 0
BITMAP
000EFFFA001FFFF90000
002FFFF7004FFFF50000
005FFFF4007FFFF20000
009FFFF100AFFFE00000
00CFFFC000DFFFB00000
00FFFF9001FFFF800000
03FFFF6005FFFF400000
07FFFF3008FFFF100000
0AFFFE000BFFFD000000
0DFFFB000EFFFA000000
1FFFF8003FFFF7001C40
3FFFF600AFFFF4007E00
3FFFF928FFFFF815E700
1FFFFFFF9EFFFFFFC000
0AFFFFFB09FFFFFC1000
019DEC60019EEC600000
ENDCHAR
STARTCHAR v
ENCODING 118
SWIDTH 414 0
DWIDTH 13 0
BBX 14 16 -1 0
BITMAP
000EFFFA00AEC2
002FFFF703FFF9
005FFFF401DEFB
009FFFF10002FA
00CFFFC00004F9
00FFFF900007F7
03FFFF60000BF4
06FFFF30001FF1
0AFFFE00007FB0
0DFFFB0000DF60
1FFFF80007FE10
3FFFF5002EF700
4FFFF814EFC000
2FFFFFFFFD2000
0AFFFFFFC20000
017DFEB6000000
ENDCHAR
STARTCHAR w
ENCODING 119
SWIDTH 661 0
DWIDTH 21 0
BBX 22 16 -1 0
BITMAP
000EFFFA001FFFF901BEB1
002FFFF7004FFFF604FFF7
005FFFF4007FFFF201DEFA
009FFFF100AFFFE00004F9
00CFFFC000DFFFB00005F8
00FFFF9001FFFF800009F6
03FFFF6005FFFF50000CF3
07FFFF3008FFFF10002FE0
0AFFFE000BFFFD00008FA0
0DFFFB000EFFFA0001EF50
1FFFF8003FFFF70008FD00
3FFFF600AFFFF4003FF500
3FFFF917FFFFF615EFA000
1FFFFFFFCFFFFFFFFD1000
0AFFFFFB0CFFFFFFB10000
019DEC60019DFEB5000000
ENDCHAR
STARTCHAR x
ENCODING 120
SWIDTH 522 0
DWIDTH 17 0
BBX 18 17 0 0
BITMAP
0000000000007EE400
000018DFD600EFFC00
0002DFFFFF308FFE00
000CFEFFFFA001FD00
007F70AFFFE007F800
01E9005FFFF13ED100
07E1002FFFF4DE3000
0D80000FFFFEF40000
3F30000DFFFF500000
8D00000BFFF9000000
C900003EFFFB000000
620002EEFFFD000048
00002DD5FFFF1000C9
0001DE30EFFF801AE1
001CF5009FFFFEFF60
00BF70002EFFFFF600
0AF9000003CFD92000
ENDCHAR
STARTCHAR y
ENCODING 121
SWIDTH 486 0
DWIDTH 16 0
BBX 18 24 -1 -8
BITMAP
000EFFFA001FFFF900
002FFFF7004FFFF500
005FFFF4007FFFF200
009FFFF100AFFFE000
00CFFFC000DFFFB000
00FFFF9002FFFF7000
03FFFF6005FFFF4000
07FFFF3008FFFF1000
0AFFFE000BFFFD0000
0DFFFB000EFFFA0000
1FFFF8003FFFF60089
3FFFF600AFFFF301E6
3FFFFA28FFFFF008E1
1FFFFFFFFFFFC06F50
0AFFFFFBFFFFCBE600
019DFC64FFFFFA3000
0000028EFFFF300000
00008FEEFFFE000000
000BF91DFFFB000000
005F802FFFF7000000
008F308FFFF2000000
008FC9FFFFA0000000
003FFFFFFC10000000
0003BEEC6000000000
ENDCHAR
STARTCHAR z
ENCODING 122
SWIDTH 428 0
DWIDTH 14 0
BBX 14 16 0 0
BITMAP
0006DFFFFFFFF6
007FFEEEFFFFD0
01FFC003FFFF40
03FFD00BFFFB00
00AC505FFFF300
000001DFFF9000
000007FFFE1000
00002EFFF70000
0000AFFFD00000
0004FFFF500000
000CFFFB000000
006FFFF3028800
01EFFFA00BFF50
08FFFF3007FF40
2FFFFFFFEFFA00
BFFFFFFFFD7000
ENDCHAR
STARTCHAR braceleft
ENCODING 123
SWIDTH 352 0
DWIDTH 11 0
BBX 12 32 1 -8
BITMAP
00000006BEFB
000000AFFFF9
000006FFF610
00000DFF9000
00003FFF4000
00006FFF1000
00009FFD0000
0000BFFC0000
0000CFFA0000
0000EFF80000
0000FFF70000
0001FFF50000
0002FFF30000
0005FFE10000
002CFF700000
4EFFD5000000
7FFFC2000000
007FFB000000
004FFD000000
006FFC000000
009FFA000000
00DFF6000000
03FFF2000000
07FFD0000000
0CFFA0000000
1FFF70000000
5FFF50000000
7FFF40000000
8FFF50000000
5FFFB0000000
0BFFFB200000
006CEF100000
ENDCHAR
STARTCHAR bar
ENCODING 124
SWIDTH 532 0
DWIDTH 17 0
BBX 3 32 7 -8
BITMAP
FFF0
FFF0
FFF0
FFF0
FFF0
FFF0
FFF0
FFF0
FFF0
FFF0
FFF0
FFF0
FFF0
FFF0
FFF0
FFF0
FFF0
FFF0
FFF0
FFF0
FFF0
FFF0
FFF0
FFF0
FFF0
FFF0
FFF0
FFF0
FFF0
FFF0
FFF0
FFF0
ENDCHAR
STARTCHAR braceright
ENCODING 125
SWIDTH 352 0
DWIDTH 11 0
BBX 12 32 -2 -8
BITMAP
000005FEB500
000006EFFF70
0000003FFFF1
0000000AFFF3
00000008FFF3
00000009FFF1
0000000AFFC0
0000000DFF80
0000002FFF30
0000006FFE00
000000AFFA00
000000DFF500
000001FFF200
000002FFF000
000001FFF200
0000005EFFE3
0000006DFFF1
00000AFFA100
00004FFF1000
00008FFD0000
0000AFFB0000
0000BFFA0000
0000CFF90000
0000EFF80000
0001FFF70000
0003FFF50000
0005FFF20000
0008FFE00000
000DFF900000
029FFF300000
DFFFF7000000
FFEA40000000
ENDCHAR
STARTCHAR asciitilde
ENCODING 126
SWIDTH 431 0
DWIDTH 14 0
BBX 14 4 1 18
BITMAP
00015775100001
008EFFFFFC98B2
0AFFFFFFFFFE40
251148CEFD8100
ENDCHAR
STARTCHAR uni00A0
ENCODING 160
SWIDTH 217 0
DWIDTH 7 0
BBX 1 1 0 0
BITMAP
00
ENDCHAR
STARTCHAR exclamdown
ENCODING 161
SWIDTH 219 0
DWIDTH 7 0
BBX 10 24 -2 -8
BITMAP
000008ED50
00005FFFF3
00009FFFF6
00006FFFF3
000008ED60
0000000000
0000000000
0000388200
0000AFF300
0000EFF100
0003FFD000
0008FFB000
000CFF9000
001FFF6000
005FFF4000
00AFFF2000
00EFFE0000
03FFFC0000
07FFFA0000
0CFFF70000
1FFFF50000
5FFFF30000
9FFFF00000
BA86400000
ENDCHAR
STARTCHAR cent
ENCODING 162
SWIDTH 384 0
DWIDTH 12 0
BBX 14 24 0 -1
BITMAP
000000004F6000
000000007F2000
00000000BE0000
00000003ED8400
000007DFFFFF90
0001CFFDF4BFF3
001CFF6AE08FF5
00BFF90EB0BFF3
05FFF12F80BF80
0DFFB05F400000
4FFF609F100000
8FFF30CD000000
AFFF21F9000000
BFFF14F6000000
AFFF37F2000000
8FFF7AE0002000
3FFFEEA017C000
0BFFFFEDFFC000
01CFFFFFFF5000
0006DFFDA30000
0000CC00000000
0001F900000000
0004F500000000
0007F200000000
ENDCHAR
STARTCHAR sterling
ENCODING 163
SWIDTH 455 0
DWIDTH 15 0
BBX 17 24 0 0
BITMAP
0000000005BEFD9200
00000002CFFFFFFE10
0000001DFFF60CFF60
0000009FFFA00BFF60
000001FFFF401FFF20
000006FFFE00089300
00000AFFFA00000000
00000DFFF700000000
00002FFFF300000000
00005FFFE000000000
08EEEFFFFEEEE30000
0CFFFFFFFFFFF00000
0000EFFF5000000000
0002FFFF2000000000
0006FFFE0000000000
0009FFFB0000000000
000CFFF80000000000
001FFFF40000000000
004FFFC00000001400
009FFC20000014DA00
01EFFFFFFFFFFFFB00
0AFFFFFFFFFFFFF800
7FFFFFFFFFFFFFD200
474201259CEED81000
ENDCHAR
STARTCHAR currency
ENCODING 164
SWIDTH 500 0
DWIDTH 16 0
BBX 12 12 2 5
BITMAP
180000000082
9FA3AEEB49F9
0BFFFFFFFFB1
03FE6104DF50
09F500003FC0
0DF000000CF0
0DF000000CF0
0AF500003FC0
03FE6104DF50
0AFFFFFFFFB0
8F93BEEB48F9
180000000082
ENDCHAR
STARTCHAR yen
ENCODING 165
SWIDTH 558 0
DWIDTH 18 0
BBX 17 24 2 0
BITMAP
07FFFFC0000000EF30
03FFFFF1000005FB00
00EFFFF400000BF500
00BFFFF800002FD000
007FFFFB00008F7000
003FFFFE0001EE1000
000EFFFF3006F90000
000BFFFF700CF20000
0007FFFFB03FB00000
0003FFFFE09F400000
0000EFFFF4EC000000
0000BFFFFCF6000000
00007FFFFFE0000000
00003FFFFF80000000
01999FFFFFA9992000
06FFFFFFFFFFFF1000
00007FFFFA00000000
0000AFFFF700000000
0EFFFFFFFFFFF60000
3EEEFFFFFEEEE20000
0004FFFFD000000000
0008FFFF9000000000
000BFFFF5000000000
000FFFFF2000000000
ENDCHAR
STARTCHAR brokenbar
ENCODING 166
SWIDTH 532 0
DWIDTH 17 0
BBX 3 32 7 -8
BITMAP
FFF0
FFF0
FFF0
FFF0
FFF0
FFF0
FFF0
FFF0
FFF0
FFF0
FFF0
FFF0
FFF0
FFF0
0000
0000
0000
FFF0
FFF0
FFF0
FFF0
FFF0
FFF0
FFF0
FFF0
FFF0
FFF0
FFF0
FFF0
FFF0
FFF0
FFF0
ENDCHAR
STARTCHAR section
ENCODING 167
SWIDTH 542 0
DWIDTH 17 0
BBX 17 25 0 -1
BITMAP
0000000016BDFEB500
00000004EFF612CF70
0000003EFF60006FB0
000000BFFF00008FB0
000000FFFD0002EF40
000002FFFF10004200
000002FFFFA0000000
00007EFFFFF9000000
0007FF5CFFFFB10000
001EFF21CFFFFD2000
004FFFA01AFFFFD100
004FFFF8007FFFF900
001EFFFF9007FFFE10
0004FFFFFA00BFFF20
00005FFFFF904FFF10
000004EFFFF62FFE00
0000003FFFFD4FF800
04CEA106FFFFDFD100
2FFFE700DFFFFA2000
8FFB1000AFFF700000
AFF500009FFF500000
BFF50000BFFE100000
7FFA0003FFF7000000
1DFFDAAFFF80000000
016BDFEC9300000000
ENDCHAR
STARTCHAR dieresis
ENCODING 168
SWIDTH 392 0
DWIDTH 13 0
BBX 11 4 1 18
BITMAP
07EC200AEA00
2FFF905FFF50
2FFF905FFF50
07EC200AEA00
ENDCHAR
STARTCHAR copyright
ENCODING 169
SWIDTH 587 0
DWIDTH 19 0
BBX 17 16 1 2
BITMAP
000016BEFEA5000000
0003DFFFEFFFB10000
004EFA41014BFD1000
01DE406BDC606FB000
09F40BFFFFF907F500
0EB07FB312BF30DB00
3F50EE10002B307E00
5F31FA000000005F10
5F31FB000000005F10
3F50DF200002007E00
0EA06FD412AE30DB00
09F40AFFFFFA07F500
01DE406BDC606FB000
003EF941014BFD1000
0003DFFFEFFFB10000
000006BEFEA5000000
ENDCHAR
STARTCHAR ordfeminine
ENCODING 170
SWIDTH 345 0
DWIDTH 11 0
BBX 10 9 1 14
BITMAP
002AEECFF2
02EF61CFD0
0BFA00FFA0
2FF404FF60
6FF007FF30
8FE00BFE00
9FF24FFD10
7FFFECFFB0
1ADB23CC30
ENDCHAR
STARTCHAR guillemotleft
ENCODING 171
SWIDTH 589 0
DWIDTH 19 0
BBX 18 11 0 3
BITMAP
000000000250000044
000000029F80004CF4
000003AFE7104CFD50
0003AFE7105CFD5000
03AFE7105CFD500000
2FE71007FD50000000
2DFB4005EF92000000
006EFB4019FF920000
00018FFB402AFF9200
000002AFC0004CF800
000000036000005400
ENDCHAR
STARTCHAR logicalnot
ENCODING 172
SWIDTH 444 0
DWIDTH 14 0
BBX 13 8 0 1
BITMAP
0DEEEEEEEEEE90
4FFFFFFFFFFF70
000000007FFF30
00000000AFFF00
00000000DFFC00
00000001FFF900
00000004FFF500
00000003777100
ENDCHAR
STARTCHAR uni00AD
ENCODING 173
SWIDTH 290 0
DWIDTH 9 0
BBX 8 2 0 7
BITMAP
0DEEEEE6
4FFFFFF3
ENDCHAR
STARTCHAR registered
ENCODING 174
SWIDTH 553 0
DWIDTH 18 0
BBX 16 16 1 3
BITMAP
000039DFEC710000
0009FFFFFFFE5000
00BFD610028EF600
08F96FFFDA42CF30
2FB05F434AF31DC0
8F205F2000F706F3
BC005F2017F401F6
D9005FFFFE7000D8
D9005F43AD0000D8
BC006F202F7001F6
8F206F2009E106F3
2FB05E1001D61DC0
08F910000002CF30
00BFD610028EF600
0008FFFFFFFE5000
000039DFEC710000
ENDCHAR
STARTCHAR macron
ENCODING 175
SWIDTH 446 0
DWIDTH 14 0
BBX 11 2 2 19
BITMAP
5EEEEEEEEEC0
AFFFFFFFFFA0
ENDCHAR
STARTCHAR degree
ENCODING 176
SWIDTH 314 0
DWIDTH 10 0
BBX 8 10 1 12
BITMAP
0019DEB1
02DF53F9
0CF700ED
4FF100FE
8FB001FD
BF9003FA
CF8007F5
BF800CC0
7FB18E30
1AEFB300
ENDCHAR
STARTCHAR plusminus
ENCODING 177
SWIDTH 479 0
DWIDTH 15 0
BBX 15 16 0 4
BITMAP
0000000188400000
00000004FF500000
00000007FF100000
0000000AFD000000
0000000DFA000000
00AFFFFFFFFFFF20
00DFFFFFFFFFFE00
007777CFE7777500
000000CFC0000000
000000EF90000000
000003FF60000000
000006FF30000000
0000035500000000
0000000000000000
0CEEEEEEEEEE5000
2FFFFFFFFFFF1000
ENDCHAR
STARTCHAR uni00B2
ENCODING 178
SWIDTH 328 0
DWIDTH 11 0
BBX 10 13 1 11
BITMAP
0007DFD810
00AE33FFB0
02FB00CFF1
02FE20DFF1
005712FFC0
00000AFE30
00006FE400
0005FE3000
004FD20000
03EC100000
0DE2000120
4FFFFEEF80
5FEEEFFB20
ENDCHAR
STARTCHAR uni00B3
ENCODING 179
SWIDTH 336 0
DWIDTH 11 0
BBX 10 15 1 9
BITMAP
0003BEEA20
004FB19FD1
00BF603FF5
00BFA04FF5
003A70AFD1
000008FC20
00008FC300
000007FF50
07EA01FFE0
3FF800DFF2
6FD000EFF1
4FB002FFB0
0DF42BFD20
02BFFFA100
0001210000
ENDCHAR
STARTCHAR acute
ENCODING 180
SWIDTH 316 0
DWIDTH 10 0
BBX 6 6 4 18
BITMAP
007FFB
01EFD1
07FF40
1EF700
6FB000
DD1000
ENDCHAR
STARTCHAR uni00B5
ENCODING 181
SWIDTH 505 0
DWIDTH 16 0
BBX 21 22 -3 -6
BITMAP
00000EFFFA001FFFF90000
00002FFFF7004FFFF60000
00005FFFF4007FFFF20000
00009FFFF100AFFFE00000
0000CFFFD000DFFFB00000
0000FFFF9001FFFF800000
0003FFFF6004FFFF500000
0006FFFF3008FFFF200000
000AFFFF000BFFFE000000
000DFFFC000EFFFA000000
001FFFF9003FFFF7000A40
004FFFF6009FFFF5005E10
007FFFF805FFFFF603E800
00AFFFFFEFAEFFFFDFD100
00EFFFFFFC1AFFFFFD2000
02FFFFFD70019EFC710000
05FFFF4000000000000000
08FFFF1000000000000000
0BFFFD0000000000000000
0EFFF90000000000000000
3FC9510000000000000000
1100000000000000000000
ENDCHAR
STARTCHAR paragraph
ENCODING 182
SWIDTH 542 0
DWIDTH 17 0
BBX 15 26 2 -2
BITMAP
000028CEFEB50000
0006FFFFFFFFB100
008FFFFFFFCEF900
04FFFFFFFF79FE00
0DFFFFFFFF48FF20
4FFFFFFFFF1AFF30
8FFFFFFFFD0DFF20
AFFFFFFFFA1FFE00
AFFFFFFFF64FFB00
8FFFFFFFF37FF800
4FFFFFFFF0BFF400
0DFFFFFFC0EFF100
03FFFFFF93FFD000
004DFFFFFFFFA000
00004FFFACFF6000
00002FFE0BFF3000
00005FFB0EFE0000
00008FF83FFB0000
0000BFF46FF80000
0000EFF1AFF50000
0003FFD0DFF20000
0006FF92FFD00000
0009FF65FFA00000
000CFF38FF700000
001FFE0CFF300000
004FFB0FFF000000
ENDCHAR
STARTCHAR periodcentered
ENCODING 183
SWIDTH 434 0
DWIDTH 14 0
BBX 7 6 3 5
BITMAP
019ED800
0AFFFF80
1FFFFFE0
1FFFFFE0
0BFFFF80
019ED800
ENDCHAR
STARTCHAR cedilla
ENCODING 184
SWIDTH 227 0
DWIDTH 7 0
BBX 8 8 0 -7
BITMAP
000C8000
004F2000
00AC6730
02FFFFF4
02219FF8
6500AFF6
7FFFFFC0
06DFD710
ENDCHAR
STARTCHAR uni00B9
ENCODING 185
SWIDTH 229 0
DWIDTH 7 0
BBX 6 15 1 9
BITMAP
000003
0136BD
6FFFFA
3DDFF6
007FF3
00AFF0
00DFC0
02FF90
05FF60
08FF30
0BFE00
0EFB00
2FF800
6FF500
366100
ENDCHAR
STARTCHAR ordmasculine
ENCODING 186
SWIDTH 329 0
DWIDTH 11 0
BBX 9 9 1 14
BITMAP
002AEEA010
04EF52DA60
0DF806FC00
5FF301F500
8FE003F300
9FD007D000
9FE22E7000
6FFFFB0000
08DD810000
ENDCHAR
STARTCHAR guillemotright
ENCODING 187
SWIDTH 586 0
DWIDTH 19 0
BBX 18 11 0 3
BITMAP
004400000350000000
008F910006FA200000
002BFE6001AFE70000
00005DFC3004DFD400
0000019FF91008FF91
00000003CF70002CF8
0000004AFF4004AFF5
00027DFD7217DFE820
04AFFB504AFFB50000
3FE82002FE93000000
450000036100000000
ENDCHAR
STARTCHAR onequarter
ENCODING 188
SWIDTH 749 0
DWIDTH 24 0
BBX 23 24 1 0
BITMAP
0000030000000007FC000000
0136BD000000001EF4000000
6FFFFA000000009FB0000000
3DDFF600000002FF30000000
007FF30000000BF900000000
00AFF00000004FE200000000
00DFC0000000CF8000000000
02FF90000005FE1000000000
05FF6000000DF60000000000
08FF3000007FC00000000000
0BFE000001EF400000000000
0EFB000009FB0005FB028A60
2FF800002FF30004FF46FF50
6FF50000AF900005FF3AFF20
36610004FE200007FD0DFD00
0000000CF800000CF62FFA00
0000005FE100003FB05FF600
000000DF600000BD329FF510
000007FD000005FFFFFFFF30
00001EF40000035555FFC500
00009FB00000000003FF9000
0002FF300000000006FF5000
000AF9000000000009FF2000
004FE200000000000DFE0000
ENDCHAR
STARTCHAR onehalf
ENCODING 189
SWIDTH 745 0
DWIDTH 24 0
BBX 23 24 1 0
BITMAP
0000030000000007FC000000
0136BD000000001EF4000000
6FFFFA000000009FB0000000
3DDFF600000002FF30000000
007FF30000000BF900000000
00AFF00000004FE200000000
00DFC0000000CF8000000000
02FF90000005FE1000000000
05FF6000000DF60000000000
08FF3000007FC00000000000
0BFE000001EF400000000000
0EFB000009FB00005CEEB300
2FF800002FF30005F71CFE20
6FF50000AF90000CF107FF60
36610004FE20000CF608FF60
0000000CF8000003830CFF20
0000005FE1000000004FF700
000000DF6000000002EF8000
000007FD000000001DF70000
00001EF400000001CF600000
00009FB00000000CF4000000
0002FF300000008F60000200
000AF900000000EFEEEEED00
004FE200000000FFFFFFD500
ENDCHAR
STARTCHAR threequarters
ENCODING 190
SWIDTH 836 0
DWIDTH 27 0
BBX 26 24 1 0
BITMAP
0003BEEA2000000000BF900000
004FB19FD100000004FE200000
00BF603FF50000000CF8000000
00BFA04FF50000005FE1000000
003A70AFD1000000DF60000000
000008FC20000007FC00000000
00008FC30000001EF400000000
000007FF5000009FB000000000
07EA01FFE00002FF3000000000
3FF800DFF2000AF90000000000
6FD000EFF1004FE20000000000
4FB002FFB000CF80009E8049B4
0DF42BFD2005FE10007FF0AFF2
02BFFFA1000DF600008FE0DFD0
00012100007FD00000BFA1FFA0
0000000001EF400001FF35FF60
0000000009FB000007F808FF30
000000002FF300001DB22CFF20
00000000AF9000008FFFFFFFE0
00000004FE20000045557FFA40
0000000CF800000000006FF500
0000005FE100000000009FF200
000000DF600000000000DFE000
000007FD000000000001FFB000
ENDCHAR
STARTCHAR questiondown
ENCODING 191
SWIDTH 439 0
DWIDTH 14 0
BBX 13 24 -1 -8
BITMAP
000000003CEA10
00000000DFFF90
00000002FFFFD0
00000000EFFFA0
000000003CEA10
00000000000000
00000000000000
000000000BB000
000000001FE000
000000007FA000
00000001EF4000
0000001CFB0000
000002CFD20000
00003EFE300000
0006FFF4000000
008FFF60001000
06FFFB005EFD20
0EFFF4006FFF90
4FFFF1000AFFB0
6FFFF00007FFA0
5FFFF30009FF50
1EFFFB106FFB00
04FFFFFFFFA100
0029DFED940000
ENDCHAR
STARTCHAR Agrave
ENCODING 192
SWIDTH 668 0
DWIDTH 21 0
BBX 23 35 0 -4
BITMAP
0000000000000004FFF00000
0000000000000000EFF20000
0000000000000000AFF40000
00000000000000005FF70000
00000000000000001FF90000
00000000000000000BFC0000
000000000000000000000000
000000000000000028DFEA10
0000000000000006EFFFFE00
000000000000009FFFFFFB00
00000000000009FE6FFFF800
0000000000008FF43FFFF400
000000000005FF606FFFF100
00000000003EFB00AFFFD000
0000000000CFE200DFFFA000
0000000008FF7001FFFF7000
000000002FFD0004FFFF3000
0017BEFFEFFA3007FFFF0000
06EFFFFFFFFFFEACFFFC0000
5FFF821DFF6036CFFFF90000
AFFD007FFE10002FFFF60000
8FFF01EFF800006FFFF20000
068308FFF200009FFFE00000
00001EFFB00000CFFFB00000
00007FFF600001FFFF800000
0000DFFF100004FFFF500000
0004FFFB000007FFFF100000
0009FFF600000BFFFD000000
000DFFF200000EFFFA000000
002FFFE000002FFFF7000000
004FFFB000006FFFF3000000
004FFF900000000000000000
002FFF800000000000000000
0007FF900000000000000000
000026600000000000000000
ENDCHAR
STARTCHAR Aacute
ENCODING 193
SWIDTH 668 0
DWIDTH 21 0
BBX 25 36 0 -4
BITMAP
00000000000000000000068840
000000000000000000003FFE10
00000000000000000000AFF500
00000000000000000003FFB000
0000000000000000000AFE2000
0000000000000000002FF60000
00000000000000000048700000
00000000000000000000000000
000000000000000028DFEA1000
0000000000000006EFFFFE0000
000000000000009FFFFFFB0000
00000000000009FE6FFFF80000
0000000000008FF43FFFF40000
000000000005FF606FFFF10000
00000000003EFB00AFFFD00000
0000000000CFE200DFFFA00000
0000000008FF7001FFFF700000
000000002FFD0004FFFF300000
0017BEFFEFFA3007FFFF000000
06EFFFFFFFFFFEACFFFC000000
5FFF821DFF6036CFFFF9000000
AFFD007FFE10002FFFF6000000
8FFF01EFF800006FFFF2000000
068308FFF200009FFFE0000000
00001EFFB00000CFFFB0000000
00007FFF600001FFFF80000000
0000DFFF100004FFFF50000000
0004FFFB000007FFFF10000000
0009FFF600000BFFFD00000000
000DFFF200000EFFFA00000000
002FFFE000002FFFF700000000
004FFFB000006FFFF300000000
004FFF90000000000000000000
002FFF80000000000000000000
0007FF90000000000000000000
00002660000000000000000000
ENDCHAR
STARTCHAR Acircumflex
ENCODING 194
SWIDTH 668 0
DWIDTH 21 0
BBX 25 36 0 -4
BITMAP
00000000000000000000035000
000000000000000000005ED000
00000000000000000006FFF300
0000000000000000008FFFF700
00000000000000000AFE73EC00
0000000000000001BE71006F20
00000000000000056100000630
00000000000000000000000000
000000000000000028DFEA1000
0000000000000006EFFFFE0000
000000000000009FFFFFFB0000
00000000000009FE6FFFF80000
0000000000008FF43FFFF40000
000000000005FF606FFFF10000
00000000003EFB00AFFFD00000
0000000000CFE200DFFFA00000
0000000008FF7001FFFF700000
000000002FFD0004FFFF300000
0017BEFFEFFA3007FFFF000000
06EFFFFFFFFFFEACFFFC000000
5FFF821DFF6036CFFFF9000000
AFFD007FFE10002FFFF6000000
8FFF01EFF800006FFFF2000000
068308FFF200009FFFE0000000
00001EFFB00000CFFFB0000000
00007FFF600001FFFF80000000
0000DFFF100004FFFF50000000
0004FFFB000007FFFF10000000
0009FFF600000BFFFD00000000
000DFFF200000EFFFA00000000
002FFFE000002FFFF700000000
004FFFB000006FFFF300000000
004FFF90000000000000000000
002FFF80000000000000000000
0007FF90000000000000000000
00002660000000000000000000
ENDCHAR
STARTCHAR Atilde
ENCODING 195
SWIDTH 668 0
DWIDTH 21 0
BBX 26 34 0 -4
BITMAP
00000000000000003675100000
000000000000002CFFFFFA4126
00000000000002EFFFFFFFFFB1
000000000000052026ADFEB500
00000000000000000000000000
00000000000000000000000000
000000000000000028DFEA1000
0000000000000006EFFFFE0000
000000000000009FFFFFFB0000
00000000000009FE6FFFF80000
0000000000008FF43FFFF40000
000000000005FF606FFFF10000
00000000003EFB00AFFFD00000
0000000000CFE200DFFFA00000
0000000008FF7001FFFF700000
000000002FFD0004FFFF300000
0017BEFFEFFA3007FFFF000000
06EFFFFFFFFFFEACFFFC000000
5FFF821DFF6036CFFFF9000000
AFFD007FFE10002FFFF6000000
8FFF01EFF800006FFFF2000000
068308FFF200009FFFE0000000
00001EFFB00000CFFFB0000000
00007FFF600001FFFF80000000
0000DFFF100004FFFF50000000
0004FFFB000007FFFF10000000
0009FFF600000BFFFD00000000
000DFFF200000EFFFA00000000
002FFFE000002FFFF700000000
004FFFB000006FFFF300000000
004FFF90000000000000000000
002FFF80000000000000000000
0007FF90000000000000000000
00002660000000000000000000
ENDCHAR
STARTCHAR Adieresis
ENCODING 196
SWIDTH 668 0
DWIDTH 21 0
BBX 25 34 0 -4
BITMAP
000000000000000AEA002CE700
000000000000005FFF509FFF10
000000000000005FFF509FFF10
000000000000000AEA002CE700
00000000000000000000000000
00000000000000000000000000
000000000000000028DFEA1000
0000000000000006EFFFFE0000
000000000000009FFFFFFB0000
00000000000009FE6FFFF80000
0000000000008FF43FFFF40000
000000000005FF606FFFF10000
00000000003EFB00AFFFD00000
0000000000CFE200DFFFA00000
0000000008FF7001FFFF700000
000000002FFD0004FFFF300000
0017BEFFEFFA3007FFFF000000
06EFFFFFFFFFFEACFFFC000000
5FFF821DFF6036CFFFF9000000
AFFD007FFE10002FFFF6000000
8FFF01EFF800006FFFF2000000
068308FFF200009FFFE0000000
00001EFFB00000CFFFB0000000
00007FFF600001FFFF80000000
0000DFFF100004FFFF50000000
0004FFFB000007FFFF10000000
0009FFF600000BFFFD00000000
000DFFF200000EFFFA00000000
002FFFE000002FFFF700000000
004FFFB000006FFFF300000000
004FFF90000000000000000000
002FFF80000000000000000000
0007FF90000000000000000000
00002660000000000000000000
ENDCHAR
STARTCHAR Aring
ENCODING 197
SWIDTH 668 0
DWIDTH 21 0
BBX 23 34 0 -4
BITMAP
000000000000000001AEC300
00000000000000000BA17C00
00000000000000000F404E00
00000000000000000E719A00
000000000000000004DEB200
000000000000000000000000
000000000000000028DFEA10
0000000000000006EFFFFE00
000000000000009FFFFFFB00
00000000000009FE6FFFF800
0000000000008FF43FFFF400
000000000005FF606FFFF100
00000000003EFB00AFFFD000
0000000000CFE200DFFFA000
0000000008FF7001FFFF7000
000000002FFD0004FFFF3000
0017BEFFEFFA3007FFFF0000
06EFFFFFFFFFFEACFFFC0000
5FFF821DFF6036CFFFF90000
AFFD007FFE10002FFFF60000
8FFF01EFF800006FFFF20000
068308FFF200009FFFE00000
00001EFFB00000CFFFB00000
00007FFF600001FFFF800000
0000DFFF100004FFFF500000
0004FFFB000007FFFF100000
0009FFF600000BFFFD000000
000DFFF200000EFFFA000000
002FFFE000002FFFF7000000
004FFFB000006FFFF3000000
004FFF900000000000000000
002FFF800000000000000000
0007FF900000000000000000
000026600000000000000000
ENDCHAR
STARTCHAR AE
ENCODING 198
SWIDTH 764 0
DWIDTH 24 0
BBX 29 28 0 -4
BITMAP
000000000000000028DFEA731025A0
0000000000000006EFFFFFFFFFFFA0
000000000000009FEFFFFFFFFFFF30
0000000000000AFD3FFFF827BCB400
0000000000009FD14FFFF500000000
000000000006FF307FFFF200000000
00000000003FF700BFFFD000000000
0000000001DFC000EFFFA000000000
0000000009FF4002FFFF7000000000
000000003FFB0005FFFF3000000000
0028CEFEEFFC7308FFFF5555400000
08FFFFEFFFEEFFDEFFFFFFFFA00000
6FFE511DFF60148FFFFFFFFF600000
AFFE007FFE00003FFFF50000000000
6FFD01EFF800007FFFF20000000000
024109FFF10000AFFFE00000000000
00001EFFB00000DFFFB00000000000
00007FFF600001FFFF800000000000
0000DFFF100004FFFF500000000000
0004FFFB000008FFFF200000000000
0009FFF600000BFFFE000000000000
000DFFF200000EFFFFFFFFFFD00000
002FFFE000002FFFFFFFFFFFA00000
004FFFB000006FFFFFFFFFFF600000
004FFF900000000000000000000000
002FFF800000000000000000000000
0008FF900000000000000000000000
000036500000000000000000000000
ENDCHAR
STARTCHAR Ccedilla
ENCODING 199
SWIDTH 497 0
DWIDTH 16 0
BBX 18 32 0 -8
BITMAP
000000006ADFEC8100
0000004DFFFFEFFE20
000005FFFFC302DFB0
00003FFFFC10008FF1
0001DFFFF200009FF1
0009FFFF800001EFF0
002FFFFE100009FF90
008FFFF90000015400
00EFFFF40000000000
04FFFFE00000000000
08FFFFA00000000000
0CFFFF700000000000
0EFFFF400000000000
2FFFFF200000000000
4FFFFF100000000000
5FFFFF000000000000
6FFFFE000000000000
5FFFFF000000000000
4FFFFF300000000880
2FFFFF900000019F20
0EFFFFF820138EF700
08FFFFFFFFFFFF8000
01DFFFFFFFFFE50000
001AFFFFFFC6100000
0000257E8100000000
0000003F4530000000
0000009FFFF5000000
000000316FF8000000
000000002FF6000000
00003DA26FD1000000
00004BFFEA20000000
000000010000000000
ENDCHAR
STARTCHAR Egrave
ENCODING 200
SWIDTH 459 0
DWIDTH 15 0
BBX 16 33 0 -1
BITMAP
00000000CFF80000
000000007FFA0000
000000002FFC0000
000000000DFE0000
0000000008FF2000
0000000003FF4000
0000000000000000
0000000000000000
000000006CEFD810
0000002CFFFFFFD1
000002EFFD303EF7
00000BFFF2000BFB
00004FFFA0000CFB
00009FFF60003FF7
0000BFFF5000CFD1
0000BFFF60001410
00008FFFB0000000
00002EFFF6000000
000004FFFF920000
00007DFFFB300000
001CFFFF80000000
00BFFFF900000000
07FFFFE100000000
1EFFFF7000000000
5FFFFF1000000000
9FFFFD0000000000
BFFFFD0000000053
BFFFFE10000004E1
9FFFFF8000029F50
4FFFFFFC89BFF600
0AFFFFFFFFFE4000
008FFFFFFD810000
0001577630000000
ENDCHAR
STARTCHAR Eacute
ENCODING 201
SWIDTH 459 0
DWIDTH 15 0
BBX 17 33 0 -1
BITMAP
000000000000058850
0000000000001EFF30
0000000000008FF800
000000000001EFD000
000000000007FF4000
00000000001EF90000
000000000028710000
000000000000000000
000000006CEFD81000
0000002CFFFFFFD100
000002EFFD303EF700
00000BFFF2000BFB00
00004FFFA0000CFB00
00009FFF60003FF700
0000BFFF5000CFD100
0000BFFF6000141000
00008FFFB000000000
00002EFFF600000000
000004FFFF92000000
00007DFFFB30000000
001CFFFF8000000000
00BFFFF90000000000
07FFFFE10000000000
1EFFFF700000000000
5FFFFF100000000000
9FFFFD000000000000
BFFFFD000000005300
BFFFFE10000004E100
9FFFFF8000029F5000
4FFFFFFC89BFF60000
0AFFFFFFFFFE400000
008FFFFFFD81000000
000157763000000000
ENDCHAR
STARTCHAR Ecircumflex
ENCODING 202
SWIDTH 459 0
DWIDTH 15 0
BBX 16 33 0 -1
BITMAP
0000000000001700
000000000001CF40
00000000002DFF80
0000000003EFFFD0
000000005EFA3BF3
00000006FA3001D8
0000002730000036
0000000000000000
000000006CEFD810
0000002CFFFFFFD1
000002EFFD303EF7
00000BFFF2000BFB
00004FFFA0000CFB
00009FFF60003FF7
0000BFFF5000CFD1
0000BFFF60001410
00008FFFB0000000
00002EFFF6000000
000004FFFF920000
00007DFFFB300000
001CFFFF80000000
00BFFFF900000000
07FFFFE100000000
1EFFFF7000000000
5FFFFF1000000000
9FFFFD0000000000
BFFFFD0000000053
BFFFFE10000004E1
9FFFFF8000029F50
4FFFFFFC89BFF600
0AFFFFFFFFFE4000
008FFFFFFD810000
0001577630000000
ENDCHAR
STARTCHAR Edieresis
ENCODING 203
SWIDTH 459 0
DWIDTH 15 0
BBX 18 31 0 -1
BITMAP
000000009EA001BE80
00000004FFF608FFF3
00000004FFF608FFF3
00000000AEB101CE80
000000000000000000
000000000000000000
000000006CEFD81000
0000002CFFFFFFD100
000002EFFD303EF700
00000BFFF2000BFB00
00004FFFA0000CFB00
00009FFF60003FF700
0000BFFF5000CFD100
0000BFFF6000141000
00008FFFB000000000
00002EFFF600000000
000004FFFF92000000
00007DFFFB30000000
001CFFFF8000000000
00BFFFF90000000000
07FFFFE10000000000
1EFFFF700000000000
5FFFFF100000000000
9FFFFD000000000000
BFFFFD000000005300
BFFFFE10000004E100
9FFFFF8000029F5000
4FFFFFFC89BFF60000
0AFFFFFFFFFE400000
008FFFFFFD81000000
000157763000000000
ENDCHAR
STARTCHAR Igrave
ENCODING 204
SWIDTH 375 0
DWIDTH 12 0
BBX 13 31 0 0
BITMAP
0000000EFF5000
0000000AFF7000
00000005FF9000
00000001FFC000
00000000BFE000
000000006FF100
00000000000000
000000059CEF90
000006EFFFFF60
0003CFEBFFFF30
004EFA19FFFE00
04FFB00CFFFB00
1EFE101FFFF800
7FF9004FFFF500
BFF5007FFFF200
CFF300AFFFE000
9FF300DFFFA000
2DF402FFFF7000
004305FFFF4000
000008FFFF1000
00000BFFFD0000
00000EFFF90000
00003FFFF60000
00006FFFF30000
00009FFFF00000
0000CFFFC00000
0001FFFF800000
0004FFFF500000
0007FFFF200000
000AFFFE000000
000DFFFB000000
ENDCHAR
STARTCHAR Iacute
ENCODING 205
SWIDTH 375 0
DWIDTH 12 0
BBX 16 32 0 0
BITMAP
0000000000006884
000000000003FFE1
00000000000AFF50
00000000003FFB00
0000000000AFE200
0000000002FF7000
0000000004870000
0000000000000000
000000059CEF9000
000006EFFFFF6000
0003CFEBFFFF3000
004EFA19FFFE0000
04FFB00CFFFB0000
1EFE101FFFF80000
7FF9004FFFF50000
BFF5007FFFF20000
CFF300AFFFE00000
9FF300DFFFA00000
2DF402FFFF700000
004305FFFF400000
000008FFFF100000
00000BFFFD000000
00000EFFF9000000
00003FFFF6000000
00006FFFF3000000
00009FFFF0000000
0000CFFFC0000000
0001FFFF80000000
0004FFFF50000000
0007FFFF20000000
000AFFFE00000000
000DFFFB00000000
ENDCHAR
STARTCHAR Icircumflex
ENCODING 206
SWIDTH 375 0
DWIDTH 12 0
BBX 15 32 0 0
BITMAP
0000000000017000
00000000001CF300
0000000002DFF800
000000004EFFFD00
00000005FFA3AF30
0000007FA3001D70
0000027300000350
0000000000000000
000000059CEF9000
000006EFFFFF6000
0003CFEBFFFF3000
004EFA19FFFE0000
04FFB00CFFFB0000
1EFE101FFFF80000
7FF9004FFFF50000
BFF5007FFFF20000
CFF300AFFFE00000
9FF300DFFFA00000
2DF402FFFF700000
004305FFFF400000
000008FFFF100000
00000BFFFD000000
00000EFFF9000000
00003FFFF6000000
00006FFFF3000000
00009FFFF0000000
0000CFFFC0000000
0001FFFF80000000
0004FFFF50000000
0007FFFF20000000
000AFFFE00000000
000DFFFB00000000
ENDCHAR
STARTCHAR Idieresis
ENCODING 207
SWIDTH 375 0
DWIDTH 12 0
BBX 16 30 0 0
BITMAP
0000005ED3008EB1
000000EFFC02FFF8
000000EFFC02FFF8
0000005ED3008EC1
0000000000000000
0000000000000000
000000059CEF9000
000006EFFFFF6000
0003CFEBFFFF3000
004EFA19FFFE0000
04FFB00CFFFB0000
1EFE101FFFF80000
7FF9004FFFF50000
BFF5007FFFF20000
CFF300AFFFE00000
9FF300DFFFA00000
2DF402FFFF700000
004305FFFF400000
000008FFFF100000
00000BFFFD000000
00000EFFF9000000
00003FFFF6000000
00006FFFF3000000
00009FFFF0000000
0000CFFFC0000000
0001FFFF80000000
0004FFFF50000000
0007FFFF20000000
000AFFFE00000000
000DFFFB00000000
ENDCHAR
STARTCHAR Eth
ENCODING 208
SWIDTH 663 0
DWIDTH 21 0
BBX 21 25 0 -1
BITMAP
000000049CEFEDA6100000
000005DFFFFEFFFFE70000
0002CFFC721003AFFF9000
003EFE500246000AFFF600
03EFE209FFFD0003FFFD00
0DFF400EFFFA0000FFFF30
6FFB002FFFF70000DFFF70
AFF6005FFFF40000CFFF80
CFF4008FFFF10000CFFF90
AFF300CFFFC00000DFFF90
4FF300FFFF900000EFFF80
03945EFFFFEEC001FFFF70
0000BFFFFFFF8003FFFF50
00000BFFFD000006FFFF20
00000EFFFA000009FFFE00
00002FFFF600000DFFFA00
00006FFFF300003FFFF500
00009FFFF000009FFFE100
0000CFFFC00002FFFF8000
0001FFFF90000AFFFE1000
0004FFFF50008FFFF70000
0007FFFFD76BFFFFB00000
000AFFFFFFFFFFFC100000
000DFFFB4DFFFFA1000000
0000000000476200000000
ENDCHAR
STARTCHAR Ntilde
ENCODING 209
SWIDTH 686 0
DWIDTH 22 0
BBX 23 29 0 0
BITMAP
0000000000017CEFDA632450
00000000003DFFFFFFFFFC10
000000000073248CFFFC6000
000000000000000012100000
000000000000000000000000
0000017BDFEC50000003FFD0
00007EFFFFFFA0000007FFA0
001CFFB8FFFFE000000AFF60
01CFF708FFFFF200000DFF30
0AFF800BFFFFF500001FFF00
3FFE100EFFFFF900004FFC00
8FF9003FFFFFFC00007FF800
BFF6006FFFFFFF1000AFF500
CFF5009FFDFFFF4000DFF200
9FF700DFF6FFFF7001FFE000
3FF901FFF2DFFFB004FFA000
039B04FFD09FFFE007FF7000
000008FFA06FFFF20AFF4000
00000BFF602FFFF60DFF1000
00000EFF300EFFF91FFC0000
00003FFE000AFFFC5FF90000
00006FFB0006FFFF8FF60000
00009FF70003FFFFEFF30000
0000DFF40000EFFFFFE00000
0001FFF10000BFFFFFB00000
0004FFC000007FFFFF800000
0008FF8000004FFFFF500000
000BFF5000001FFFFF100000
000EFF1000000CFFFD000000
ENDCHAR
STARTCHAR Ograve
ENCODING 210
SWIDTH 665 0
DWIDTH 21 0
BBX 21 32 0 0
BITMAP
0000000003FFF200000000
0000000000DFF400000000
00000000008FF600000000
00000000004FF900000000
00000000000EFB00000000
000000000009FD00000000
0000000000000000000000
0000000000000000000000
0000000038BDEFEC820000
0000017DFFFFEFFFFF7000
00005DFFB621004CFFF600
0008FFD4028CC501EFFE10
009FFB106FFF90009FFF70
06FFD106FFFC00006FFFA0
0EFF402EFFF400005FFFD0
4FFC00BFFFC000004FFFE0
7FF805FFFF5000005FFFF0
6FF70BFFFD0000006FFFE0
1DF72FFFF90000008FFFC0
01658FFFF4000000BFFFA0
0000CFFFE0000000EFFF70
0001FFFFB0000003FFFF30
0003FFFF80000008FFFE00
0006FFFF6000000DFFF900
0007FFFF4000004FFFF300
0008FFFF300000CFFFA000
0008FFFF400005FFFF2000
0006FFFF50002EFFF70000
0002FFFFB002CFFFA00000
0000BFFFFB9EFFFA000000
00002DFFFFFFFE70000000
0000017CEFDB7100000000
ENDCHAR
STARTCHAR Oacute
ENCODING 211
SWIDTH 665 0
DWIDTH 21 0
BBX 21 32 0 0
BITMAP
0000000000000004886000
000000000000000DFF5000
000000000000005FFA0000
00000000000000DFE10000
00000000000005FF600000
0000000000000CFB000000
0000000000001882000000
0000000000000000000000
0000000038BDEFEC820000
0000017DFFFFEFFFFF7000
00005DFFB621004CFFF600
0008FFD4028CC501EFFE10
009FFB106FFF90009FFF70
06FFD106FFFC00006FFFA0
0EFF402EFFF400005FFFD0
4FFC00BFFFC000004FFFE0
7FF805FFFF5000005FFFF0
6FF70BFFFD0000006FFFE0
1DF72FFFF90000008FFFC0
01658FFFF4000000BFFFA0
0000CFFFE0000000EFFF70
0001FFFFB0000003FFFF30
0003FFFF80000008FFFE00
0006FFFF6000000DFFF900
0007FFFF4000004FFFF300
0008FFFF300000CFFFA000
0008FFFF400005FFFF2000
0006FFFF50002EFFF70000
0002FFFFB002CFFFA00000
0000BFFFFB9EFFFA000000
00002DFFFFFFFE70000000
0000017CEFDB7100000000
ENDCHAR
STARTCHAR Ocircumflex
ENCODING 212
SWIDTH 665 0
DWIDTH 21 0
BBX 21 32 0 0
BITMAP
0000000000000006200000
000000000000009F700000
0000000000001BFFC00000
000000000001CFFFF20000
00000000002DFC57F70000
0000000004EC5000AB0000
0000000017500000170000
0000000000000000000000
0000000038BDEFEC820000
0000017DFFFFEFFFFF7000
00005DFFB621004CFFF600
0008FFD4028CC501EFFE10
009FFB106FFF90009FFF70
06FFD106FFFC00006FFFA0
0EFF402EFFF400005FFFD0
4FFC00BFFFC000004FFFE0
7FF805FFFF5000005FFFF0
6FF70BFFFD0000006FFFE0
1DF72FFFF90000008FFFC0
01658FFFF4000000BFFFA0
0000CFFFE0000000EFFF70
0001FFFFB0000003FFFF30
0003FFFF80000008FFFE00
0006FFFF6000000DFFF900
0007FFFF4000004FFFF300
0008FFFF300000CFFFA000
0008FFFF400005FFFF2000
0006FFFF50002EFFF70000
0002FFFFB002CFFFA00000
0000BFFFFB9EFFFA000000
00002DFFFFFFFE70000000
0000017CEFDB7100000000
ENDCHAR
STARTCHAR Otilde
ENCODING 213
SWIDTH 665 0
DWIDTH 21 0
BBX 22 30 0 0
BITMAP
0000000000004675200001
00000000006EFFFFFD98B4
0000000007FFFFFFFFFF60
00000000161137BEFD9200
0000000000000000000000
0000000000000000000000
0000000038BDEFEC820000
0000017DFFFFEFFFFF7000
00005DFFB621004CFFF600
0008FFD4028CC501EFFE10
009FFB106FFF90009FFF70
06FFD106FFFC00006FFFA0
0EFF402EFFF400005FFFD0
4FFC00BFFFC000004FFFE0
7FF805FFFF5000005FFFF0
6FF70BFFFD0000006FFFE0
1DF72FFFF90000008FFFC0
01658FFFF4000000BFFFA0
0000CFFFE0000000EFFF70
0001FFFFB0000003FFFF30
0003FFFF80000008FFFE00
0006FFFF6000000DFFF900
0007FFFF4000004FFFF300
0008FFFF300000CFFFA000
0008FFFF400005FFFF2000
0006FFFF50002EFFF70000
0002FFFFB002CFFFA00000
0000BFFFFB9EFFFA000000
00002DFFFFFFFE70000000
0000017CEFDB7100000000
ENDCHAR
STARTCHAR Odieresis
ENCODING 214
SWIDTH 665 0
DWIDTH 21 0
BBX 21 30 0 0
BITMAP
0000000002CE6005ED3000
000000000AFFF10EFFB000
000000000AFFF10EFFC000
0000000003DE6005ED3000
0000000000000000000000
0000000000000000000000
0000000038BDEFEC820000
0000017DFFFFEFFFFF7000
00005DFFB621004CFFF600
0008FFD4028CC501EFFE10
009FFB106FFF90009FFF70
06FFD106FFFC00006FFFA0
0EFF402EFFF400005FFFD0
4FFC00BFFFC000004FFFE0
7FF805FFFF5000005FFFF0
6FF70BFFFD0000006FFFE0
1DF72FFFF90000008FFFC0
01658FFFF4000000BFFFA0
0000CFFFE0000000EFFF70
0001FFFFB0000003FFFF30
0003FFFF80000008FFFE00
0006FFFF6000000DFFF900
0007FFFF4000004FFFF300
0008FFFF300000CFFFA000
0008FFFF400005FFFF2000
0006FFFF50002EFFF70000
0002FFFFB002CFFFA00000
0000BFFFFB9EFFFA000000
00002DFFFFFFFE70000000
0000017CEFDB7100000000
ENDCHAR
STARTCHAR multiply
ENCODING 215
SWIDTH 414 0
DWIDTH 13 0
BBX 11 11 1 5
BITMAP
05900000A500
4FFA000AFF40
2DFFA0AFFC10
02DFFDFFC100
002DFFFC1000
000BFFFA0000
00AFFFFFA000
0AFFC3DFFA00
5FFC102DFF40
08C10002D600
001000001000
ENDCHAR
STARTCHAR Oslash
ENCODING 216
SWIDTH 658 0
DWIDTH 21 0
BBX 21 26 0 -2
BITMAP
00000000000001FA000000
00000000000003F7000000
000000026ACEFFFA300000
000004BFFFFFEFFFFA1000
0002BFFD9BEFBECAFFB000
004EFE72CFFE4F93FFF600
04FFE40CFFF45F50FFFC00
0DFF408FFFB08F20EFFF10
5FFB03FFFF40BE00DFFF20
7FF70AFFFC00EB00EFFF30
5FF51FFFF703F800FFFF30
09E67FFFF206F403FFFF10
0000CFFFC009F106FFFE00
0001FFFF800CD009FFFB00
0004FFFF501FA00EFFF700
0007FFFF204F604FFFF200
0008FFFF107F30AFFFC000
0009FFFE00AF02FFFF5000
000AFFFE00DC0AFFFB0000
0008FFFF01F94FFFE20000
0005FFFF44F8EFFF500000
0000EFFFCAFFFFF5000000
00004EFFFFFFFC30000000
0000029DFFE94000000000
000000003F700000000000
000000006F400000000000
ENDCHAR
STARTCHAR Ugrave
ENCODING 217
SWIDTH 716 0
DWIDTH 23 0
BBX 26 32 -1 0
BITMAP
00000000000000DFF600000000
000000000000009FF800000000
000000000000004FFB00000000
000000000000000EFD00000000
0000000000000009FF00000000
0000000000000005FF30000000
00000000000000000000000000
00000000000000000000000000
0000000159CEFE4000006FFFF1
0000018EFFFFFF200000AFFFD0
00006EFC5AFFFD000000DFFFA0
000AFF600EFFF9000001FFFF70
009FF6002FFFF5000004FFFF30
05FFB0006FFFF1000008FFFF00
0CFF4000AFFFB000000BFFFC00
1FFF0000EFFF7000000EFFF900
2FFD0003FFFF3000003FFFF600
0EFC0007FFFE0000006FFFF200
06EE000AFFFA0000009FFFE000
0014100EFFF6000000DFFFB000
0000003FFFF2000001FFFF7000
0000006FFFD0000005FFFF4000
000000AFFFA0000009FFFE0000
000000CFFF7000000DFFFA0000
000000FFFF5000003FFFF60000
000002FFFF3000008FFFE10000
000003FFFF300001EFFF900000
000002FFFF500007FFFF200000
000001FFFFD3028FFFF8000000
000000AFFFFFFFFFFFA0000000
0000002DFFFFFFFFF800000000
000000017BEFFEB82000000000
ENDCHAR
STARTCHAR Uacute
ENCODING 218
SWIDTH 716 0
DWIDTH 23 0
BBX 26 32 -1 0
BITMAP
00000000000000000078830000
000000000000000005FFD10000
00000000000000000CFF400000
00000000000000004FF9000000
0000000000000000BFE1000000
0000000000000004FF50000000
00000000000000058600000000
00000000000000000000000000
0000000159CEFE4000006FFFF1
0000018EFFFFFF200000AFFFD0
00006EFC5AFFFD000000DFFFA0
000AFF600EFFF9000001FFFF70
009FF6002FFFF5000004FFFF30
05FFB0006FFFF1000008FFFF00
0CFF4000AFFFB000000BFFFC00
1FFF0000EFFF7000000EFFF900
2FFD0003FFFF3000003FFFF600
0EFC0007FFFE0000006FFFF200
06EE000AFFFA0000009FFFE000
0014100EFFF6000000DFFFB000
0000003FFFF2000001FFFF7000
0000006FFFD0000005FFFF4000
000000AFFFA0000009FFFE0000
000000CFFF7000000DFFFA0000
000000FFFF5000003FFFF60000
000002FFFF3000008FFFE10000
000003FFFF300001EFFF900000
000002FFFF500007FFFF200000
000001FFFFD3028FFFF8000000
000000AFFFFFFFFFFFA0000000
0000002DFFFFFFFFF800000000
000000017BEFFEB82000000000
ENDCHAR
STARTCHAR Ucircumflex
ENCODING 219
SWIDTH 716 0
DWIDTH 23 0
BBX 26 32 -1 0
BITMAP
00000000000000000017000000
000000000000000001CF300000
00000000000000002DFF800000
0000000000000003EFFFD00000
000000000000005FFA3BF30000
00000000000006FA3001D80000
00000000000027300000360000
00000000000000000000000000
0000000159CEFE4000006FFFF1
0000018EFFFFFF200000AFFFD0
00006EFC5AFFFD000000DFFFA0
000AFF600EFFF9000001FFFF70
009FF6002FFFF5000004FFFF30
05FFB0006FFFF1000008FFFF00
0CFF4000AFFFB000000BFFFC00
1FFF0000EFFF7000000EFFF900
2FFD0003FFFF3000003FFFF600
0EFC0007FFFE0000006FFFF200
06EE000AFFFA0000009FFFE000
0014100EFFF6000000DFFFB000
0000003FFFF2000001FFFF7000
0000006FFFD0000005FFFF4000
000000AFFFA0000009FFFE0000
000000CFFF7000000DFFFA0000
000000FFFF5000003FFFF60000
000002FFFF3000008FFFE10000
000003FFFF300001EFFF900000
000002FFFF500007FFFF200000
000001FFFFD3028FFFF8000000
000000AFFFFFFFFFFFA0000000
0000002DFFFFFFFFF800000000
000000017BEFFEB82000000000
ENDCHAR
STARTCHAR Udieresis
ENCODING 220
SWIDTH 716 0
DWIDTH 23 0
BBX 26 30 -1 0
BITMAP
00000000000004DD4006EC2000
0000000000000CFFD01FFFA000
0000000000000CFFD01FFFA000
00000000000004DE5007EC2000
00000000000000000000000000
00000000000000000000000000
0000000159CEFE4000006FFFF1
0000018EFFFFFF200000AFFFD0
00006EFC5AFFFD000000DFFFA0
000AFF600EFFF9000001FFFF70
009FF6002FFFF5000004FFFF30
05FFB0006FFFF1000008FFFF00
0CFF4000AFFFB000000BFFFC00
1FFF0000EFFF7000000EFFF900
2FFD0003FFFF3000003FFFF600
0EFC0007FFFE0000006FFFF200
06EE000AFFFA0000009FFFE000
0014100EFFF6000000DFFFB000
0000003FFFF2000001FFFF7000
0000006FFFD0000005FFFF4000
000000AFFFA0000009FFFE0000
000000CFFF7000000DFFFA0000
000000FFFF5000003FFFF60000
000002FFFF3000008FFFE10000
000003FFFF300001EFFF900000
000002FFFF500007FFFF200000
000001FFFFD3028FFFF8000000
000000AFFFFFFFFFFFA0000000
0000002DFFFFFFFFF800000000
000000017BEFFEB82000000000
ENDCHAR
STARTCHAR Yacute
ENCODING 221
SWIDTH 620 0
DWIDTH 20 0
BBX 23 32 0 0
BITMAP
000000000000000000388600
000000000000000000CFF600
000000000000000005FFB000
00000000000000000CFE2000
00000000000000004FF60000
0000000000000000BFC00000
000000000000000188200000
000000000000000000000000
000000059CEFC0000001EF20
000006EFFFFFF1000006FA00
0003CFD6EFFFF400000CF400
004EFA10BFFFF800003FC000
04FFA0007FFFFC00009F5000
1EFE10003FFFFF1001FD0000
7FF900000EFFFF4007F70000
BFF500000AFFFF800DE10000
CFF3000007FFFFB04F900000
9FF3000003FFFFE0AF200000
2DF4000000EFFFF5FB000000
0043000000AFFFFEF4000000
00000000006FFFFFC0000000
00000000002FFFFF60000000
00000000001FFFFF10000000
00000000004FFFFC00000000
00000000007FFFF900000000
0000000000BFFFF600000000
0000000000EFFFF300000000
0000000002FFFFE000000000
0000000005FFFFB000000000
0000000009FFFF8000000000
000000000CFFFF5000000000
000000000FFFFF2000000000
ENDCHAR
STARTCHAR Thorn
ENCODING 222
SWIDTH 583 0
DWIDTH 19 0
BBX 19 24 0 0
BITMAP
00000000024650000000
00000001FFFF80000000
00000005FFFF40000000
00000008FFFF10000000
0000002DFFFFEDA50000
00002AFFFFFFFFFFC200
0007FE8FFFF805EFFD10
009FE27FFFF5004FFF70
07FF40AFFFF1000CFFC0
2FFC00DFFFD0000AFFE0
8FF702FFFF90000AFFE0
BFF505FFFF50000CFFB0
BFF308FFFF20002FFF60
6FF30BFFFD00009FFD10
06B50EFFFA0003FFF300
00003FFFF6003EFE5000
00006FFFF327EFC30000
00009FFFFFEDA5000000
0000CFFFA00000000000
0001FFFF700000000000
0004FFFF500000000000
0007FFFF200000000000
000AFFFE000000000000
000DFFFB000000000000
ENDCHAR
STARTCHAR germandbls
ENCODING 223
SWIDTH 480 0
DWIDTH 15 0
BBX 17 30 -3 -8
BITMAP
0000000004BEFD8100
000000009FFFFFFD10
00000009FFF709FF50
0000004FFFD006FF60
000000CFFF8007FF40
000003FFFF300AFE00
000008FFFE000EF800
00000DFFFB005FE100
00001FFFF800CF7000
00005FFFF403FB0000
00008FFFF10CFB1000
0000BFFFD009FFC100
0000EFFFA000CFF900
0003FFFF60005FFF30
0006FFFF30001FFF90
0009FFFE00000EFFD0
000DFFFB00000EFFE0
001FFFF800001FFFD0
004FFFF500006FFF90
007FFFF25203EFFE20
00BFFFD0CFEFFFE400
00EFFFA05DFEC71000
02FFFF700000000000
06FFFF300000000000
09FFFF000000000000
0CFFFC000000000000
1FFFF8000000000000
4FFFF5000000000000
7FFEB1000000000000
663000000000000000
ENDCHAR
STARTCHAR agrave
ENCODING 224
SWIDTH 526 0
DWIDTH 17 0
BBX 20 24 -1 0
BITMAP
00000000EFF500000000
000000009FF800000000
000000005FFA00000000
000000001EFC00000000
000000000AFE00000000
0000000005FF20000000
00000000000000000000
00000000000000000000
0000029DFEA6FFFF4000
00005EFFFFFDFFFF1000
0004FFFF603FFFFC0000
002EFFF7000EFFF90000
00AFFFD0003FFFF60000
03FFFF60006FFFF30000
09FFFF10009FFFE00000
0DFFFC0000CFFFB00000
2FFFF80001FFFF800000
4FFFF60004FFFF500000
6FFFF50007FFFF2004C1
6FFFF5000DFFFE000BA0
4FFFFA01AFFFFF207F20
1EFFFFEFF9FFFFFEF700
06FFFFFF61DFFFFF8000
005CFEA3003BEEA30000
ENDCHAR
STARTCHAR aacute
ENCODING 225
SWIDTH 526 0
DWIDTH 17 0
BBX 20 24 -1 0
BITMAP
000000000007FFC00000
00000000001EFF300000
00000000006FF8000000
0000000000DFD1000000
0000000006FF40000000
000000000DFA00000000
00000000033100000000
00000000000000000000
0000029DFEA6FFFF4000
00005EFFFFFDFFFF1000
0004FFFF603FFFFC0000
002EFFF7000EFFF90000
00AFFFD0003FFFF60000
03FFFF60006FFFF30000
09FFFF10009FFFE00000
0DFFFC0000CFFFB00000
2FFFF80001FFFF800000
4FFFF60004FFFF500000
6FFFF50007FFFF2004C1
6FFFF5000DFFFE000BA0
4FFFFA01AFFFFF207F20
1EFFFFEFF9FFFFFEF700
06FFFFFF61DFFFFF8000
005CFEA3003BEEA30000
ENDCHAR
STARTCHAR acircumflex
ENCODING 226
SWIDTH 526 0
DWIDTH 17 0
BBX 20 24 -1 0
BITMAP
000000000001B9000000
00000000001CFE000000
0000000002DFFF300000
000000003DFECF800000
00000004EF911DD00000
0000005E920003F20000
00000021000000210000
00000000000000000000
0000029DFEA6FFFF4000
00005EFFFFFDFFFF1000
0004FFFF603FFFFC0000
002EFFF7000EFFF90000
00AFFFD0003FFFF60000
03FFFF60006FFFF30000
09FFFF10009FFFE00000
0DFFFC0000CFFFB00000
2FFFF80001FFFF800000
4FFFF60004FFFF500000
6FFFF50007FFFF2004C1
6FFFF5000DFFFE000BA0
4FFFFA01AFFFFF207F20
1EFFFFEFF9FFFFFEF700
06FFFFFF61DFFFFF8000
005CFEA3003BEEA30000
ENDCHAR
STARTCHAR atilde
ENCODING 227
SWIDTH 526 0
DWIDTH 17 0
BBX 20 22 -1 0
BITMAP
00000000467620000100
0000004DFFFFFD98A600
000005FFFFFFFFFF8000
0000062136AEFDA30000
00000000000000000000
00000000000000000000
0000029DFEA6FFFF4000
00005EFFFFFDFFFF1000
0004FFFF603FFFFC0000
002EFFF7000EFFF90000
00AFFFD0003FFFF60000
03FFFF60006FFFF30000
09FFFF10009FFFE00000
0DFFFC0000CFFFB00000
2FFFF80001FFFF800000
4FFFF60004FFFF500000
6FFFF50007FFFF2004C1
6FFFF5000DFFFE000BA0
4FFFFA01AFFFFF207F20
1EFFFFEFF9FFFFFEF700
06FFFFFF61DFFFFF8000
005CFEA3003BEEA30000
ENDCHAR
STARTCHAR adieresis
ENCODING 228
SWIDTH 526 0
DWIDTH 17 0
BBX 20 22 -1 0
BITMAP
00000007EC100AE90000
0000002FFF806FFF5000
0000002FFF806FFF5000
00000008EC100AEA0000
00000000000000000000
00000000000000000000
0000029DFEA6FFFF4000
00005EFFFFFDFFFF1000
0004FFFF603FFFFC0000
002EFFF7000EFFF90000
00AFFFD0003FFFF60000
03FFFF60006FFFF30000
09FFFF10009FFFE00000
0DFFFC0000CFFFB00000
2FFFF80001FFFF800000
4FFFF60004FFFF500000
6FFFF50007FFFF2004C1
6FFFF5000DFFFE000BA0
4FFFFA01AFFFFF207F20
1EFFFFEFF9FFFFFEF700
06FFFFFF61DFFFFF8000
005CFEA3003BEEA30000
ENDCHAR
STARTCHAR aring
ENCODING 229
SWIDTH 526 0
DWIDTH 17 0
BBX 20 22 -1 0
BITMAP
0000000007DEA1000000
000000004E31D6000000
000000007D12D6000000
000000001BEE80000000
00000000000000000000
00000000000000000000
0000029DFEA6FFFF4000
00005EFFFFFDFFFF1000
0004FFFF603FFFFC0000
002EFFF7000EFFF90000
00AFFFD0003FFFF60000
03FFFF60006FFFF30000
09FFFF10009FFFE00000
0DFFFC0000CFFFB00000
2FFFF80001FFFF800000
4FFFF60004FFFF500000
6FFFF50007FFFF2004C1
6FFFF5000DFFFE000BA0
4FFFFA01AFFFFF207F20
1EFFFFEFF9FFFFFEF700
06FFFFFF61DFFFFF8000
005CFEA3003BEEA30000
ENDCHAR
STARTCHAR ae
ENCODING 230
SWIDTH 650 0
DWIDTH 21 0
BBX 23 16 -1 0
BITMAP
0000029DFFD92029DFEB3000
00006EFFFFFFF9FFFFFFC000
0004FA3007FFFFFFB15FF200
0000400000EFFFFD104FF300
0000000000DFFFF6007FF100
0000000000EFFFE001DFC000
0000000004FFFF900AFF3000
00039CEFFEFFFF54CFF60000
01AFFFFFEFFFFFFFFE400000
09FFFF810DFFFFDB61000000
1FFFF8002FFFFD0000000350
3FFFF4007FFFFE0000005E40
3FFFF904EFFFFF40004AF600
1FFFFFFFE8FFFFFDDFFF6000
09FFFFFF51CFFFFFFFD30000
006CEEB30017CEFDA5000000
ENDCHAR
STARTCHAR ccedilla
ENCODING 231
SWIDTH 384 0
DWIDTH 12 0
BBX 15 24 -1 -8
BITMAP
0000018CEFD70000
00004EFFFFFF5000
0004FFFE40DFA000
002EFFF600BFA000
00BFFFD000EF4000
03FFFF6000110000
09FFFF1000000000
0DFFFC0000000000
2FFFF80000000000
4FFFF60000000000
6FFFF50000004D10
6FFFF7000006F500
4FFFFD3014BF8000
1EFFFFFFFFF80000
06FFFFFFFD400000
004AEFFE50000000
000000B900000000
000001F775000000
000007FFFF900000
00000314FFB00000
00000000EF900000
0002DB33FE200000
0002AFFFC3000000
0000001100000000
ENDCHAR
STARTCHAR egrave
ENCODING 232
SWIDTH 384 0
DWIDTH 12 0
BBX 15 24 -1 0
BITMAP
000000CFF7000000
0000007FFA000000
0000002FFC000000
0000000DFE000000
00000008FF200000
00000003FF400000
0000000000000000
0000000000000000
0000018CEEC60000
00004EFFFFFF5000
0005FFFF50DFA000
002EFFF600CFB000
00BFFFD000EF9000
03FFFF6007FF4000
09FFFF104FFB0000
0DFFFC28FFC10000
2FFFFFFFFA100000
4FFFFEC930000000
6FFFF50000000610
6FFFF6000002CA00
4FFFFB10027EC100
1EFFFFFDEFFC1000
06FFFFFFFF800000
004AEFEC82000000
ENDCHAR
STARTCHAR eacute
ENCODING 233
SWIDTH 384 0
DWIDTH 12 0
BBX 15 24 -1 0
BITMAP
00000000003FFE20
0000000000AFF700
0000000002FFD000
0000000009FF4000
000000001EF90000
000000008FE10000
0000000034300000
0000000000000000
0000018CEEC60000
00004EFFFFFF5000
0005FFFF50DFA000
002EFFF600CFB000
00BFFFD000EF9000
03FFFF6007FF4000
09FFFF104FFB0000
0DFFFC28FFC10000
2FFFFFFFFA100000
4FFFFEC930000000
6FFFF50000000610
6FFFF6000002CA00
4FFFFB10027EC100
1EFFFFFDEFFC1000
06FFFFFFFF800000
004AEFEC82000000
ENDCHAR
STARTCHAR ecircumflex
ENCODING 234
SWIDTH 384 0
DWIDTH 12 0
BBX 15 24 -1 0
BITMAP
00000000006E0000
0000000007FF4000
000000008FFF9000
00000009FFDFD000
000000AFD509F300
00001BD60000C700
0000240000002300
0000000000000000
0000018CEEC60000
00004EFFFFFF5000
0005FFFF50DFA000
002EFFF600CFB000
00BFFFD000EF9000
03FFFF6007FF4000
09FFFF104FFB0000
0DFFFC28FFC10000
2FFFFFFFFA100000
4FFFFEC930000000
6FFFF50000000610
6FFFF6000002CA00
4FFFFB10027EC100
1EFFFFFDEFFC1000
06FFFFFFFF800000
004AEFEC82000000
ENDCHAR
STARTCHAR edieresis
ENCODING 235
SWIDTH 384 0
DWIDTH 12 0
BBX 15 22 -1 0
BITMAP
000007EC200AEA00
00001FFF905FFF50
00001FFF905FFF50
000007EC200AEA00
0000000000000000
0000000000000000
0000018CEEC60000
00004EFFFFFF5000
0005FFFF50DFA000
002EFFF600CFB000
00BFFFD000EF9000
03FFFF6007FF4000
09FFFF104FFB0000
0DFFFC28FFC10000
2FFFFFFFFA100000
4FFFFEC930000000
6FFFF50000000610
6FFFF6000002CA00
4FFFFB10027EC100
1EFFFFFDEFFC1000
06FFFFFFFF800000
004AEFEC82000000
ENDCHAR
STARTCHAR igrave
ENCODING 236
SWIDTH 267 0
DWIDTH 9 0
BBX 11 24 -1 0
BITMAP
001FFF300000
000BFF600000
0006FF800000
0002FFA00000
0000CFD00000
00007FF00000
000000000000
000000000000
000EFFFA0000
002FFFF70000
005FFFF40000
009FFFF10000
00CFFFC00000
00FFFF900000
03FFFF600000
07FFFF300000
0AFFFE000000
0DFFFB000000
1FFFF8000890
3FFFF6002E50
3FFFF914DC00
1FFFFFFFE300
0AFFFFFE4000
019DFC710000
ENDCHAR
STARTCHAR iacute
ENCODING 237
SWIDTH 267 0
DWIDTH 9 0
BBX 11 24 -1 0
BITMAP
0000000CFF80
0000004FFD00
000000BFF300
000003FF9000
00000BFD1000
00003FF50000
000001100000
000000000000
000EFFFA0000
002FFFF70000
005FFFF40000
009FFFF10000
00CFFFC00000
00FFFF900000
03FFFF600000
07FFFF300000
0AFFFE000000
0DFFFB000000
1FFFF8000890
3FFFF6002E50
3FFFF914DC00
1FFFFFFFE300
0AFFFFFE4000
019DFC710000
ENDCHAR
STARTCHAR icircumflex
ENCODING 238
SWIDTH 267 0
DWIDTH 9 0
BBX 11 24 -1 0
BITMAP
0000001BA000
000001CFE000
00002DFFF400
0003EFEBF900
004EE710BE00
06E810002E30
010000000000
000000000000
000EFFFA0000
002FFFF70000
005FFFF40000
009FFFF10000
00CFFFC00000
00FFFF900000
03FFFF600000
07FFFF300000
0AFFFE000000
0DFFFB000000
1FFFF8000890
3FFFF6002E50
3FFFF914DC00
1FFFFFFFE300
0AFFFFFE4000
019DFC710000
ENDCHAR
STARTCHAR idieresis
ENCODING 239
SWIDTH 267 0
DWIDTH 9 0
BBX 11 22 -1 0
BITMAP
00AEA005ED30
05FFF50EFFC0
05FFF50EFFC0
00AEA005ED30
000000000000
000000000000
000EFFFA0000
002FFFF70000
005FFFF40000
009FFFF10000
00CFFFC00000
00FFFF900000
03FFFF600000
07FFFF300000
0AFFFE000000
0DFFFB000000
1FFFF8000890
3FFFF6002E50
3FFFF914DC00
1FFFFFFFE300
0AFFFFFE4000
019DFC710000
ENDCHAR
STARTCHAR eth
ENCODING 240
SWIDTH 526 0
DWIDTH 17 0
BBX 20 24 -1 0
BITMAP
00000000001670000000
0000000002EFF9000400
00000000008FFF8BEF20
00000000015FFFFFD920
00000005BFFFFFF70000
00000007EB78FFFA0000
000000010004FFFD0000
000000000004FFFF0000
0000029DFEA6FFFF0000
00005EFFFFFEFFFF0000
0004FFFF603FFFFD0000
002EFFF7000EFFFA0000
00AFFFD0002FFFF70000
03FFFF60006FFFF40000
09FFFF10009FFFF10000
0DFFFC0000CFFFC00000
2FFFF80001FFFF900000
4FFFF60004FFFF600000
6FFFF50007FFFF2003A1
6FFFF5000DFFFF000AA0
4FFFFA01AFFFFF106F30
1EFFFFEFFAFFFFEEF800
06FFFFFF71EFFFFF9000
005CFEB4003BEEB50000
ENDCHAR
STARTCHAR ntilde
ENCODING 241
SWIDTH 505 0
DWIDTH 16 0
BBX 20 22 -2 0
BITMAP
00000000467520000100
0000005EFFFFFD98B500
000006FFFFFFFFFF7000
0000061137BEFD930000
00000000000000000000
00000000000000000000
0000EFFFA3AEEC400000
0002FFFFCFFFFFF30000
0005FFFFFEEFFFF80000
0009FFFFB11EFFFA0000
000CFFFF200CFFF90000
000FFFFA000DFFF80000
003FFFF6001FFFF50000
006FFFF3005FFFF10000
009FFFE0008FFFD00000
00DFFFC000BFFF900000
01FFFF8000EFFF5000A4
04FFFF5002FFFF3006E1
07FFFF2003FFFF603E80
0AFFFE0001FFFFFEFD10
0EFFFB00009FFFFFE300
2FFFF7000018DFD91000
ENDCHAR
STARTCHAR ograve
ENCODING 242
SWIDTH 433 0
DWIDTH 14 0
BBX 19 24 -1 0
BITMAP
0000002FFF3000000000
0000000CFF5000000000
00000007FF7000000000
00000003FF9000000000
00000000DFC000000000
000000008FE000000000
00000000000000000000
00000000000000000000
0000028CEFC500000000
00006FFFFFFF50000000
0006FFFE40AFD0000000
004FFFF5007FF1000360
00DFFFB002FFF315BE50
06FFFF4005FFFFFE9200
0CFFFD0001CFF9510000
1FFFF90000AFF0000000
5FFFF60000DFC0000000
7FFFF30003FF90000000
9FFFF20009FF30000000
9FFFF3002FFC00000000
7FFFF702DFF400000000
3FFFFFDFFF8000000000
08FFFFFFF70000000000
005BEFEA300000000000
ENDCHAR
STARTCHAR oacute
ENCODING 243
SWIDTH 439 0
DWIDTH 14 0
BBX 19 24 -1 0
BITMAP
00000000002FFF300000
00000000009FF8000000
0000000001EFD1000000
0000000008FF50000000
000000001EFA00000000
000000007FE200000000
00000000343000000000
00000000000000000000
0000017CEFD700000000
00004EFFFFFF80000000
0004FFFF608FF1000000
002EFFF7004FF4000280
00AFFFD100EFF614AF70
03FFFF7002FFFFFFA300
09FFFF2000AFFA610000
0DFFFC00007FF2000000
2FFFF90000BFF0000000
4FFFF60001FFC0000000
6FFFF50006FF60000000
6FFFF6001DFE10000000
5FFFFA01BFF600000000
1EFFFFEEFFB000000000
05FFFFFFFA0000000000
003AEFEB500000000000
ENDCHAR
STARTCHAR ocircumflex
ENCODING 244
SWIDTH 433 0
DWIDTH 14 0
BBX 19 24 -1 0
BITMAP
0000000000AA00000000
000000001BFE00000000
00000001CFFF40000000
0000002DFFDF90000000
000002DFA21DD0000000
00003EB30003F3000000
00003300000032000000
00000000000000000000
0000028CEFC500000000
00006FFFFFFF50000000
0006FFFE40AFD0000000
004FFFF5007FF1000360
00DFFFB002FFF315BE50
06FFFF4005FFFFFE9200
0CFFFD0001CFF9510000
1FFFF90000AFF0000000
5FFFF60000DFC0000000
7FFFF30003FF90000000
9FFFF20009FF30000000
9FFFF3002FFC00000000
7FFFF702DFF400000000
3FFFFFDFFF8000000000
08FFFFFFF70000000000
005BEFEA300000000000
ENDCHAR
STARTCHAR otilde
ENCODING 245
SWIDTH 433 0
DWIDTH 14 0
BBX 19 22 -1 0
BITMAP
00000267640000100000
0001AFFFFFEB89A00000
001DFFFFFFFFFC200000
00431259DEEC60000000
00000000000000000000
00000000000000000000
0000028CEFC500000000
00006FFFFFFF50000000
0006FFFE40AFD0000000
004FFFF5007FF1000360
00DFFFB002FFF315BE50
06FFFF4005FFFFFE9200
0CFFFD0001CFF9510000
1FFFF90000AFF0000000
5FFFF60000DFC0000000
7FFFF30003FF90000000
9FFFF20009FF30000000
9FFFF3002FFC00000000
7FFFF702DFF400000000
3FFFFFDFFF8000000000
08FFFFFFF70000000000
005BEFEA300000000000
ENDCHAR
STARTCHAR odieresis
ENCODING 246
SWIDTH 433 0
DWIDTH 14 0
BBX 19 22 -1 0
BITMAP
00001BE7003DE5000000
00008FFF20CFFE000000
00008FFF20CFFE000000
00001CE8004DE5000000
00000000000000000000
00000000000000000000
0000028CEFC500000000
00006FFFFFFF50000000
0006FFFE40AFD0000000
004FFFF5007FF1000360
00DFFFB002FFF315BE50
06FFFF4005FFFFFE9200
0CFFFD0001CFF9510000
1FFFF90000AFF0000000
5FFFF60000DFC0000000
7FFFF30003FF90000000
9FFFF20009FF30000000
9FFFF3002FFC00000000
7FFFF702DFF400000000
3FFFFFDFFF8000000000
08FFFFFFF70000000000
005BEFEA300000000000
ENDCHAR
STARTCHAR divide
ENCODING 247
SWIDTH 415 0
DWIDTH 13 0
BBX 12 16 1 3
BITMAP
000004DE9000
00002EFFF700
00004FFFFB00
00002FFFF700
000005DE9000
000000000000
000000000000
5FFFFFFFFFFD
8EEEEEEEEEE9
000000000000
000000000000
0004CE910000
001EFFF80000
003FFFFC0000
001EFFF80000
0004DEA10000
ENDCHAR
STARTCHAR oslash
ENCODING 248
SWIDTH 428 0
DWIDTH 14 0
BBX 18 18 -3 -2
BITMAP
000000006BEFC602FB
0000003DFFFFFF6CC1
000004EFFF608FFD20
00002EFFF8003FF600
0000BFFFD1006FF600
0005FFFF7005FFF700
000BFFFF104FEFF600
001FFFFC03EC8FF400
004FFFF82ED1BFF100
006FFFF8DE22FFC000
006FFFFFE309FF6000
005FFFFF403FFE1000
003FFFFB04EFF50000
000DFFFFFFFF800000
0009FFFFFFF7000000
006FAAEFD920000000
05FA00000000000000
177000000000000000
ENDCHAR
STARTCHAR ugrave
ENCODING 249
SWIDTH 505 0
DWIDTH 16 0
BBX 19 24 -1 0
BITMAP
0000000EFF5000000000
00000009FF8000000000
00000004FFA000000000
00000000EFC000000000
00000000AFE000000000
000000005FF200000000
00000000000000000000
00000000000000000000
000EFFFA001FFFF90000
002FFFF7004FFFF50000
005FFFF4007FFFF20000
009FFFF100AFFFE00000
00CFFFC000DFFFB00000
00FFFF9001FFFF800000
03FFFF6005FFFF400000
07FFFF3008FFFF100000
0AFFFE000BFFFD000000
0DFFFB000EFFFA000000
1FFFF8003FFFF7001C40
3FFFF600AFFFF4007E00
3FFFF928FFFFF815E700
1FFFFFFF9EFFFFFFC000
0AFFFFFB09FFFFFC1000
019DEC60019EEC600000
ENDCHAR
STARTCHAR uacute
ENCODING 250
SWIDTH 505 0
DWIDTH 16 0
BBX 19 24 -1 0
BITMAP
00000000000AFF900000
00000000003FFD100000
0000000000AFF5000000
0000000002FFA0000000
0000000009FE10000000
000000002FF600000000
00000000011000000000
00000000000000000000
000EFFFA001FFFF90000
002FFFF7004FFFF50000
005FFFF4007FFFF20000
009FFFF100AFFFE00000
00CFFFC000DFFFB00000
00FFFF9001FFFF800000
03FFFF6005FFFF400000
07FFFF3008FFFF100000
0AFFFE000BFFFD000000
0DFFFB000EFFFA000000
1FFFF8003FFFF7001C40
3FFFF600AFFFF4007E00
3FFFF928FFFFF815E700
1FFFFFFF9EFFFFFFC000
0AFFFFFB09FFFFFC1000
019DEC60019EEC600000
ENDCHAR
STARTCHAR ucircumflex
ENCODING 251
SWIDTH 505 0
DWIDTH 16 0
BBX 19 24 -1 0
BITMAP
00000000001BA0000000
0000000001CFE0000000
000000002DFFF4000000
00000003EFEBF9000000
0000004EE710BE000000
000006E810002E300000
00000100000000000000
00000000000000000000
000EFFFA001FFFF90000
002FFFF7004FFFF50000
005FFFF4007FFFF20000
009FFFF100AFFFE00000
00CFFFC000DFFFB00000
00FFFF9001FFFF800000
03FFFF6005FFFF400000
07FFFF3008FFFF100000
0AFFFE000BFFFD000000
0DFFFB000EFFFA000000
1FFFF8003FFFF7001C40
3FFFF600AFFFF4007E00
3FFFF928FFFFF815E700
1FFFFFFF9EFFFFFFC000
0AFFFFFB09FFFFFC1000
019DEC60019EEC600000
ENDCHAR
STARTCHAR udieresis
ENCODING 252
SWIDTH 505 0
DWIDTH 16 0
BBX 19 22 -1 0
BITMAP
000001CE7003DE400000
000008FFF20CFFE00000
000008FFF20CFFE00000
000002CE8004DE500000
00000000000000000000
00000000000000000000
000EFFFA001FFFF90000
002FFFF7004FFFF50000
005FFFF4007FFFF20000
009FFFF100AFFFE00000
00CFFFC000DFFFB00000
00FFFF9001FFFF800000
03FFFF6005FFFF400000
07FFFF3008FFFF100000
0AFFFE000BFFFD000000
0DFFFB000EFFFA000000
1FFFF8003FFFF7001C40
3FFFF600AFFFF4007E00
3FFFF928FFFFF815E700
1FFFFFFF9EFFFFFFC000
0AFFFFFB09FFFFFC1000
019DEC60019EEC600000
ENDCHAR
STARTCHAR yacute
ENCODING 253
SWIDTH 505 0
DWIDTH 16 0
BBX 18 32 -1 -8
BITMAP
00000000000BFF9000
00000000003FFD1000
0000000000AFF40000
0000000003FFA00000
000000000AFE100000
000000002FF5000000
000000000110000000
000000000000000000
000EFFFA001FFFF900
002FFFF7004FFFF500
005FFFF4007FFFF200
009FFFF100AFFFE000
00CFFFC000DFFFB000
00FFFF9002FFFF7000
03FFFF6005FFFF4000
07FFFF3008FFFF1000
0AFFFE000BFFFD0000
0DFFFB000EFFFA0000
1FFFF8003FFFF60089
3FFFF600AFFFF301E6
3FFFFA28FFFFF008E1
1FFFFFFFFFFFC06F50
0AFFFFFBFFFFCBE600
019DFC64FFFFFA3000
0000028EFFFF300000
00008FEEFFFE000000
000BF91DFFFB000000
005F802FFFF7000000
008F308FFFF2000000
008FC9FFFFA0000000
003FFFFFFC10000000
0003BEEC6000000000
ENDCHAR
STARTCHAR thorn
ENCODING 254
SWIDTH 473 0
DWIDTH 15 0
BBX 18 32 -3 -8
BITMAP
000000145795000000
0000005FFFF3000000
0000009FFFE0000000
000000CFFFB0000000
000000FFFF80000000
000003FFFF40000000
000007FFFF10000000
00000AFFFC00000000
00000DFFF96BEFC500
00001FFFFEFFFFFF50
00005FFFFB21BFFFC0
00008FFFF1005FFFF0
0000BFFFC0004FFFF2
0000EFFF90004FFFF2
0003FFFF50005FFFF2
0006FFFF20007FFFF0
0009FFFE0000AFFFC0
000CFFFB0000EFFF90
001FFFF80005FFFF30
004FFFF5000CFFFB00
007FFFF2007FFFF300
00AFFFF206FFFF7000
00EFFFFFFFFFF60000
02FFFF8AEFD9200000
05FFFF400000000000
08FFFF100000000000
0CFFFC000000000000
0FFFF9000000000000
3FFFF6000000000000
6FFFF2000000000000
AFFEA0000000000000
762000000000000000
ENDCHAR
STARTCHAR ydieresis
ENCODING 255
SWIDTH 505 0
DWIDTH 16 0
BBX 18 30 -1 -8
BITMAP
000005ED3008EB1000
00000EFFB03FFF7000
00000EFFB03FFF7000
000005ED3009EB1000
000000000000000000
000000000000000000
000EFFFA001FFFF900
002FFFF7004FFFF500
005FFFF4007FFFF200
009FFFF100AFFFE000
00CFFFC000DFFFB000
00FFFF9002FFFF7000
03FFFF6005FFFF4000
07FFFF3008FFFF1000
0AFFFE000BFFFD0000
0DFFFB000EFFFA0000
1FFFF8003FFFF60089
3FFFF600AFFFF301E6
3FFFFA28FFFFF008E1
1FFFFFFFFFFFC06F50
0AFFFFFBFFFFCBE600
019DFC64FFFFFA3000
0000028EFFFF300000
00008FEEFFFE000000
000BF91DFFFB000000
005F802FFFF7000000
008F308FFFF2000000
008FC9FFFFA0000000
003FFFFFFC10000000
0003BEEC6000000000
ENDCHAR
STARTCHAR Amacron
ENCODING 256
SWIDTH 668 0
DWIDTH 21 0
BBX 25 33 0 -4
BITMAP
000000000000005EEEEEEEEED0
000000000000009FFFFFFFFFA0
00000000000000000000000000
00000000000000000000000000
00000000000000000000000000
000000000000000028DFEA1000
0000000000000006EFFFFE0000
000000000000009FFFFFFB0000
00000000000009FE6FFFF80000
0000000000008FF43FFFF40000
000000000005FF606FFFF10000
00000000003EFB00AFFFD00000
0000000000CFE200DFFFA00000
0000000008FF7001FFFF700000
000000002FFD0004FFFF300000
0017BEFFEFFA3007FFFF000000
06EFFFFFFFFFFEACFFFC000000
5FFF821DFF6036CFFFF9000000
AFFD007FFE10002FFFF6000000
8FFF01EFF800006FFFF2000000
068308FFF200009FFFE0000000
00001EFFB00000CFFFB0000000
00007FFF600001FFFF80000000
0000DFFF100004FFFF50000000
0004FFFB000007FFFF10000000
0009FFF600000BFFFD00000000
000DFFF200000EFFFA00000000
002FFFE000002FFFF700000000
004FFFB000006FFFF300000000
004FFF90000000000000000000
002FFF80000000000000000000
0007FF90000000000000000000
00002660000000000000000000
ENDCHAR
STARTCHAR amacron
ENCODING 257
SWIDTH 526 0
DWIDTH 17 0
BBX 20 21 -1 0
BITMAP
0000005EEEEEEEEEC000
000000AFFFFFFFFF9000
00000000000000000000
00000000000000000000
00000000000000000000
0000029DFEA6FFFF4000
00005EFFFFFDFFFF1000
0004FFFF603FFFFC0000
002EFFF7000EFFF90000
00AFFFD0003FFFF60000
03FFFF60006FFFF30000
09FFFF10009FFFE00000
0DFFFC0000CFFFB00000
2FFFF80001FFFF800000
4FFFF60004FFFF500000
6FFFF50007FFFF2004C1
6FFFF5000DFFFE000BA0
4FFFFA01AFFFFF207F20
1EFFFFEFF9FFFFFEF700
06FFFFFF61DFFFFF8000
005CFEA3003BEEA30000
ENDCHAR
STARTCHAR Abreve
ENCODING 258
SWIDTH 668 0
DWIDTH 21 0
BBX 27 34 0 -4
BITMAP
000000000000003FFB000009FF30
000000000000001EFF40017FFA00
0000000000000006FFFDCEFF9100
00000000000000004BEFEC830000
0000000000000000000000000000
0000000000000000000000000000
000000000000000028DFEA100000
0000000000000006EFFFFE000000
000000000000009FFFFFFB000000
00000000000009FE6FFFF8000000
0000000000008FF43FFFF4000000
000000000005FF606FFFF1000000
00000000003EFB00AFFFD0000000
0000000000CFE200DFFFA0000000
0000000008FF7001FFFF70000000
000000002FFD0004FFFF30000000
0017BEFFEFFA3007FFFF00000000
06EFFFFFFFFFFEACFFFC00000000
5FFF821DFF6036CFFFF900000000
AFFD007FFE10002FFFF600000000
8FFF01EFF800006FFFF200000000
068308FFF200009FFFE000000000
00001EFFB00000CFFFB000000000
00007FFF600001FFFF8000000000
0000DFFF100004FFFF5000000000
0004FFFB000007FFFF1000000000
0009FFF600000BFFFD0000000000
000DFFF200000EFFFA0000000000
002FFFE000002FFFF70000000000
004FFFB000006FFFF30000000000
004FFF9000000000000000000000
002FFF8000000000000000000000
0007FF9000000000000000000000
0000266000000000000000000000
ENDCHAR
STARTCHAR abreve
ENCODING 259
SWIDTH 526 0
DWIDTH 17 0
BBX 20 23 -1 0
BITMAP
000002FFC000008FF400
000000EFF40007FFB000
0000005FFFDCEFFA1000
00000004AEFEC8300000
00000000000000000000
00000000000000000000
00000000000000000000
0000029DFEA6FFFF4000
00005EFFFFFDFFFF1000
0004FFFF603FFFFC0000
002EFFF7000EFFF90000
00AFFFD0003FFFF60000
03FFFF60006FFFF30000
09FFFF10009FFFE00000
0DFFFC0000CFFFB00000
2FFFF80001FFFF800000
4FFFF60004FFFF500000
6FFFF50007FFFF2004C1
6FFFF5000DFFFE000BA0
4FFFFA01AFFFFF207F20
1EFFFFEFF9FFFFFEF700
06FFFFFF61DFFFFF8000
005CFEA3003BEEA30000
ENDCHAR
STARTCHAR Aogonek
ENCODING 260
SWIDTH 668 0
DWIDTH 21 0
BBX 23 30 0 -6
BITMAP
000000000000000028DFEA10
0000000000000006EFFFFE00
000000000000009FFFFFFB00
00000000000009FE6FFFF800
0000000000008FF43FFFF400
000000000005FF606FFFF100
00000000003EFB00AFFFD000
0000000000CFE200DFFFA000
0000000008FF7001FFFF7000
000000002FFD0004FFFF3000
0017BEFFEFFA3007FFFF0000
06EFFFFFFFFFFEACFFFC0000
5FFF821DFF6036CFFFF90000
AFFD007FFE10002FFFF60000
8FFF01EFF800006FFFF20000
068308FFF200009FFFE00000
00001EFFB00000CFFFB00000
00007FFF600001FFFF800000
0000DFFF100004FFFF500000
0004FFFB000007FFFF100000
0009FFF600000BFFFD000000
000DFFF200000EFFFA000000
002FFFE000002FFFF7000000
004FFFB000006FFFF3000000
004FFF9000000AF500000000
002FFF8000009F8000000000
0007FF900003FF4000000000
000025600006FF8046000000
000000000003FFFFD3000000
0000000000007EEA10000000
ENDCHAR
STARTCHAR aogonek
ENCODING 261
SWIDTH 526 0
DWIDTH 17 0
BBX 20 22 -1 -6
BITMAP
0000029DFEA6FFFF4000
00005EFFFFFDFFFF1000
0004FFFF603FFFFC0000
002EFFF7000EFFF90000
00AFFFD0003FFFF60000
03FFFF60006FFFF30000
09FFFF10009FFFE00000
0DFFFC0000CFFFB00000
2FFFF80001FFFF800000
4FFFF60004FFFF500000
6FFFF50007FFFF2004C1
6FFFF5000DFFFE000B90
4FFFFA01AFFFFF207E20
1EFFFFEFF9FFFFFEF600
06FFFFFF61EFFFFF7000
005CFEA3003CFFC30000
000000000004EB000000
00000000002EF2000000
00000000009FE0000000
0000000000BFF4174000
00000000007FFFF90000
000000000008CB500000
ENDCHAR
STARTCHAR Cacute
ENCODING 262
SWIDTH 497 0
DWIDTH 16 0
BBX 18 33 0 -1
BITMAP
000000000000038870
0000000000000CFF60
0000000000004FFB00
000000000000BFF200
000000000004FF7000
00000000000BFC0000
000000000017830000
000000000000000000
000000006ADFEC8100
0000004DFFFFEFFD20
000005FFFFC302DFB0
00003FFFFD10008FF0
0001DFFFF300008FF1
0009FFFF900000DFF0
002FFFFF200009FFA0
009FFFFA0000027600
00EFFFF50000000000
04FFFFE10000000000
08FFFFB00000000000
0CFFFF800000000000
0FFFFF500000000000
2FFFFF200000000000
4FFFFF100000000000
5FFFFF000000000000
6FFFFE000000000000
5FFFFF000000000000
4FFFFF200000000350
2FFFFF600000003E40
0DFFFFD2000017FA00
07FFFFFEA89BFFB100
00CFFFFFFFFFF90000
0019FFFFFFFA300000
000014676410000000
ENDCHAR
STARTCHAR cacute
ENCODING 263
SWIDTH 384 0
DWIDTH 12 0
BBX 15 24 -1 0
BITMAP
000000000008FFB0
00000000001EFF30
00000000007FF800
0000000000DFD100
0000000005FF5000
000000000CFA0000
0000000004410000
0000000000000000
0000018CEFD70000
00004EFFFFFF5000
0004FFFF40DFA000
002EFFF600BFA000
00BFFFD000EF4000
03FFFF6000220000
09FFFF1000000000
0DFFFC0000000000
2FFFF80000000000
4FFFF60000000000
6FFFF50000003C20
6FFFF6000004E700
4FFFFC10029FA000
1EFFFFFDEFFA0000
06FFFFFFFE700000
004AEFEC71000000
ENDCHAR
STARTCHAR Ccircumflex
ENCODING 264
SWIDTH 497 0
DWIDTH 16 0
BBX 18 33 0 -1
BITMAP
000000000000170000
000000000001CF4000
00000000002DFF8000
0000000003EFFFD000
000000005EFA3BF300
00000006FA3001D800
000000273000003600
000000000000000000
000000006ADFEC8100
0000004DFFFFEFFD20
000005FFFFC302DFB0
00003FFFFD10008FF0
0001DFFFF300008FF1
0009FFFF900000DFF0
002FFFFF200009FFA0
009FFFFA0000027600
00EFFFF50000000000
04FFFFE10000000000
08FFFFB00000000000
0CFFFF800000000000
0FFFFF500000000000
2FFFFF200000000000
4FFFFF100000000000
5FFFFF000000000000
6FFFFE000000000000
5FFFFF000000000000
4FFFFF200000000350
2FFFFF600000003E40
0DFFFFD2000017FA00
07FFFFFEA89BFFB100
00CFFFFFFFFFF90000
0019FFFFFFFA300000
000014676410000000
ENDCHAR
STARTCHAR ccircumflex
ENCODING 265
SWIDTH 384 0
DWIDTH 12 0
BBX 15 24 -1 0
BITMAP
00000000005E1000
0000000006FF5000
000000007FFFA000
00000009FFDFE000
000000AFD508F400
00001BD60000C800
0000240000001300
0000000000000000
0000018CEFD70000
00004EFFFFFF5000
0004FFFF40DFA000
002EFFF600BFA000
00BFFFD000EF4000
03FFFF6000220000
09FFFF1000000000
0DFFFC0000000000
2FFFF80000000000
4FFFF60000000000
6FFFF50000003C20
6FFFF6000004E700
4FFFFC10029FA000
1EFFFFFDEFFA0000
06FFFFFFFE700000
004AEFEC71000000
ENDCHAR
STARTCHAR Cdotaccent
ENCODING 266
SWIDTH 497 0
DWIDTH 16 0
BBX 18 32 0 -1
BITMAP
0000000000004DE910
000000000001EFFF80
000000000004FFFFB0
000000000001EFFF80
0000000000004DEA10
000000000000000000
000000000000000000
000000006ADFEC8100
0000004DFFFFEFFD20
000005FFFFC302DFB0
00003FFFFD10008FF0
0001DFFFF300008FF1
0009FFFF900000DFF0
002FFFFF200009FFA0
009FFFFA0000027600
00EFFFF50000000000
04FFFFE10000000000
08FFFFB00000000000
0CFFFF800000000000
0FFFFF500000000000
2FFFFF200000000000
4FFFFF100000000000
5FFFFF000000000000
6FFFFE000000000000
5FFFFF000000000000
4FFFFF200000000350
2FFFFF600000003E40
0DFFFFD2000017FA00
07FFFFFEA89BFFB100
00CFFFFFFFFFF90000
0019FFFFFFFA300000
000014676410000000
ENDCHAR
STARTCHAR cdotaccent
ENCODING 267
SWIDTH 384 0
DWIDTH 12 0
BBX 15 24 -1 0
BITMAP
000000002BEB2000
00000000CFFFB000
00000000FFFFF000
00000000CFFFC000
000000002BEB2000
0000000000000000
0000000000000000
0000000000000000
0000018CEFD70000
00004EFFFFFF5000
0004FFFF40DFA000
002EFFF600BFA000
00BFFFD000EF4000
03FFFF6000220000
09FFFF1000000000
0DFFFC0000000000
2FFFF80000000000
4FFFF60000000000
6FFFF50000003C20
6FFFF6000004E700
4FFFFC10029FA000
1EFFFFFDEFFA0000
06FFFFFFFE700000
004AEFEC71000000
ENDCHAR
STARTCHAR Ccaron
ENCODING 268
SWIDTH 497 0
DWIDTH 16 0
BBX 19 33 0 -1
BITMAP
00000000044000002730
0000000005E20019F900
0000000001FC28EF7000
0000000000AFFFF50000
00000000006FFE400000
00000000001FD3000000
00000000000620000000
00000000000000000000
000000006ADFEC810000
0000004DFFFFEFFD2000
000005FFFFC302DFB000
00003FFFFD10008FF000
0001DFFFF300008FF100
0009FFFF900000DFF000
002FFFFF200009FFA000
009FFFFA000002760000
00EFFFF5000000000000
04FFFFE1000000000000
08FFFFB0000000000000
0CFFFF80000000000000
0FFFFF50000000000000
2FFFFF20000000000000
4FFFFF10000000000000
5FFFFF00000000000000
6FFFFE00000000000000
5FFFFF00000000000000
4FFFFF20000000035000
2FFFFF600000003E4000
0DFFFFD2000017FA0000
07FFFFFEA89BFFB10000
00CFFFFFFFFFF9000000
0019FFFFFFFA30000000
00001467641000000000
ENDCHAR
STARTCHAR ccaron
ENCODING 269
SWIDTH 384 0
DWIDTH 12 0
BBX 17 24 -1 0
BITMAP
00000009A000029D30
00000004F5018ED200
00000000EE7EFD2000
00000000AFFFC10000
000000005FFB100000
000000001FA0000000
000000000300000000
000000000000000000
0000018CEFD7000000
00004EFFFFFF500000
0004FFFF50DFA00000
002EFFF700BFA00000
00BFFFD000EF500000
03FFFF700033000000
09FFFF200000000000
0DFFFC000000000000
2FFFF9000000000000
4FFFF6000000000000
6FFFF50000001A2000
6FFFF6000002D80000
4FFFFA00006EB00000
1EFFFFDABEFB100000
06FFFFFFFE70000000
004AEFEC7200000000
ENDCHAR
STARTCHAR Dcaron
ENCODING 270
SWIDTH 663 0
DWIDTH 21 0
BBX 21 33 0 -1
BITMAP
0000000003600000165000
0000000002F50017EB1000
0000000000CE36EFA00000
00000000007FFFF8000000
00000000002FFF60000000
00000000000DF500000000
0000000000043000000000
0000000000000000000000
000000048CEFFDB7100000
000017DFFFFEFFFFE60000
0003DFFC620005DFFF6000
005FFE500246001DFFF200
04FFE20AFFFD0005FFFA00
1DFF400EFFFA0001FFFF10
6FFB002FFFF70000DFFF50
AFF6006FFFF30000CFFF80
CFF4009FFFF00000CFFF90
AFF300CFFFC00000DFFF90
4FF401FFFF800000EFFF90
028404FFFF500001FFFF80
000007FFFF200003FFFF60
00000AFFFE000006FFFF30
00000EFFFA000009FFFE00
00002FFFF700000DFFFA00
00005FFFF400003FFFF600
00008FFFF100009FFFE100
0000CFFFC00002FFFF8000
0000FFFF90000AFFFE1000
0003FFFF60007FFFF70000
0007FFFFC76BFFFFB00000
000AFFFFFFFFFFFC100000
000DFFFB4DFFFF91000000
0000000000476200000000
ENDCHAR
STARTCHAR dcaron
ENCODING 271
SWIDTH 525 0
DWIDTH 17 0
BBX 23 24 -1 0
BITMAP
00000000000000000007ED30
0000000000000000000FFFB0
000000000000079BD90CFFB0
0000000000004FFFF602EF70
0000000000007FFFF200DD10
000000000000AFFFE008E300
000000000000DFFFB0072000
000000000002FFFF80000000
0000029DFEA6FFFF40000000
00005EFFFFFEFFFF10000000
0004FFFF603FFFFD00000000
002EFFF7000FFFFA00000000
00AFFFD0003FFFF600000000
03FFFF60006FFFF300000000
09FFFF1000AFFFF000000000
0DFFFC0000DFFFC000000000
2FFFF80001FFFF8000000000
4FFFF60004FFFF5000000000
6FFFF50007FFFF2003A00000
6FFFF5000DFFFE000AA00000
4FFFFA01AFFFFE106F300000
1EFFFFEFFBFFFFEEF8000000
06FFFFFF71EFFFFF90000000
005CFEB4003CEEB400000000
ENDCHAR
STARTCHAR Dcroat
ENCODING 272
SWIDTH 663 0
DWIDTH 21 0
BBX 21 25 0 -1
BITMAP
000000049CEFEDA6100000
000005DFFFFEFFFFE70000
0002CFFC721003AFFF9000
003EFE500246000AFFF600
03EFE209FFFD0003FFFD00
0DFF400EFFFA0000FFFF30
6FFB002FFFF70000DFFF70
AFF6005FFFF40000CFFF80
CFF4008FFFF10000CFFF90
AFF300CFFFC00000DFFF90
4FF300FFFF900000EFFF80
03945EFFFFEEC001FFFF70
0000BFFFFFFF8003FFFF50
00000BFFFD000006FFFF20
00000EFFFA000009FFFE00
00002FFFF600000DFFFA00
00006FFFF300003FFFF500
00009FFFF000009FFFE100
0000CFFFC00002FFFF8000
0001FFFF90000AFFFE1000
0004FFFF50008FFFF70000
0007FFFFD76BFFFFB00000
000AFFFFFFFFFFFC100000
000DFFFB4DFFFFA1000000
0000000000476200000000
ENDCHAR
STARTCHAR dcroat
ENCODING 273
SWIDTH 525 0
DWIDTH 17 0
BBX 20 22 -1 0
BITMAP
0000000000000579B800
0000000000003FFFF600
0000000000006FFFF300
0000000006FFFFFFFFF8
0000000008EEFFFFFEE4
000000000001FFFF9000
0000029DFEA5FFFF6000
00005EFFFFFDFFFF3000
0004FFFF603FFFFE0000
002EFFF7000FFFFB0000
00AFFFD0003FFFF70000
03FFFF60006FFFF40000
09FFFF1000AFFFF10000
0DFFFC0000DFFFC00000
2FFFF80001FFFF900000
4FFFF60004FFFF600000
6FFFF50007FFFF2003A0
6FFFF5000DFFFE000AA0
4FFFFA01AFFFFE106F30
1EFFFFEFFBFFFFEEF800
06FFFFFF71EFFFFF9000
005CFEB4003CEEB40000
ENDCHAR
STARTCHAR Emacron
ENCODING 274
SWIDTH 459 0
DWIDTH 15 0
BBX 18 30 0 -1
BITMAP
00000006EEEEEEEEEB
0000000AFFFFFFFFF8
000000000000000000
000000000000000000
000000000000000000
000000006CEFD81000
0000002CFFFFFFD100
000002EFFD303EF700
00000BFFF2000BFB00
00004FFFA0000CFB00
00009FFF60003FF700
0000BFFF5000CFD100
0000BFFF6000141000
00008FFFB000000000
00002EFFF600000000
000004FFFF92000000
00007DFFFB30000000
001CFFFF8000000000
00BFFFF90000000000
07FFFFE10000000000
1EFFFF700000000000
5FFFFF100000000000
9FFFFD000000000000
BFFFFD000000005300
BFFFFE10000004E100
9FFFFF8000029F5000
4FFFFFFC89BFF60000
0AFFFFFFFFFE400000
008FFFFFFD81000000
000157763000000000
ENDCHAR
STARTCHAR emacron
ENCODING 275
SWIDTH 384 0
DWIDTH 12 0
BBX 15 21 -1 0
BITMAP
0001EEEEEEEEEE30
0005FFFFFFFFFE00
0000000000000000
0000000000000000
0000000000000000
0000018CEEC60000
00004EFFFFFF5000
0005FFFF50DFA000
002EFFF600CFB000
00BFFFD000EF9000
03FFFF6007FF4000
09FFFF104FFB0000
0DFFFC28FFC10000
2FFFFFFFFA100000
4FFFFEC930000000
6FFFF50000000610
6FFFF6000002CA00
4FFFFB10027EC100
1EFFFFFDEFFC1000
06FFFFFFFF800000
004AEFEC82000000
ENDCHAR
STARTCHAR Ebreve
ENCODING 276
SWIDTH 459 0
DWIDTH 15 0
BBX 19 31 0 -1
BITMAP
0000000DFF100003FF80
0000000AFF90004EFE20
00000002EFFECEFFC200
0000000029DFEDA50000
00000000000000000000
00000000000000000000
000000006CEFD8100000
0000002CFFFFFFD10000
000002EFFD303EF70000
00000BFFF2000BFB0000
00004FFFA0000CFB0000
00009FFF60003FF70000
0000BFFF5000CFD10000
0000BFFF600014100000
00008FFFB00000000000
00002EFFF60000000000
000004FFFF9200000000
00007DFFFB3000000000
001CFFFF800000000000
00BFFFF9000000000000
07FFFFE1000000000000
1EFFFF70000000000000
5FFFFF10000000000000
9FFFFD00000000000000
BFFFFD00000000530000
BFFFFE10000004E10000
9FFFFF8000029F500000
4FFFFFFC89BFF6000000
0AFFFFFFFFFE40000000
008FFFFFFD8100000000
00015776300000000000
ENDCHAR
STARTCHAR ebreve
ENCODING 277
SWIDTH 384 0
DWIDTH 12 0
BBX 15 23 -1 0
BITMAP
0009FF400001EFC0
0006FFB1003CFF40
0000CFFECDFFE400
000018CEFDA61000
0000000000000000
0000000000000000
0000000000000000
0000018CEEC60000
00004EFFFFFF5000
0005FFFF50DFA000
002EFFF600CFB000
00BFFFD000EF9000
03FFFF6007FF4000
09FFFF104FFB0000
0DFFFC28FFC10000
2FFFFFFFFA100000
4FFFFEC930000000
6FFFF50000000610
6FFFF6000002CA00
4FFFFB10027EC100
1EFFFFFDEFFC1000
06FFFFFFFF800000
004AEFEC82000000
ENDCHAR
STARTCHAR Edotaccent
ENCODING 278
SWIDTH 459 0
DWIDTH 15 0
BBX 16 32 0 -1
BITMAP
000000000009ED50
00000000007FFFF2
0000000000AFFFF5
00000000007FFFF2
000000000009ED50
0000000000000000
0000000000000000
000000006CEFD810
0000002CFFFFFFD1
000002EFFD303EF7
00000BFFF2000BFB
00004FFFA0000CFB
00009FFF60003FF7
0000BFFF5000CFD1
0000BFFF60001410
00008FFFB0000000
00002EFFF6000000
000004FFFF920000
00007DFFFB300000
001CFFFF80000000
00BFFFF900000000
07FFFFE100000000
1EFFFF7000000000
5FFFFF1000000000
9FFFFD0000000000
BFFFFD0000000053
BFFFFE10000004E1
9FFFFF8000029F50
4FFFFFFC89BFF600
0AFFFFFFFFFE4000
008FFFFFFD810000
0001577630000000
ENDCHAR
STARTCHAR edotaccent
ENCODING 279
SWIDTH 384 0
DWIDTH 12 0
BBX 15 24 -1 0
BITMAP
000000003CEA1000
00000000EFFF9000
00000003FFFFD000
00000001EFFFA000
000000003CEA1000
0000000000000000
0000000000000000
0000000000000000
0000018CEEC60000
00004EFFFFFF5000
0005FFFF50DFA000
002EFFF600CFB000
00BFFFD000EF9000
03FFFF6007FF4000
09FFFF104FFB0000
0DFFFC28FFC10000
2FFFFFFFFA100000
4FFFFEC930000000
6FFFF50000000610
6FFFF6000002CA00
4FFFFB10027EC100
1EFFFFFDEFFC1000
06FFFFFFFF800000
004AEFEC82000000
ENDCHAR
STARTCHAR Eogonek
ENCODING 280
SWIDTH 459 0
DWIDTH 15 0
BBX 16 30 0 -6
BITMAP
00000039DEFDA400
000019FFFFFFFFA0
0000BFFFD4005FF7
0006FFFE20000CFD
000CFFF800000BFE
000FFFF500001EFD
000EFFF60000AFF8
000BFFFA00003860
0005FFFF40000000
00008FFFE5000000
000007FFFFA20000
00018EFFFD500000
004EFFFF80000000
03EFFFF700000000
0CFFFFB000000000
3FFFFF4000000000
7FFFFF0000000000
9FFFFF0000000000
8FFFFF3000000063
6FFFFFB0000004E1
1EFFFFF910017F60
06FFFFFFFDDFF700
007FFFFFFFFE5000
00039DEEDEE30000
000000006F400000
00000004FD000000
0000000BFC000000
0000000DFE329200
00000009FFFF7000
000000019CB40000
ENDCHAR
STARTCHAR eogonek
ENCODING 281
SWIDTH 384 0
DWIDTH 12 0
BBX 15 22 -1 -6
BITMAP
0000018CEEC60000
00004EFFFFFF5000
0005FFFF50DFA000
002EFFF600CFB000
00BFFFD000EF9000
03FFFF6007FF4000
09FFFF104FFB0000
0DFFFC28FFC10000
2FFFFFFFFA100000
4FFFFEC930000000
6FFFF50000000510
6FFFF5000000AB00
4FFFF900002CD200
1EFFFFA78BFD2000
06FFFFFFFFB10000
004AEFEFE6000000
000000AE30000000
000008F900000000
00001FF700000000
00003FFB14900000
00000DFFFE400000
000003BC92000000
ENDCHAR
STARTCHAR Ecaron
ENCODING 282
SWIDTH 459 0
DWIDTH 15 0
BBX 19 33 0 -1
BITMAP
00000000036000001650
0000000002F50017EB10
0000000000CE36EFA000
00000000007FFFF80000
00000000002FFF600000
00000000000DF5000000
00000000000430000000
00000000000000000000
000000006CEFD8100000
0000002CFFFFFFD10000
000002EFFD303EF70000
00000BFFF2000BFB0000
00004FFFA0000CFB0000
00009FFF60003FF70000
0000BFFF5000CFD10000
0000BFFF600014100000
00008FFFB00000000000
00002EFFF60000000000
000004FFFF9200000000
00007DFFFB3000000000
001CFFFF800000000000
00BFFFF9000000000000
07FFFFE1000000000000
1EFFFF70000000000000
5FFFFF10000000000000
9FFFFD00000000000000
BFFFFD00000000530000
BFFFFE10000004E10000
9FFFFF8000029F500000
4FFFFFFC89BFF6000000
0AFFFFFFFFFE40000000
008FFFFFFD8100000000
00015776300000000000
ENDCHAR
STARTCHAR ecaron
ENCODING 283
SWIDTH 384 0
DWIDTH 12 0
BBX 17 24 -1 0
BITMAP
0000000A800002AD20
00000006F4019FC100
00000001FE8EFC1000
00000000BFFFB10000
000000007FFA000000
000000002F90000000
000000000400000000
000000000000000000
0000018CEED7000000
00004EFFFFFF600000
0005FFFE50DFA00000
002EFFF600CFB00000
00BFFFD001EF800000
03FFFF6007FE200000
09FFFF105FF6000000
0DFFFC4AFF60000000
2FFFFFFEA200000000
4FFFF8310000000000
6FFFF50000003D2000
6FFFF6000004E60000
4FFFFC10029F900000
1EFFFFFDEFFA000000
06FFFFFFFE60000000
004AEFEC7100000000
ENDCHAR
STARTCHAR Gcircumflex
ENCODING 284
SWIDTH 578 0
DWIDTH 19 0
BBX 19 38 0 -7
BITMAP
00000000000001C90000
0000000000003DFE0000
000000000006FFFF5000
00000000009FE96FA000
000000001BE71007E100
00000000550000005200
00000000000000000000
000000005ADEFEB50000
0000006DFFFFFFFFB100
00001AFFFFA3008FF900
0001CFFFF700000EFE00
000AFFFF8000000EFF20
006FFFFB0000003FFF10
01EFFFF3000001CFFC00
06FFFFB00000009EC200
0BFFFF50000000000000
1FFFFF10000000000000
3FFFFC00000000000000
5FFFFA00000005CCC500
6FFFF80000000AFFF300
5FFFF80000001EFFE000
4FFFF90000006FFFB000
1FFFFC000001DFFF8000
0CFFFF30000AFFFF5000
05FFFFD303BFFFFF1000
00BFFFFFFFFBFFFD0000
001CFFFFFF78FFFA0000
00005ACB830CFFF60000
00000353001FFFF30000
0002CFFF904FFFE00000
001DFFFFF28FFFA00000
006FFF99E3BFFF600000
00AFF40021EFFF100000
00CFE00004FFF9000000
00AFF1000CFFE2000000
004FFA12AFFF60000000
0007FFFFFFF600000000
00004ADEC82000000000
ENDCHAR
STARTCHAR gcircumflex
ENCODING 285
SWIDTH 507 0
DWIDTH 16 0
BBX 19 32 -1 -8
BITMAP
000000000001B9000000
00000000001CFE000000
0000000002DFFF300000
000000003DFECF800000
00000004EF911DD00000
0000005E920003F20000
00000021000000210000
00000000000000000000
0000029DFEA6FFFF4000
00005EFFFFFDFFFF1000
0004FFFF603FFFFC0000
002EFFF7000EFFF90000
00AFFFD0003FFFF60000
03FFFF60006FFFF30000
09FFFF1000AFFFE00000
0DFFFB0000DFFFB00000
2FFFF80001FFFF800000
4FFFF60004FFFF500000
6FFFF50008FFFF100B50
6FFFF6001DFFFD005F20
4FFFFB12BFFFFA00DA00
1EFFFFFFFFFFF71AE100
06FFFFFFCFFFF9DD3000
005CFEB49FFFFE910000
0000003AFFFFD1000000
00002AFFFFFFA0000000
0002EF94FFFF60000000
000AF706FFFF20000000
000DE00AFFFC00000000
000DE14FFFF500000000
0007FFFFFF8000000000
00006CFEA40000000000
ENDCHAR
STARTCHAR Gbreve
ENCODING 286
SWIDTH 578 0
DWIDTH 19 0
BBX 21 37 0 -7
BITMAP
000000000FFE000005FF70
000000000DFF20000CFE20
0000000008FFC314BFF600
0000000001BFFFFFFD4000
000000000005ABB9500000
0000000000000000000000
000000005ADEFEB6000000
0000006DFFFFFFFFC10000
00001AFFFFA3008FFA0000
0001CFFFF700000EFF1000
000AFFFF8000000EFF2000
006FFFFB0000004FFF1000
01EFFFF3000001DFFA0000
06FFFFB00000005A810000
0BFFFF5000000000000000
1FFFFF1000000000000000
3FFFFC0000000000000000
5FFFFA00000006FFF50000
6FFFF80000000BFFF20000
5FFFF80000001FFFE00000
4FFFF90000007FFFB00000
1FFFFC000001EFFF700000
0CFFFF30000AFFFF400000
05FFFFD303BFFFFF100000
00BFFFFFFFFBFFFD000000
001CFFFFFF78FFF9000000
00005ACB830CFFF6000000
00000353001FFFF3000000
0002CFFF904FFFE0000000
001DFFFFF28FFFA0000000
006FFF99E3BFFF60000000
00AFF40021EFFE10000000
00CFE00004FFF900000000
00AFF1000CFFE200000000
004FFA12AFFF5000000000
0007FFFFFFF60000000000
00004ADEC8200000000000
ENDCHAR
STARTCHAR gbreve
ENCODING 287
SWIDTH 507 0
DWIDTH 16 0
BBX 19 31 -1 -8
BITMAP
000002FFB000007FF500
000000FFE10001DFD100
000000AFFA214DFE4000
0000001CFFFFFFC30000
000000006ABA84000000
00000000000000000000
00000000000000000000
0000029DFEA6FFFF4000
00005EFFFFFDFFFF1000
0004FFFF603FFFFC0000
002EFFF7000EFFF90000
00AFFFD0003FFFF60000
03FFFF60006FFFF30000
09FFFF1000AFFFE00000
0DFFFB0000DFFFB00000
2FFFF80001FFFF800000
4FFFF60004FFFF500000
6FFFF50008FFFF100B50
6FFFF6001DFFFD005F20
4FFFFB12BFFFFA00DA00
1EFFFFFFFFFFF71AE100
06FFFFFFCFFFF9DD3000
005CFEB49FFFFE910000
0000003AFFFFD1000000
00002AFFFFFFA0000000
0002EF94FFFF60000000
000AF706FFFF20000000
000DE00AFFFC00000000
000DE14FFFF500000000
0007FFFFFF8000000000
00006CFEA40000000000
ENDCHAR
STARTCHAR Gdotaccent
ENCODING 288
SWIDTH 578 0
DWIDTH 19 0
BBX 19 38 0 -7
BITMAP
000000000003CEA10000
00000000001EFFF90000
00000000003FFFFC0000
00000000001EFFF90000
000000000004CEA10000
00000000000000000000
00000000000000000000
000000005ADEFEB60000
0000006DFFFFFFFFC100
00001AFFFFA3008FFA00
0001CFFFF700000EFF10
000AFFFF8000000EFF20
006FFFFB0000004FFF10
01EFFFF3000001DFFA00
06FFFFB00000005A8100
0BFFFF50000000000000
1FFFFF10000000000000
3FFFFC00000000000000
5FFFFA00000006FFF500
6FFFF80000000BFFF200
5FFFF80000001FFFE000
4FFFF90000007FFFB000
1FFFFC000001EFFF7000
0CFFFF30000AFFFF4000
05FFFFD303BFFFFF1000
00BFFFFFFFFBFFFD0000
001CFFFFFF78FFF90000
00005ACB830CFFF60000
00000353001FFFF30000
0002CFFF904FFFE00000
001DFFFFF28FFFA00000
006FFF99E3BFFF600000
00AFF40021EFFE100000
00CFE00004FFF9000000
00AFF1000CFFE2000000
004FFA12AFFF50000000
0007FFFFFFF600000000
00004ADEC82000000000
ENDCHAR
STARTCHAR gdotaccent
ENCODING 289
SWIDTH 507 0
DWIDTH 16 0
BBX 19 32 -1 -8
BITMAP
00000000008ED5000000
0000000006FFFF300000
0000000009FFFF600000
0000000006FFFF300000
00000000008ED6000000
00000000000000000000
00000000000000000000
00000000000000000000
0000029DFEA6FFFF4000
00005EFFFFFDFFFF1000
0004FFFF603FFFFC0000
002EFFF7000EFFF90000
00AFFFD0003FFFF60000
03FFFF60006FFFF30000
09FFFF1000AFFFE00000
0DFFFB0000DFFFB00000
2FFFF80001FFFF800000
4FFFF60004FFFF500000
6FFFF50008FFFF100B50
6FFFF6001DFFFD005F20
4FFFFB12BFFFFA00DA00
1EFFFFFFFFFFF71AE100
06FFFFFFCFFFF9DD3000
005CFEB49FFFFE910000
0000003AFFFFD1000000
00002AFFFFFFA0000000
0002EF94FFFF60000000
000AF706FFFF20000000
000DE00AFFFC00000000
000DE14FFFF500000000
0007FFFFFF8000000000
00006CFEA40000000000
ENDCHAR
STARTCHAR Gcommaaccent
ENCODING 290
SWIDTH 578 0
DWIDTH 19 0
BBX 18 32 0 -8
BITMAP
000000004ADFEB6000
0000003CFFFFFFFA00
000005FFFF910AFF60
00005FFFF80004FFB0
0003FFFFB00005FFC0
000DFFFF20000BFFA0
007FFFF900003FFE30
01EFFFF30000025100
07FFFFC00000000000
0CFFFF700000000000
2FFFFF300000000000
6FFFFE000000000000
8FFFFB0000000BFFF1
AFFFF90000000EFFC0
BFFFF80000003FFF90
CFFFF80000008FFF60
CFFFF8000000DFFF30
AFFFF9000005FFFE00
8FFFFC00000DFFFB00
4FFFFF20008FFFF800
0EFFFFB007FFFFF400
06FFFFFEEFEFFFF100
008FFFFFFC6FFFD000
0004BEFD708FFFA000
000000000000000000
000000000000000000
0000003DE600000000
0000008FFD00000000
0000002EFC00000000
00000008F500000000
0000001DA000000000
000000380000000000
ENDCHAR
STARTCHAR gcommaaccent
ENCODING 291
SWIDTH 507 0
DWIDTH 16 0
BBX 19 32 -1 -8
BITMAP
00000000000470000000
00000000004F40000000
0000000001ED00000000
0000000006FF60000000
0000000007FFD0000000
0000000002DE70000000
00000000000000000000
00000000000000000000
0000029DFEA6FFFF4000
00005EFFFFFDFFFF1000
0004FFFF603FFFFC0000
002EFFF7000EFFF90000
00AFFFD0003FFFF60000
03FFFF60006FFFF30000
09FFFF1000AFFFE00000
0DFFFB0000DFFFB00000
2FFFF80001FFFF800000
4FFFF60004FFFF500000
6FFFF50008FFFF100B50
6FFFF6001DFFFD005F20
4FFFFB12BFFFFA00DA00
1EFFFFFFFFFFF71AE100
06FFFFFFCFFFF9DD3000
005CFEB49FFFFE910000
0000003AFFFFD1000000
00002AFFFFFFA0000000
0002EF94FFFF60000000
000AF706FFFF20000000
000DE00AFFFC00000000
000DE14FFFF500000000
0007FFFFFF8000000000
00006CFEA40000000000
ENDCHAR
STARTCHAR Hcircumflex
ENCODING 292
SWIDTH 665 0
DWIDTH 21 0
BBX 23 32 0 0
BITMAP
000000000000000005200000
00000000000000008F800000
000000000000000AFFD00000
00000000000001BFFFF30000
0000000000002DFD56F80000
000000000003ED50009D0000
000000000007500000071000
000000000000000000000000
000000038CEFB00008FFFF10
000004CFFFFF90000BFFFD00
0001AFFEFFFF60000EFFFA00
001CFE75FFFF30002FFFF700
01DFF508FFFF00005FFFF400
0AFF700CFFFC00008FFFF100
3FFE000FFFF90000BFFFC000
7FF9003FFFF50000EFFF9000
9FF7006FFFF20002FFFF6000
7FF600AFFFE00005FFFF3000
2FF600DFFFFFFFFFFFFE0000
039701FFFFFFFFFFFFFC0000
000005FFFF85555FFFF80000
000008FFFF20003FFFF50000
00000BFFFE00006FFFF20000
00000EFFFA00009FFFE00000
00003FFFF70000DFFFB00000
00006FFFF40001FFFF800000
00009FFFF10004FFFF400000
0000CFFFC00007FFFF100000
0001FFFF90000BFFFD000000
0004FFFF50000EFFFA000000
0007FFFF20002FFFF7000000
000AFFFE00006FFFF3000000
ENDCHAR
STARTCHAR hcircumflex
ENCODING 293
SWIDTH 505 0
DWIDTH 16 0
BBX 20 29 -2 0
BITMAP
0000000002C700000000
000000003DFC00000000
00000004EFFF20000000
0000005FFCBF70000000
000007FD501DB0000000
00008D600003E1000000
00000000000000000000
0000059BDE1000000000
00000CFFFC0000000000
00000FFFF90000000000
00003FFFF60000000000
00007FFFF20000000000
0000AFFFE00000000000
0000DFFFB3AEEC400000
0001FFFFCFFFFFF30000
0005FFFFFFEFFFF80000
0008FFFFB11EFFFA0000
000BFFFF200CFFF90000
000EFFFA000DFFF80000
002FFFF6001FFFF50000
006FFFF3005FFFF10000
009FFFE0008FFFD00000
00CFFFC000BFFF900000
01FFFF8000EFFF5000A4
04FFFF5002FFFF3006E1
07FFFF2003FFFF603E80
0AFFFE0001FFFFFEFD10
0DFFFB00009FFFFFE300
2FFFF7000018DFD91000
ENDCHAR
STARTCHAR Hbar
ENCODING 294
SWIDTH 665 0
DWIDTH 21 0
BBX 24 24 0 0
BITMAP
000000048CEFB00008FFFF10
000004DFFFFF90000BFFFD00
0001BFEAFFFF60000EFFFA00
002DFC26FFFF30002FFFF700
02EFD109FFFE00005FFFF400
0BFF400CFFFB00008FFFF100
4FFC07FFFFFFFFFFFFFFFFF9
8FF806BFFFFA8889FFFFC883
9FF6007FFFF20003FFFF7000
6FF600AFFFE00005FFFF3000
1CF700EFFFFFFFFFFFFF0000
004402FFFFEEEEEFFFFC0000
000005FFFF40001FFFF90000
000008FFFF10004FFFF60000
00000CFFFC00007FFFF20000
00000EFFF90000AFFFE00000
00003FFFF60000DFFFB00000
00006FFFF30002FFFF800000
00009FFFE00005FFFF400000
0000DFFFC00008FFFF100000
0001FFFF80000BFFFD000000
0004FFFF50000EFFFA000000
0007FFFF20003FFFF7000000
000AFFFE00006FFFF3000000
ENDCHAR
STARTCHAR hbar
ENCODING 295
SWIDTH 505 0
DWIDTH 16 0
BBX 20 23 -2 0
BITMAP
000002579B1000000000
00000BFFFD0000000000
00000EFFFA0000000000
005EEFFFFFEE80000000
009FFFFFFFFF50000000
00008FFFF10000000000
0000BFFFD00000000000
0000EFFFA3AEEC400000
0002FFFFCFFFFFF30000
0005FFFFFFEFFFF90000
0009FFFFB11EFFFA0000
000CFFFF200CFFF90000
000FFFFA000DFFF80000
003FFFF6001FFFF50000
006FFFF3005FFFF10000
00AFFFE0008FFFC00000
00DFFFC000BFFF800000
01FFFF8000EFFF5001B4
04FFFF5002FFFF3007E1
07FFFF2003FFFF715E80
0AFFFE0001FFFFFFFD10
0EFFFB00009FFFFFE300
2FFFF7000018DFD81000
ENDCHAR
STARTCHAR Itilde
ENCODING 296
SWIDTH 375 0
DWIDTH 12 0
BBX 17 30 0 0
BITMAP
000000026762000000
000002BFFFFFA41270
00001EFFFFFFFFFC20
0000531259DEEC6000
000000000000000000
000000000000000000
000000059CEF900000
000006EFFFFF600000
0003CFEBFFFF300000
004EFA19FFFE000000
04FFB00CFFFB000000
1EFE101FFFF8000000
7FF9004FFFF5000000
BFF5007FFFF2000000
CFF300AFFFE0000000
9FF300DFFFA0000000
2DF402FFFF70000000
004305FFFF40000000
000008FFFF10000000
00000BFFFD00000000
00000EFFF900000000
00003FFFF600000000
00006FFFF300000000
00009FFFF000000000
0000CFFFC000000000
0001FFFF8000000000
0004FFFF5000000000
0007FFFF2000000000
000AFFFE0000000000
000DFFFB0000000000
ENDCHAR
STARTCHAR itilde
ENCODING 297
SWIDTH 267 0
DWIDTH 9 0
BBX 11 22 -1 0
BITMAP
000167400010
004EFFFD9950
01EFFFFFFB00
04215BEE8000
000000000000
000000000000
000EFFFA0000
002FFFF70000
005FFFF40000
009FFFF10000
00CFFFC00000
00FFFF900000
03FFFF600000
07FFFF300000
0AFFFE000000
0DFFFB000000
1FFFF8000890
3FFFF6002E50
3FFFF914DC00
1FFFFFFFE300
0AFFFFFE4000
019DFC710000
ENDCHAR
STARTCHAR Imacron
ENCODING 298
SWIDTH 375 0
DWIDTH 12 0
BBX 16 29 0 0
BITMAP
00000AEEEEEEEEE7
00000EFFFFFFFFF4
0000000000000000
0000000000000000
0000000000000000
000000059CEF9000
000006EFFFFF6000
0003CFEBFFFF3000
004EFA19FFFE0000
04FFB00CFFFB0000
1EFE101FFFF80000
7FF9004FFFF50000
BFF5007FFFF20000
CFF300AFFFE00000
9FF300DFFFA00000
2DF402FFFF700000
004305FFFF400000
000008FFFF100000
00000BFFFD000000
00000EFFF9000000
00003FFFF6000000
00006FFFF3000000
00009FFFF0000000
0000CFFFC0000000
0001FFFF80000000
0004FFFF50000000
0007FFFF20000000
000AFFFE00000000
000DFFFB00000000
ENDCHAR
STARTCHAR imacron
ENCODING 299
SWIDTH 267 0
DWIDTH 9 0
BBX 11 21 -1 0
BITMAP
00DEEEEEEE60
03FFFFFFFF30
000000000000
000000000000
000000000000
000EFFFA0000
002FFFF70000
005FFFF40000
009FFFF10000
00CFFFC00000
00FFFF900000
03FFFF600000
07FFFF300000
0AFFFE000000
0DFFFB000000
1FFFF8000890
3FFFF6002E50
3FFFF914DC00
1FFFFFFFE300
0AFFFFFE4000
019DFC710000
ENDCHAR
STARTCHAR Ibreve
ENCODING 300
SWIDTH 375 0
DWIDTH 12 0
BBX 18 30 0 0
BITMAP
000006FF800000CFE1
000003FFD2002AFF70
000000AFFFCDFFF700
00000006CEFEB72000
000000000000000000
000000000000000000
000000059CEF900000
000006EFFFFF600000
0003CFEBFFFF300000
004EFA19FFFE000000
04FFB00CFFFB000000
1EFE101FFFF8000000
7FF9004FFFF5000000
BFF5007FFFF2000000
CFF300AFFFE0000000
9FF300DFFFA0000000
2DF402FFFF70000000
004305FFFF40000000
000008FFFF10000000
00000BFFFD00000000
00000EFFF900000000
00003FFFF600000000
00006FFFF300000000
00009FFFF000000000
0000CFFFC000000000
0001FFFF8000000000
0004FFFF5000000000
0007FFFF2000000000
000AFFFE0000000000
000DFFFB0000000000
ENDCHAR
STARTCHAR ibreve
ENCODING 301
SWIDTH 267 0
DWIDTH 9 0
BBX 12 23 -1 0
BITMAP
00DF70000DF6
00AFC1019FD1
003FFECEFE30
0004CEEC7100
000000000000
000000000000
000000000000
000EFFFA0000
002FFFF70000
005FFFF40000
009FFFF10000
00CFFFC00000
00FFFF900000
03FFFF600000
07FFFF300000
0AFFFE000000
0DFFFB000000
1FFFF8000890
3FFFF6002E50
3FFFF914DC00
1FFFFFFFE300
0AFFFFFE4000
019DFC710000
ENDCHAR
STARTCHAR Iogonek
ENCODING 302
SWIDTH 375 0
DWIDTH 12 0
BBX 13 38 0 -7
BITMAP
000006FFE00000
000001FFF10000
000000BFF30000
0000006FF60000
0000002FF80000
0000000CFA0000
00000000000000
000000059CEF90
000006EFFFFF60
0003CFEBFFFF30
004EFA19FFFE00
04FFB00CFFFB00
1EFE101FFFF800
7FF9004FFFF500
BFF5007FFFF200
CFF300AFFFE000
9FF300DFFFA000
2DF402FFFF7000
004305FFFF4000
000008FFFF1000
00000BFFFD0000
00000EFFF90000
00003FFFF60000
00006FFFF30000
00009FFFF00000
0000CFFFC00000
0001FFFF800000
0004FFFF500000
0007FFFF200000
000AFFFE000000
000DFFFB000000
0005F600000000
004FC000000000
00CF9000000000
01FF9000100000
00FFE415D00000
009FFFFF500000
0008CD93000000
ENDCHAR
STARTCHAR iogonek
ENCODING 303
SWIDTH 267 0
DWIDTH 9 0
BBX 12 29 -2 -7
BITMAP
000003CEA100
00000DFFF900
00002FFFFD00
00000EFFFA00
000003CEA100
000000000000
0000EFFFA000
0002FFFF7000
0005FFFF4000
0009FFFF1000
000CFFFC0000
000FFFF90000
003FFFF60000
007FFFF30000
00AFFFE00000
00DFFFB00000
01FFFF800089
03FFFF6002E5
03FFFF914DC0
01FFFFFFFE30
00BFFFFFE400
001EFFC71000
00BE20000000
09F800000000
2FF500000000
5FF500010000
4FFC107B0000
1DFFFFE30000
02BEE9200000
ENDCHAR
STARTCHAR Idotaccent
ENCODING 304
SWIDTH 375 0
DWIDTH 12 0
BBX 14 31 0 0
BITMAP
0000000003CEB2
000000000DFFFB
000000001FFFFE
000000000DFFFB
0000000003CEB2
00000000000000
00000000000000
000000059CEF90
000006EFFFFF60
0003CFEBFFFF30
004EFA19FFFE00
04FFB00CFFFB00
1EFE101FFFF800
7FF9004FFFF500
BFF5007FFFF200
CFF300AFFFE000
9FF300DFFFA000
2DF402FFFF7000
004305FFFF4000
000008FFFF1000
00000BFFFD0000
00000EFFF90000
00003FFFF60000
00006FFFF30000
00009FFFF00000
0000CFFFC00000
0001FFFF800000
0004FFFF500000
0007FFFF200000
000AFFFE000000
000DFFFB000000
ENDCHAR
STARTCHAR dotlessi
ENCODING 305
SWIDTH 267 0
DWIDTH 9 0
BBX 11 16 -1 0
BITMAP
000EFFFA0000
002FFFF70000
005FFFF40000
009FFFF10000
00CFFFC00000
00FFFF900000
03FFFF600000
07FFFF300000
0AFFFE000000
0DFFFB000000
1FFFF8000890
3FFFF6002E50
3FFFF914DC00
1FFFFFFFE300
0AFFFFFE4000
019DFC710000
ENDCHAR
STARTCHAR IJ
ENCODING 306
SWIDTH 663 0
DWIDTH 21 0
BBX 22 31 0 -7
BITMAP
000000059CEF90000258C6
000006EFFFFF60005FFFF3
0003CFEBFFFF30009FFFF0
004EFA19FFFE0000CFFFC0
04FFB00CFFFB0001FFFF90
1EFE101FFFF80004FFFF60
7FF9004FFFF50007FFFF30
BFF5007FFFF2000AFFFE00
CFF300AFFFE0000DFFFB00
9FF300DFFFA0002FFFF800
2DF402FFFF70005FFFF500
004305FFFF40008FFFF200
000008FFFF1000CFFFE000
00000BFFFD0000FFFFB000
00000EFFF90003FFFF7000
00003FFFF60006FFFF4000
00006FFFF3000AFFFF1000
00009FFFF0000DFFFD0000
0000CFFFC0001FFFFA0000
0001FFFF80005FFFF70000
0004FFFF50008FFFF40000
0007FFFF2000BFFFF10000
000AFFFFB300EFFFC00000
000DFFFFFE03FFFF900000
0002FFFB8D16FFFF500000
0005FFA00109FFFE100000
0006FF50000DFFF9000000
0004FF60005FFFE1000000
0001EFE414EFFF50000000
00004FFFFFFFE500000000
0000029CEDB71000000000
ENDCHAR
STARTCHAR ij
ENCODING 307
SWIDTH 507 0
DWIDTH 16 0
BBX 19 30 -1 -8
BITMAP
00003CEA10001AEC3000
0000DFFF90009FFFD000
0002FFFFD000DFFFF200
0000EFFFA000AFFFE000
00003CEA10001AEC3000
00000000000000000000
000EFFFA0005FFFF4000
002FFFF70009FFFF1000
005FFFF4000CFFFC0000
009FFFF1000FFFF90000
00CFFFC0003FFFF60000
00FFFF90006FFFF30000
03FFFF60009FFFE00000
07FFFF3000DFFFB00000
0AFFFE0001FFFF800000
0DFFFB0004FFFF500000
1FFFF80007FFFF100C50
3FFFF6000AFFFD005F10
3FFFF9120EFFFA01D900
1FFFFFF82FFFF71BE100
0AFFFFE25FFFFADD3000
019DEB308FFFFE810000
00000029EFFFD0000000
00001AFEFFFF90000000
0001DE63FFFF60000000
0009F307FFFF20000000
000DE00DFFFC00000000
000DF9BFFFF500000000
0007FFFFFF8000000000
00006CFEA40000000000
ENDCHAR
STARTCHAR Jcircumflex
ENCODING 308
SWIDTH 536 0
DWIDTH 17 0
BBX 21 39 0 -7
BITMAP
0000000000000000035000
00000000000000004ED000
0000000000000006FFF300
000000000000008FFFF800
00000000000009FE83ED00
000000000001BE81005F20
0000000000057100000630
0000000000000000000000
00000000000016ADEF6000
000000000018EFFFFF3000
0000000005EFDCFFFE0000
000000007FF80CFFFC0000
00000007FF801FFFF80000
0000003FFC004FFFF50000
000000AFF6007FFFF20000
000000EFF200AFFFE00000
000000FFF000DFFFB00000
000000CFF002FFFF800000
0000003DF105FFFF500000
000000003108FFFF100000
00000000000CFFFD000000
00000000000FFFFA000000
00000000003FFFF7000000
00000000007FFFF4000000
0000000000AFFFF1000000
0000000000DFFFD0000000
0000000001FFFF90000000
0000000005FFFF60000000
0000000008FFFF30000000
000354000BFFFF00000000
01CFFFE30EFFFC00000000
0BFFFFF83FFFF800000000
3FFFB8C86FFFF400000000
6FFA0001AFFFE000000000
6FF40000EFFF8000000000
4FF60005FFFE1000000000
1EFD304EFFF40000000000
05FFFFFFFE400000000000
003ADEDA61000000000000
ENDCHAR
STARTCHAR jcircumflex
ENCODING 309
SWIDTH 240 0
DWIDTH 8 0
BBX 16 32 -7 -8
BITMAP
0000000000003E40
000000000004EF90
00000000005FFFE0
0000000007FFCDF4
000000009FC503E9
0000000AC500006D
0000000100000001
0000000000000000
000000000EFFFB00
000000002FFFF800
000000005FFFF400
000000008FFFF100
00000000BFFFD000
00000000EFFFA000
00000003FFFF7000
00000006FFFF4000
00000009FFFF1000
0000000CFFFD0000
0000001FFFFA0036
0000004FFFF600AA
0000007FFFF302F4
000000AFFFF10BA0
000000DFFFC1BB10
000001FFFFEE7000
00016CFFFF810000
005EFFFFFF200000
07FFBCFFFE000000
2FE40DFFFA000000
6F702FFFF5000000
6F70BFFFC0000000
1EFFFFFD20000000
02AEFD8100000000
ENDCHAR
STARTCHAR Kcommaaccent
ENCODING 310
SWIDTH 601 0
DWIDTH 19 0
BBX 22 32 0 -8
BITMAP
000000049CEF900007FFC1
000005DFFFFF60003FFE20
0002BFECFFFF3001DFF300
003EFC29FFFF0009FF6000
03EFD10CFFFC004FF90000
0CFF301FFFF901EFB00000
5FFB004FFFF60AFD100000
AFF6007FFFF36FE3000000
CFF400AFFFF2EF50000000
AFF300DFFFCCF700000000
5FF301FFFFFFB210000000
05B505FFFFFFFFFC400000
000008FFFF65BFFFE10000
00000BFFFE001EFFF50000
00000EFFFB000DFFF60000
00003FFFF7000FFFF40000
00006FFFF4002FFFF20000
00009FFFF1006FFFD00000
0000CFFFC000BFFF900000
0001FFFF9000EFFF500000
0004FFFF6004FFFF100000
0007FFFF2006FFFE000000
000AFFFE0008FFFE000000
000DFFFB0004FFFF700000
0000000000003775200000
0000000000000000000000
000000008FC10000000000
00000000EFF60000000000
000000007FF50000000000
000000000ED00000000000
000000005F300000000000
0000000083000000000000
ENDCHAR
STARTCHAR kcommaaccent
ENCODING 311
SWIDTH 518 0
DWIDTH 17 0
BBX 20 31 -2 -8
BITMAP
00000000130000000000
000007CEFF0000000000
00000CFFFC0000000000
00001FFFF80000000000
00004FFFF50000000000
00007FFFF20000000000
0000AFFFE00000000000
0000EFFFB0001AFF6000
0002FFFF7002CFC20000
0005FFFF404EF8000000
0008FFFF17FD40000000
000BFFFDAFFA94000000
000EFFFFFFFFFF600000
003FFFFFFFFFFFE10000
006FFFFC30AFFFF30000
009FFFE0007FFFF40000
00CFFFC0008FFFF20000
01FFFF8000BFFFD00068
04FFFF5000DFFFB001E7
07FFFF2000FFFFC00AE1
0AFFFE0000DFFFFEEF50
0EFFFB00007FFFFFF700
2FFFF7000005CEEB4000
00000000000000000000
00000000000000000000
0000003DE50000000000
0000008FFC0000000000
0000002EFB0000000000
00000008F40000000000
0000001D900000000000
00000048000000000000
ENDCHAR
STARTCHAR kgreenlandic
ENCODING 312
SWIDTH 518 0
DWIDTH 17 0
BBX 20 16 -2 0
BITMAP
0000EFFFB0001AFF6000
0002FFFF7002CFC20000
0005FFFF404EF8000000
0009FFFF17FD40000000
000CFFFDAFFA94000000
000FFFFFFFFFFF600000
003FFFFFFFFFFFE10000
006FFFFC30AFFFF30000
009FFFE0007FFFF40000
00DFFFC0008FFFF20000
01FFFF8000BFFFD00068
04FFFF5000DFFFB001E7
07FFFF2000FFFFC00AE1
0AFFFE0000DFFFFEEF50
0EFFFB00007FFFFFF700
2FFFF7000005CEEB4000
ENDCHAR
STARTCHAR Lacute
ENCODING 313
SWIDTH 379 0
DWIDTH 12 0
BBX 22 40 0 -8
BITMAP
0000000000003887000000
000000000000CFF6000000
000000000004FFB0000000
00000000000CFE20000000
00000000004FF700000000
0000000000BFC000000000
0000000001782000000000
0000000000000000000000
000000059CEF9000000000
000006EFFFFF6000000000
0003CFEBFFFF3000000000
004EFA19FFFE0000000000
04FFB00CFFFB0000000000
1EFE101FFFF80000000000
7FF9004FFFF50000000000
BFF5007FFFF20000000000
CFF300AFFFE00000000000
9FF300EFFFA00000000000
2EF402FFFF700000000000
015305FFFF400000000000
000008FFFF100000000000
00000BFFFD000000000000
00000EFFF9000000000000
00003FFFF6000000000000
00006FFFF3000000000000
00009FFFE0000000000000
0000DFFFC0000000000000
0001FFFF80000000000000
0004FFFF50000000000000
0007FFFF20000000000000
000AFFFE00000000000000
000EFFFE92000000000000
00189CFFFF910000000000
0000003BFFFE5000000000
000000004DFFFB30000000
0000000001BFFFFA520261
000000000008FFFFFFFFE0
0000000000005EFFFFFFA0
00000000000002CFFFFF30
0000000000000005BED500
ENDCHAR
STARTCHAR lacute
ENCODING 314
SWIDTH 267 0
DWIDTH 9 0
BBX 13 30 -1 0
BITMAP
00000000188810
000000007FFB00
00000001EFE200
00000007FF6000
0000000DFC0000
0000006FF20000
00000068500000
00000000000000
0000368AC10000
0000BFFFD00000
0000EFFFA00000
0003FFFF600000
0006FFFF300000
0009FFFE000000
000DFFFB000000
001FFFF8000000
004FFFF5000000
008FFFF1000000
00BFFFD0000000
00EFFFA0000000
03FFFF70000000
06FFFF30000000
09FFFF00000000
0DFFFC00000000
1FFFF8000AA000
3FFFF6002F4000
3FFFF914DC0000
1FFFFFFFE20000
0AFFFFFD300000
019DFC71000000
ENDCHAR
STARTCHAR Lcommaaccent
ENCODING 315
SWIDTH 379 0
DWIDTH 12 0
BBX 22 32 0 -8
BITMAP
000000059CEF9000000000
000006EFFFFF6000000000
0003CFEBFFFF3000000000
004EFA19FFFE0000000000
04FFB00CFFFB0000000000
1EFE101FFFF80000000000
7FF9004FFFF50000000000
BFF5007FFFF20000000000
CFF300AFFFE00000000000
9FF300EFFFA00000000000
2EF402FFFF700000000000
015305FFFF400000000000
000008FFFF100000000000
00000BFFFD000000000000
00000EFFF9000000000000
00003FFFF6000000000000
00006FFFF3000000000000
00009FFFE0000000000000
0000DFFFC0000000000000
0001FFFF80000000000000
0004FFFF50000000000000
0007FFFF20000000000000
000AFFFE00000000000000
000EFFFE92000000000000
00189CFFFF910000000000
0000003BFFFE5000000000
0019C5004DFFFB30000000
006FFE0001BFFFFA520261
003FFE000008FFFFFFFFE0
0008F80000005EFFFFFFA0
0009C100000002CFFFFF30
002B100000000005BED500
ENDCHAR
STARTCHAR lcommaaccent
ENCODING 316
SWIDTH 267 0
DWIDTH 9 0
BBX 11 31 -1 -8
BITMAP
000000125100
00008DFFE000
0000DFFFB000
0001FFFF8000
0004FFFF5000
0007FFFF2000
000BFFFD0000
000EFFFA0000
002FFFF70000
005FFFF40000
009FFFF10000
00CFFFC00000
00FFFF900000
03FFFF600000
07FFFF300000
0AFFFE000000
0DFFFB000000
1FFFF8000AA0
3FFFF6002F40
3FFFF914DC00
1FFFFFFFE200
0AFFFFFD3000
019DFC710000
000000000000
000000000000
07EC10000000
0EFF70000000
07FF50000000
00ED00000000
05F400000000
084000000000
ENDCHAR
STARTCHAR Lcaron
ENCODING 317
SWIDTH 379 0
DWIDTH 12 0
BBX 22 40 0 -8
BITMAP
0000000006200000372000
0000000008C0003AF60000
0000000004F93AFE400000
0000000000EFFFE3000000
00000000009FFD20000000
00000000004FC100000000
0000000000071000000000
0000000000000000000000
000000059CEF9000000000
000006EFFFFF6000000000
0003CFEBFFFF3000000000
004EFA19FFFE0000000000
04FFB00CFFFB0000000000
1EFE101FFFF80000000000
7FF9004FFFF50000000000
BFF5007FFFF20000000000
CFF300AFFFE00000000000
9FF300EFFFA00000000000
2EF402FFFF700000000000
015305FFFF400000000000
000008FFFF100000000000
00000BFFFD000000000000
00000EFFF9000000000000
00003FFFF6000000000000
00006FFFF3000000000000
00009FFFE0000000000000
0000DFFFC0000000000000
0001FFFF80000000000000
0004FFFF50000000000000
0007FFFF20000000000000
000AFFFE00000000000000
000EFFFE92000000000000
00189CFFFF910000000000
0000003BFFFE5000000000
000000004DFFFB30000000
0000000001BFFFFA520261
000000000008FFFFFFFFE0
0000000000005EFFFFFFA0
00000000000002CFFFFF30
0000000000000005BED500
ENDCHAR
STARTCHAR lcaron
ENCODING 318
SWIDTH 267 0
DWIDTH 9 0
BBX 14 24 -1 0
BITMAP
00000000006ED4
0000000000EFFC
0000379BC1BFFC
0000BFFFD02EF8
0000EFFF900DE2
0003FFFF606F50
0006FFFF308500
000AFFFE000000
000DFFFB000000
001FFFF8000000
004FFFF5000000
008FFFF1000000
00BFFFD0000000
00EFFFA0000000
03FFFF70000000
06FFFF30000000
09FFFF00000000
0DFFFC00000000
1FFFF800079000
3FFFF6002E5000
3FFFF914DC0000
1FFFFFFFF30000
0AFFFFFE400000
019DFC71000000
ENDCHAR
STARTCHAR Ldot
ENCODING 319
SWIDTH 605 0
DWIDTH 19 0
BBX 22 32 0 -8
BITMAP
000000049CEF9000000000
000005DFFFFF6000000000
0001AFFDFFFF3000000000
002DFD49FFFE0000000000
02DFE20CFFFB0000000000
0BFF400FFFF80000000000
4FFC003FFFF50000000000
9FF7007FFFF20000000000
CFF400AFFFE00000000000
CFF300DFFFB00000000000
8FF301FFFF700000000000
1AF505FFFF400000000000
001108FFFF100000000000
00000BFFFD000000000000
00000EFFFA0003CEA10000
00003FFFF6000DFFFA0000
00006FFFF3002FFFFE0000
00009FFFF0000DFFFA0000
0000CFFFC00003CEA10000
0001FFFF90000000000000
0004FFFF60000000000000
0007FFFF20000000000000
000AFFFE00000000000000
000EFFFE61000000000000
00189CFFFE700000000000
0000003BFFFD4000000000
000000004DFFFA20000000
0000000001BFFFFA520261
000000000008FFFFFFFFE0
0000000000005EFFFFFFA0
00000000000002CFFFFF30
0000000000000005BED500
ENDCHAR
STARTCHAR ldot
ENCODING 320
SWIDTH 353 0
DWIDTH 11 0
BBX 12 23 -1 0
BITMAP
000000135100
00008EFFE000
0000DFFFB000
0001FFFF8000
0004FFFF5000
0008FFFF2000
000BFFFD0000
000EFFFA0000
002FFFF70000
006FFFF40000
009FFFF14DE5
00CFFFC0DFFE
00FFFF90DFFE
03FFFF604DE5
07FFFF300000
0AFFFE000000
0DFFFB000000
1FFFF8000000
3FFFF6000000
3FFFF9110000
1FFFFFF80000
09FFFFE20000
018DEB300000
ENDCHAR
STARTCHAR Lslash
ENCODING 321
SWIDTH 392 0
DWIDTH 13 0
BBX 22 32 0 -8
BITMAP
000000059CEF8000000000
000006EFFFFF6000000000
0003CFEBFFFF3000000000
004EFA19FFFF0000000000
04FFB00CFFFC0000000000
1EFE101FFFF90000000000
7FF9004FFFF50140000000
BFF5007FFFF26E90000000
CFF300AFFFFCFD40000000
9FF300DFFFFF8100000000
2EF401FFFFC30000000000
015305FFFF500000000000
00001BFFFF100000000000
0005EFFFFD000000000000
000EBFFFFA000000000000
00042FFFF7000000000000
00005FFFF3000000000000
00009FFFF0000000000000
0000CFFFC0000000000000
0001FFFF90000000000000
0004FFFF50000000000000
0007FFFF20000000000000
000AFFFE00000000000000
000DFFFE92000000000000
00089CFFFF910000000000
0000003BFFFE5000000000
000000004DFFFB30000000
0000000001BFFFFA520261
000000000008FFFFFFFFE0
0000000000005EFFFFFFA0
00000000000002CFFFFF30
0000000000000005BED500
ENDCHAR
STARTCHAR lslash
ENCODING 322
SWIDTH 286 0
DWIDTH 9 0
BBX 13 23 -2 0
BITMAP
00000001351000
000008EFFE0000
00000DFFFB0000
00001FFFF80000
00004FFFF50000
00007FFFF20000
0000BFFFD02A40
0000EFFFB7EF30
0002FFFFFFB300
0005FFFFE50000
0009FFFF100000
001DFFFC000000
06EFFFF9000000
1FEFFFF6000000
167FFFF3000000
00AFFFE0000000
00DFFFB0000000
01FFFF8000AA00
03FFFF6002F400
03FFFF914DC000
01FFFFFFFE2000
009FFFFFD30000
0019DFC7100000
ENDCHAR
STARTCHAR Nacute
ENCODING 323
SWIDTH 702 0
DWIDTH 22 0
BBX 23 32 0 0
BITMAP
000000000000000000388700
000000000000000000BFF700
000000000000000003FFC000
00000000000000000AFF3000
00000000000000002FF80000
0000000000000000AFD10000
000000000000000078300000
000000000000000000000000
0000017BDFEC50000003FFD0
00007EFFFFFFA0000007FFA0
001CFFB8FFFFE000000AFF60
01CFF708FFFFF200000DFF30
0AFF800BFFFFF500001FFF00
3FFE100EFFFFF900004FFC00
8FF9003FFFFFFC00007FF800
BFF6006FFFFFFF1000AFF500
CFF5009FFDFFFF4000DFF200
9FF700DFF6FFFF7001FFE000
3FF901FFF2DFFFB004FFA000
039B04FFD09FFFE007FF7000
000008FFA06FFFF20AFF4000
00000BFF602FFFF60DFF1000
00000EFF300EFFF91FFC0000
00003FFE000AFFFC5FF90000
00006FFB0006FFFF8FF60000
00009FF70003FFFFEFF30000
0000DFF40000EFFFFFE00000
0001FFF10000BFFFFFB00000
0004FFC000007FFFFF800000
0008FF8000004FFFFF500000
000BFF5000001FFFFF100000
000EFF1000000CFFFD000000
ENDCHAR
STARTCHAR nacute
ENCODING 324
SWIDTH 505 0
DWIDTH 16 0
BBX 20 24 -2 0
BITMAP
0000000000000DFF6000
0000000000005FFB0000
000000000000DFF20000
000000000005FF700000
00000000000CFC000000
00000000004FF3000000
00000000000110000000
00000000000000000000
0000EFFFA3AEEC400000
0002FFFFCFFFFFF30000
0005FFFFFEEFFFF80000
0009FFFFB11EFFFA0000
000CFFFF200CFFF90000
000FFFFA000DFFF80000
003FFFF6001FFFF50000
006FFFF3005FFFF10000
009FFFE0008FFFD00000
00DFFFC000BFFF900000
01FFFF8000EFFF5000A4
04FFFF5002FFFF3006E1
07FFFF2003FFFF603E80
0AFFFE0001FFFFFEFD10
0EFFFB00009FFFFFE300
2FFFF7000018DFD91000
ENDCHAR
STARTCHAR Ncommaaccent
ENCODING 325
SWIDTH 668 0
DWIDTH 21 0
BBX 23 32 0 -8
BITMAP
0000017BDFEC50000003FFD0
00007EFFFFFFA0000007FFA0
001CFFB8FFFFE000000AFF60
01CFF708FFFFF200000DFF30
0AFF800BFFFFF500001FFF00
3FFE100EFFFFF900004FFC00
8FF9003FFFFFFC00007FF800
BFF6006FFFFFFF1000AFF500
CFF5009FFDFFFF4000DFF200
9FF700DFF6FFFF7001FFE000
3FF901FFF2DFFFB004FFA000
039B04FFD09FFFE007FF7000
000008FFA06FFFF20AFF4000
00000BFF602FFFF60DFF1000
00000EFF300EFFF91FFC0000
00003FFE000AFFFC5FF90000
00006FFB0006FFFF8FF60000
00009FF70003FFFFEFF30000
0000DFF40000EFFFFFE00000
0001FFF10000BFFFFFB00000
0004FFC000007FFFFF800000
0008FF8000004FFFFF500000
000BFF5000001FFFFF100000
000EFF1000000CFFFD000000
000000000000000000000000
000000000000000000000000
00000000AFB0000000000000
00000001FFF4000000000000
00000000AFF3000000000000
000000002FB0000000000000
000000008E20000000000000
000000009200000000000000
ENDCHAR
STARTCHAR ncommaaccent
ENCODING 326
SWIDTH 505 0
DWIDTH 16 0
BBX 20 24 -2 -8
BITMAP
0000EFFFA3AEEC400000
0002FFFFCFFFFFF30000
0005FFFFFEEFFFF80000
0009FFFFB11EFFFA0000
000CFFFF200CFFF90000
000FFFFA000DFFF80000
003FFFF6001FFFF50000
006FFFF3005FFFF10000
009FFFE0008FFFD00000
00DFFFC000BFFF900000
01FFFF8000EFFF5000A4
04FFFF5002FFFF3006E1
07FFFF2003FFFF603E80
0AFFFE0001FFFFFEFD10
0EFFFB00009FFFFFE300
2FFFF7000018DFD91000
00000000000000000000
00000000000000000000
000002DE600000000000
000007FFD00000000000
000002EFC00000000000
0000007F600000000000
000001DA000000000000
00000380000000000000
ENDCHAR
STARTCHAR Ncaron
ENCODING 327
SWIDTH 668 0
DWIDTH 21 0
BBX 24 32 0 0
BITMAP
000000000000006200000372
000000000000009D1003AF60
000000000000004F92AFE400
000000000000000EFFFE3000
0000000000000009FFD20000
0000000000000004FB100000
000000000000000070000000
000000000000000000000000
0000017BDFEC50000003FFD0
00007EFFFFFFA0000007FFA0
001CFFB8FFFFE000000AFF60
01CFF708FFFFF200000DFF30
0AFF800BFFFFF500001FFF00
3FFE100EFFFFF900004FFC00
8FF9003FFFFFFC00007FF800
BFF6006FFFFFFF1000AFF500
CFF5009FFDFFFF4000DFF200
9FF700DFF6FFFF7001FFE000
3FF901FFF2DFFFB004FFA000
039B04FFD09FFFE007FF7000
000008FFA06FFFF20AFF4000
00000BFF602FFFF60DFF1000
00000EFF300EFFF91FFC0000
00003FFE000AFFFC5FF90000
00006FFB0006FFFF8FF60000
00009FF70003FFFFEFF30000
0000DFF40000EFFFFFE00000
0001FFF10000BFFFFFB00000
0004FFC000007FFFFF800000
0008FF8000004FFFFF500000
000BFF5000001FFFFF100000
000EFF1000000CFFFD000000
ENDCHAR
STARTCHAR ncaron
ENCODING 328
SWIDTH 505 0
DWIDTH 16 0
BBX 20 24 -2 0
BITMAP
00000002E200006D8000
00000000CC006DF60000
000000008FBDFE500000
000000003FFFE3000000
000000000DFD20000000
0000000008C100000000
00000000000000000000
00000000000000000000
0000EFFFA3AEEC400000
0002FFFFCFFFFFF30000
0005FFFFFEEFFFF80000
0009FFFFB11EFFFA0000
000CFFFF200CFFF90000
000FFFFA000DFFF80000
003FFFF6001FFFF50000
006FFFF3005FFFF10000
009FFFE0008FFFD00000
00DFFFC000BFFF900000
01FFFF8000EFFF5000A4
04FFFF5002FFFF3006E1
07FFFF2003FFFF603E80
0AFFFE0001FFFFFEFD10
0EFFFB00009FFFFFE300
2FFFF7000018DFD91000
ENDCHAR
STARTCHAR napostrophe
ENCODING 329
SWIDTH 505 0
DWIDTH 16 0
BBX 20 24 -2 0
BITMAP
0004DE70000000000000
000BFFF0000000000000
0008FFF0000000000000
0000CFB0000000000000
0000AF30000000000000
0006F500000000000000
00034000000000000000
00000000000000000000
0000EFFFA3AEEC400000
0002FFFFCFFFFFF30000
0005FFFFFEEFFFF80000
0009FFFFB11EFFFA0000
000CFFFF200CFFF90000
000FFFFA000DFFF80000
003FFFF6001FFFF50000
006FFFF3005FFFF10000
009FFFE0008FFFD00000
00DFFFC000BFFF900000
01FFFF8000EFFF5000A4
04FFFF5002FFFF3006E1
07FFFF2003FFFF603E80
0AFFFE0001FFFFFEFD10
0EFFFB00009FFFFFE300
2FFFF7000018DFD91000
ENDCHAR
STARTCHAR Eng
ENCODING 330
SWIDTH 723 0
DWIDTH 23 0
BBX 24 30 1 -6
BITMAP
00000049CEFEA10000008FF8
00002CFFFFFFF4000000CFF5
0006FFFADFFFF7000000EFF1
006FFE40EFFFFA000003FFD0
03FFE302FFFFFD000006FFA0
0BFF7006FFFFFF20000AFF60
2FFF1009FFFFFF50000DFF30
5FFD000DFFFFFF80001FFE00
5FFC001FFFDFFFC0004FFB00
3FFD004FFC9FFFE0008FF700
0BFF108FF85FFFF300BFF400
017B50BFF51FFFF600EFF100
000000EFF10CFFFA03FFC000
000003FFD008FFFD06FF9000
000007FF9004FFFF19FF5000
00000AFF6000EFFF4CFF2000
00000DFF2000AFFF8FFD0000
00002FFE00006FFFEFFA0000
00005FFA00002FFFFFF70000
00009FF700000DFFFFF30000
0000CFF3000009FFFFE00000
0001FFF0000005FFFFB00000
0004FFC0000001FFFF700000
0007FF80000000CFFF200000
00000006BA2000CFFB000000
0000003FFA0002FFF5000000
0000006FF50008FFB0000000
0000004FF8004FFE20000000
0000000BFFABFFD300000000
000000006CEEC81000000000
ENDCHAR
STARTCHAR eng
ENCODING 331
SWIDTH 505 0
DWIDTH 16 0
BBX 16 24 -2 -8
BITMAP
0000EFFF83AEEC40
0003FFFFBFFFFFE1
0006FFFFFEDFFFF5
0009FFFFA01FFFF7
000CFFFE100EFFF7
001FFFF9000FFFF5
004FFFF5002FFFF3
007FFFF2005FFFF1
00AFFFE0008FFFD0
00DFFFB000BFFFA0
01FFFF8000EFFF70
04FFFF5003FFFF30
08FFFF1006FFFF00
0BFFFD000AFFFC00
0EFFFA000DFFF900
2FFFF7001FFFF600
00000018DFFFF200
000006EBBFFFE000
00007E40BFFFB000
0002E201FFFF7000
0006A006FFFF2000
0005C02DFFF90000
0001EFFFFFB00000
00002AEFC7000000
ENDCHAR
STARTCHAR Omacron
ENCODING 332
SWIDTH 665 0
DWIDTH 21 0
BBX 21 29 0 0
BITMAP
000000000EFFFFFFFFF400
000000003EEEEEEEEEE000
0000000000000000000000
0000000000000000000000
0000000000000000000000
0000000038BDEFEC820000
0000017DFFFFEFFFFF7000
00005DFFB621004CFFF600
0008FFD4028CC501EFFE10
009FFB106FFF90009FFF70
06FFD106FFFC00006FFFA0
0EFF402EFFF400005FFFD0
4FFC00BFFFC000004FFFE0
7FF805FFFF5000005FFFF0
6FF70BFFFD0000006FFFE0
1DF72FFFF90000008FFFC0
01658FFFF4000000BFFFA0
0000CFFFE0000000EFFF70
0001FFFFB0000003FFFF30
0003FFFF80000008FFFE00
0006FFFF6000000DFFF900
0007FFFF4000004FFFF300
0008FFFF300000CFFFA000
0008FFFF400005FFFF2000
0006FFFF50002EFFF70000
0002FFFFB002CFFFA00000
0000BFFFFB9EFFFA000000
00002DFFFFFFFE70000000
0000017CEFDB7100000000
ENDCHAR
STARTCHAR omacron
ENCODING 333
SWIDTH 433 0
DWIDTH 14 0
BBX 19 21 -1 0
BITMAP
00008EEEEEEEEE900000
0000CFFFFFFFFF700000
00000000000000000000
00000000000000000000
00000000000000000000
0000028CEFC500000000
00006FFFFFFF50000000
0006FFFE40AFD0000000
004FFFF5007FF1000360
00DFFFB002FFF315BE50
06FFFF4005FFFFFE9200
0CFFFD0001CFF9510000
1FFFF90000AFF0000000
5FFFF60000DFC0000000
7FFFF30003FF90000000
9FFFF20009FF30000000
9FFFF3002FFC00000000
7FFFF702DFF400000000
3FFFFFDFFF8000000000
08FFFFFFF70000000000
005BEFEA300000000000
ENDCHAR
STARTCHAR Obreve
ENCODING 334
SWIDTH 665 0
DWIDTH 21 0
BBX 22 30 0 0
BITMAP
0000000003FFB000008FF3
0000000000EFF40017FFA0
00000000006FFFDCEFF900
000000000004BEFEC82000
0000000000000000000000
0000000000000000000000
0000000038BDEFEC820000
0000017DFFFFEFFFFF7000
00005DFFB621004CFFF600
0008FFD4028CC501EFFE10
009FFB106FFF90009FFF70
06FFD106FFFC00006FFFA0
0EFF402EFFF400005FFFD0
4FFC00BFFFC000004FFFE0
7FF805FFFF5000005FFFF0
6FF70BFFFD0000006FFFE0
1DF72FFFF90000008FFFC0
01658FFFF4000000BFFFA0
0000CFFFE0000000EFFF70
0001FFFFB0000003FFFF30
0003FFFF80000008FFFE00
0006FFFF6000000DFFF900
0007FFFF4000004FFFF300
0008FFFF300000CFFFA000
0008FFFF400005FFFF2000
0006FFFF50002EFFF70000
0002FFFFB002CFFFA00000
0000BFFFFB9EFFFA000000
00002DFFFFFFFE70000000
0000017CEFDB7100000000
ENDCHAR
STARTCHAR obreve
ENCODING 335
SWIDTH 433 0
DWIDTH 14 0
BBX 19 23 -1 0
BITMAP
00009FF500001EFD0000
00005FFC1002BFF50000
00000CFFECDFFE500000
0000017CEFEB61000000
00000000000000000000
00000000000000000000
00000000000000000000
0000028CEFC500000000
00006FFFFFFF50000000
0006FFFE40AFD0000000
004FFFF5007FF1000360
00DFFFB002FFF315BE50
06FFFF4005FFFFFE9200
0CFFFD0001CFF9510000
1FFFF90000AFF0000000
5FFFF60000DFC0000000
7FFFF30003FF90000000
9FFFF20009FF30000000
9FFFF3002FFC00000000
7FFFF702DFF400000000
3FFFFFDFFF8000000000
08FFFFFFF70000000000
005BEFEA300000000000
ENDCHAR
STARTCHAR Ohungarumlaut
ENCODING 336
SWIDTH 665 0
DWIDTH 21 0
BBX 24 32 0 0
BITMAP
000000000000007FFB04FFD1
00000000000001EFE10BFF30
00000000000006FF404FF700
0000000000000DF800BFA000
0000000000006FB003FD1000
000000000000DE100AF30000
000000000000000000000000
000000000000000000000000
0000000038BDEFEC82000000
0000017DFFFFEFFFFF700000
00005DFFB621004CFFF60000
0008FFD4028CC501EFFE1000
009FFB106FFF90009FFF7000
06FFD106FFFC00006FFFA000
0EFF402EFFF400005FFFD000
4FFC00BFFFC000004FFFE000
7FF805FFFF5000005FFFF000
6FF70BFFFD0000006FFFE000
1DF72FFFF90000008FFFC000
01658FFFF4000000BFFFA000
0000CFFFE0000000EFFF7000
0001FFFFB0000003FFFF3000
0003FFFF80000008FFFE0000
0006FFFF6000000DFFF90000
0007FFFF4000004FFFF30000
0008FFFF300000CFFFA00000
0008FFFF400005FFFF200000
0006FFFF50002EFFF7000000
0002FFFFB002CFFFA0000000
0000BFFFFB9EFFFA00000000
00002DFFFFFFFE7000000000
0000017CEFDB710000000000
ENDCHAR
STARTCHAR ohungarumlaut
ENCODING 337
SWIDTH 433 0
DWIDTH 14 0
BBX 19 24 -1 0
BITMAP
00000000CFF709FF9000
00000004FFA02FFC1000
0000000BFD109FE20000
0000004FF301EF500000
000000BF6008F9000000
000003FA001EC1000000
00000000000000000000
00000000000000000000
0000028CEFC500000000
00006FFFFFFF50000000
0006FFFE40AFD0000000
004FFFF5007FF1000360
00DFFFB002FFF315BE50
06FFFF4005FFFFFE9200
0CFFFD0001CFF9510000
1FFFF90000AFF0000000
5FFFF60000DFC0000000
7FFFF30003FF90000000
9FFFF20009FF30000000
9FFFF3002FFC00000000
7FFFF702DFF400000000
3FFFFFDFFF8000000000
08FFFFFFF70000000000
005BEFEA300000000000
ENDCHAR
STARTCHAR OE
ENCODING 338
SWIDTH 846 0
DWIDTH 27 0
BBX 30 24 0 0
BITMAP
0000000048BDEFEDABDEFFFFFFFFF1
0000017DFFFFEFFFFFFFFFFFFFFF90
00005EFFB657744CFFFD8ABDEFE910
0009FFD42BFFC101EFFF2000000000
009FFB02EFFE20009FFF7000000000
06FFC10CFFF700006FFFB000000000
1EFF308FFFE100005FFFD000000000
5FFC02FFFF8000004FFFE000000000
7FF808FFFF2000005FFFF000000000
5FF71EFFFC0000006FFFE000000000
1CF75FFFF80000007FFFE555500000
00449FFFF3000000AFFFFFFFD00000
0000DFFFE0000000DFFFFFFF900000
0001FFFFB0000002FFFF4000000000
0004FFFF80000006FFFE0000000000
0006FFFF6000000BFFFA0000000000
0008FFFF5000002FFFF40000000000
0008FFFF4000008FFFD00000000000
0007FFFF300001EFFF500000000000
0006FFFF40000AFFFB000000000000
0002FFFF70006FFFE2000000000000
0000BFFFD107FFFFFFFFFFFF600000
00001DFFFFFFFFFFFFFFFFFF300000
0000017CEFFFFFFFFFFFFFFE000000
ENDCHAR
STARTCHAR oe
ENCODING 339
SWIDTH 663 0
DWIDTH 21 0
BBX 24 16 -1 0
BITMAP
0000028CEEB40017CEEC7000
00007FFFFFFE32CFFFFFF800
0008FFFB20BFACFFFA13FD00
005FFFE1007FFFFFD000EE00
00DFFF7004FFFFFF5001FC00
05FFFF100AFFFFFD0007F700
0AFFFB0008FFFFF8003EC000
0EFFF700008FFFF416EB1000
1FFFF40000AFFFFCED600000
2FFFF20000DFFFE840000025
3FFFF10004FFFFA0000000C8
3FFFF2000AFFFFB000000AC0
1FFFF9006FFFFFE10001BD20
0CFFFFEEFF9FFFFD658ED200
05FFFFFFF806FFFFFFFA1000
004BEFEA30004BEFD9300000
ENDCHAR
STARTCHAR Racute
ENCODING 340
SWIDTH 601 0
DWIDTH 19 0
BBX 19 33 0 -1
BITMAP
00000000000000388700
00000000000000BFF600
00000000000004FFC000
0000000000000BFF2000
0000000000003FF70000
000000000000BFC00000
00000000000178300000
00000000000000000000
000000059CEFEC940000
000006EFFFFEFFFFB100
0003CFFB621004CFFC00
004EFD402468002EFF60
04FFE20BFFFC000BFF90
1EFF300EFFF9000BFF90
7FFB003FFFF5000EFF60
BFF6006FFFF2006FFE10
CFF3009FFFD003EFF400
9FF300DFFFA16EFE5000
2EF401FFFFFFFFFA1000
014304FFFFFFFFFFD000
000007FFFF217FFFF400
00000BFFFD000EFFF600
00000EFFFA000DFFF500
00002FFFF7000FFFF300
00005FFFF3003FFFF000
00009FFFF0007FFFB000
0000CFFFC000BFFF8000
0000FFFF9001FFFF4000
0003FFFF5004FFFF1000
0007FFFF2007FFFE0000
000AFFFE0008FFFE0000
000DFFFB0004FFFF8000
00000000000037752000
ENDCHAR
STARTCHAR racute
ENCODING 341
SWIDTH 376 0
DWIDTH 12 0
BBX 15 24 -2 0
BITMAP
00000000000CFF70
00000000004FFC00
0000000000BFF300
0000000003FF8000
000000000BFD1000
000000003FF40000
0000000001100000
0000000000000000
0000EFFFA08DE800
0002FFFF9CFFFF30
0005FFFFFEEFFF60
0009FFFF803FFF30
000CFFFD000CE800
000FFFF900000000
003FFFF600000000
006FFFF300000000
009FFFF000000000
00DFFFC000000000
01FFFF8000000000
04FFFF5000000000
07FFFF2000000000
0AFFFE0000000000
0EFFFB0000000000
2FFFF70000000000
ENDCHAR
STARTCHAR Rcommaaccent
ENCODING 342
SWIDTH 601 0
DWIDTH 19 0
BBX 19 32 0 -8
BITMAP
000000059CEFEC940000
000006EFFFFEFFFFB100
0003CFFB621004CFFC00
004EFD402468002EFF60
04FFE20BFFFC000BFF90
1EFF300EFFF9000BFF90
7FFB003FFFF5000EFF60
BFF6006FFFF2006FFE10
CFF3009FFFD003EFF400
9FF300DFFFA16EFE5000
2EF401FFFFFFFFFA1000
014304FFFFFFFFFFD000
000007FFFF217FFFF400
00000BFFFD000EFFF600
00000EFFFA000DFFF500
00002FFFF7000FFFF300
00005FFFF3003FFFF000
00009FFFF0007FFFB000
0000CFFFC000BFFF8000
0000FFFF9001FFFF4000
0003FFFF5004FFFF1000
0007FFFF2007FFFE0000
000AFFFE0008FFFE0000
000DFFFB0004FFFF8000
00000000000037752000
00000000000000000000
00000003DE5000000000
00000009FFC000000000
00000003EFA000000000
000000009F4000000000
00000001D90000000000
00000004700000000000
ENDCHAR
STARTCHAR rcommaaccent
ENCODING 343
SWIDTH 376 0
DWIDTH 12 0
BBX 15 24 -2 -8
BITMAP
0000EFFFA08DE800
0002FFFF9CFFFF30
0005FFFFFEEFFF60
0009FFFF803FFF30
000CFFFD000CE800
000FFFF900000000
003FFFF600000000
006FFFF300000000
009FFFF000000000
00DFFFC000000000
01FFFF8000000000
04FFFF5000000000
07FFFF2000000000
0AFFFE0000000000
0EFFFB0000000000
2FFFF70000000000
0000000000000000
0000000000000000
0003DE6000000000
0008FFD000000000
0002EFB000000000
00007F5000000000
0001DA0000000000
0003800000000000
ENDCHAR
STARTCHAR Rcaron
ENCODING 344
SWIDTH 601 0
DWIDTH 19 0
BBX 21 33 0 -1
BITMAP
0000000000071000004710
00000000000BB0004BE400
000000000006F73BFE3000
000000000001FFFFD20000
000000000000BFFB100000
0000000000006FA0000000
0000000000001600000000
0000000000000000000000
000000059CEFEC94000000
000006EFFFFEFFFFB10000
0003CFFB621004CFFC0000
004EFD402468002EFF6000
04FFE20BFFFC000BFF9000
1EFF300EFFF9000BFF9000
7FFB003FFFF5000EFF6000
BFF6006FFFF2006FFE1000
CFF3009FFFD003EFF40000
9FF300DFFFA16EFE500000
2EF401FFFFFFFFFA100000
014304FFFFFFFFFFD00000
000007FFFF217FFFF40000
00000BFFFD000EFFF60000
00000EFFFA000DFFF50000
00002FFFF7000FFFF30000
00005FFFF3003FFFF00000
00009FFFF0007FFFB00000
0000CFFFC000BFFF800000
0000FFFF9001FFFF400000
0003FFFF5004FFFF100000
0007FFFF2007FFFE000000
000AFFFE0008FFFE000000
000DFFFB0004FFFF800000
0000000000003775200000
ENDCHAR
STARTCHAR rcaron
ENCODING 345
SWIDTH 376 0
DWIDTH 12 0
BBX 16 24 -2 0
BITMAP
000000D500004BB1
0000008E204BFA00
0000003FCBFF8000
0000000DFFF70000
00000009FF500000
00000004E4000000
0000000000000000
0000000000000000
0000EFFFA08DE800
0002FFFF9CFFFF30
0005FFFFFEEFFF60
0009FFFF803FFF30
000CFFFD000CE800
000FFFF900000000
003FFFF600000000
006FFFF300000000
009FFFF000000000
00DFFFC000000000
01FFFF8000000000
04FFFF5000000000
07FFFF2000000000
0AFFFE0000000000
0EFFFB0000000000
2FFFF70000000000
ENDCHAR
STARTCHAR Sacute
ENCODING 346
SWIDTH 570 0
DWIDTH 18 0
BBX 17 33 1 -1
BITMAP
000000000000068840
0000000000002FFE20
0000000000009FF700
000000000002FFC000
000000000009FF3000
00000000001FF80000
000000000038700000
000000000000000000
000000049DEFD93000
000002BFFFFFFFF600
00001DFFFA103EFF30
00009FFFC00007FF80
0000EFFF800006FFA0
0002FFFF80000BFF90
0001FFFFB0005FFF30
0000DFFFF40018A400
00007FFFFE20000000
00001DFFFFD1000000
000003EFFFFC100000
0000005FFFFFB00000
00000008FFFFF80000
00000000AFFFFF4000
005BDB301DFFFFC000
08FFFFE203FFFFF200
4FFFF94100BFFFF500
AFFF5000007FFFF600
DFFD0000006FFFF500
DFFB0000008FFFF100
AFFE000001EFFF9000
4FFF91002CFFFC1000
08FFFEBCFFFFB10000
005DFFFFFFC6000000
000036775200000000
ENDCHAR
STARTCHAR sacute
ENCODING 347
SWIDTH 382 0
DWIDTH 12 0
BBX 15 24 -1 0
BITMAP
00000000008FFC00
0000000001EFF300
0000000007FF8000
000000000DFD0000
000000006FF40000
00000000DFA00000
0000000033100000
000001468A400000
000009FFFF600000
00000EFFFF700000
00005FFFFF800000
0000AEFFFF800000
0002F8FFFF900000
0008F2FFFFA00000
001E90EFFFC00000
007F30DFFFD00000
01EB00CFFFE00000
1CF600AFFFF00000
AFFD009FFFF00520
EFFA00AFFFF2C900
EB3000DFFFFE7000
AF4019FFFFB20000
2EFEFFFFE6000000
029DFEC820000000
ENDCHAR
STARTCHAR Scircumflex
ENCODING 348
SWIDTH 570 0
DWIDTH 18 0
BBX 17 33 1 -1
BITMAP
000000000000044000
0000000000006FB000
000000000007FFF100
00000000009FFFF600
000000001BFE74FB00
00000001CE71006F10
000000056100000620
000000000000000000
000000049DEFD93000
000002BFFFFFFFF600
00001DFFFA103EFF30
00009FFFC00007FF80
0000EFFF800006FFA0
0002FFFF80000BFF90
0001FFFFB0005FFF30
0000DFFFF40018A400
00007FFFFE20000000
00001DFFFFD1000000
000003EFFFFC100000
0000005FFFFFB00000
00000008FFFFF80000
00000000AFFFFF4000
005BDB301DFFFFC000
08FFFFE203FFFFF200
4FFFF94100BFFFF500
AFFF5000007FFFF600
DFFD0000006FFFF500
DFFB0000008FFFF100
AFFE000001EFFF9000
4FFF91002CFFFC1000
08FFFEBCFFFFB10000
005DFFFFFFC6000000
000036775200000000
ENDCHAR
STARTCHAR scircumflex
ENCODING 349
SWIDTH 382 0
DWIDTH 12 0
BBX 15 24 -1 0
BITMAP
0000000009C00000
00000000AFF10000
0000001BFFF60000
000001CFFCFB0000
00002DFA20BF1000
0003EA30001D5000
0002200000011000
000001468A400000
000009FFFF600000
00000EFFFF700000
00005FFFFF800000
0000AEFFFF800000
0002F8FFFF900000
0008F2FFFFA00000
001E90EFFFC00000
007F30DFFFD00000
01EB00CFFFE00000
1CF600AFFFF00000
AFFD009FFFF00520
EFFA00AFFFF2C900
EB3000DFFFFE7000
AF4019FFFFB20000
2EFEFFFFE6000000
029DFEC820000000
ENDCHAR
STARTCHAR Scedilla
ENCODING 350
SWIDTH 570 0
DWIDTH 18 0
BBX 17 31 1 -7
BITMAP
000000049DEFD92000
000001BFFFFFFFF600
00001CFFFA103EFF20
00008FFFC00007FF80
0000EFFF800006FFA0
0002FFFF80000AFF90
0001FFFFB0005FFF40
0000EFFFF4002AB600
00008FFFFE10000000
00001DFFFFC1000000
000004FFFFFB000000
0000007FFFFFA00000
00000009FFFFF80000
00000000CFFFFF3000
0028A8102EFFFFB000
05FFFFD105FFFFF200
3FFFFC8200CFFFF500
9FFF8000008FFFF600
CFFE0000006FFFF500
DFFB0000007FFFF200
BFFD000000CFFFA000
6FFF600009FFFD2000
0BFFFA78CFFFD30000
008FFFFFFFE8100000
000157EB6400000000
000004F65300000000
00000BFFFF80000000
00000304FFE0000000
00027105FFC0000000
0002EFEFFF40000000
00003BEEA300000000
ENDCHAR
STARTCHAR scedilla
ENCODING 351
SWIDTH 382 0
DWIDTH 12 0
BBX 15 24 -1 -7
BITMAP
0000038ACE600000
00000BFFFF600000
00001FFFFF700000
00006FFFFF800000
0000CCFFFF900000
0002F5FFFFA00000
0009D0FFFFB00000
001F60DFFFC00000
008D00CFFFD00000
02E600BFFFE00000
2DFA009FFFF00000
AFFD00AFFFF14D20
FEE600DFFFF6D200
EE302AFFFFFC2000
AFFFFFFFFF800000
2EFFFFFFE4000000
029EFEC810000000
000BA00000000000
003F876000000000
009FFFFB00000000
00313EFF10000000
18203FFE00000000
1DFEFFF500000000
02AEEB3000000000
ENDCHAR
STARTCHAR Scaron
ENCODING 352
SWIDTH 570 0
DWIDTH 18 0
BBX 20 33 1 -1
BITMAP
00000000006200000372
00000000009C1003AF60
00000000004F92AFE400
00000000000EFFFE3000
000000000009FFD20000
000000000004FB100000
00000000000070000000
00000000000000000000
000000049DEFD9300000
000002BFFFFFFFF60000
00001DFFFA103EFF3000
00009FFFC00007FF8000
0000EFFF800006FFA000
0002FFFF80000BFF9000
0001FFFFB0005FFF3000
0000DFFFF40018A40000
00007FFFFE2000000000
00001DFFFFD100000000
000003EFFFFC10000000
0000005FFFFFB0000000
00000008FFFFF8000000
00000000AFFFFF400000
005BDB301DFFFFC00000
08FFFFE203FFFFF20000
4FFFF94100BFFFF50000
AFFF5000007FFFF60000
DFFD0000006FFFF50000
DFFB0000008FFFF10000
AFFE000001EFFF900000
4FFF91002CFFFC100000
08FFFEBCFFFFB1000000
005DFFFFFFC600000000
00003677520000000000
ENDCHAR
STARTCHAR scaron
ENCODING 353
SWIDTH 369 0
DWIDTH 12 0
BBX 15 24 -1 0
BITMAP
000006C000018E40
000002F8018EE300
000000CF9EFD2000
0000007FFFC10000
0000002FFA100000
0000000C90000000
0000000000000000
00000268AC500000
00000AFFFF600000
00001EFFFF700000
00005FFFFF800000
0000BDFFFF900000
0002F6FFFFA00000
0008D0FFFFB00000
001E70EFFFC00000
008E10CFFFD00000
01E700BFFFE00000
1CF900AFFFF00000
AFFD009FFFF14C20
FDA400BFFFF9E300
ED0003FFFFFD3000
AFC8AFFFFF800000
2EFFFFFFE4000000
029DFEC710000000
ENDCHAR
STARTCHAR uni0162
ENCODING 354
SWIDTH 481 0
DWIDTH 15 0
BBX 23 31 0 -7
BITMAP
0000016ACEFFDA6100000050
00019FFFFFFFFFFEA42039D0
003DFFFFDEFFFFFFFFFFFF90
02EFFC5109FFFFFFFFFFFF30
0BFFA0000CFFFF69CDEEB400
3FFE10000FFFFC0000000000
8FF900003FFFF80000000000
BFF500007FFFF50000000000
CFF40000AFFFF20000000000
BFF30000DFFFD00000000000
6FF30001FFFFA00000000000
06C60004FFFF600000000000
00000008FFFF300000000000
0000000BFFFE000000000000
0000000EFFFB000000000000
0000002FFFF8000000000000
0000005FFFF5000000000000
0000009FFFF1000000000000
000000CFFFD0000000000000
000000FFFFA0000000000000
000003FFFF60000000000000
000007FFFF30000000000000
00000AFFFE00000000000000
00000DFFFB00000000000000
0000004F2000000000000000
000000BB6620000000000000
000003FFFFE2000000000000
00000210AFF7000000000000
00007401BFF5000000000000
00009FFFFFB0000000000000
000007DFC700000000000000
ENDCHAR
STARTCHAR uni0163
ENCODING 355
SWIDTH 267 0
DWIDTH 9 0
BBX 12 28 -2 -7
BITMAP
0000058ACA00
00001FFFF800
00004FFFF500
00007FFFF200
0000BFFFD000
000FFFFFFF90
0004FFFF8210
0006FFFF4000
0009FFFF1000
000CFFFC0000
000FFFF90000
003FFFF60000
007FFFF30000
00AFFFE00000
00DFFFB00000
01FFFF800089
03FFFF6002E5
03FFFF914DC0
01FFFFFFFE30
00AFFFFFE400
001BFFC71000
000AB0000000
002F98710000
008EFFFD0000
00201EFF2000
18202EFE0000
1DFEFFF60000
01AEEB400000
ENDCHAR
STARTCHAR Tcaron
ENCODING 356
SWIDTH 481 0
DWIDTH 15 0
BBX 23 32 0 0
BITMAP
000000000053000002720000
00000000007D1002AF700000
00000000002FB29FF5000000
00000000000DFFFE40000000
000000000008FFD300000000
000000000003FC2000000000
000000000000710000000000
000000000000000000000000
0000016ACEFFDA6100000050
00019FFFFFFFFFFEA42039D0
003DFFFFDEFFFFFFFFFFFF90
02EFFC5109FFFFFFFFFFFF30
0BFFA0000CFFFF69CDEEB400
3FFE10000FFFFC0000000000
8FF900003FFFF80000000000
BFF500007FFFF50000000000
CFF40000AFFFF20000000000
BFF30000DFFFD00000000000
6FF30001FFFFA00000000000
06C60004FFFF600000000000
00000008FFFF300000000000
0000000BFFFE000000000000
0000000EFFFB000000000000
0000002FFFF8000000000000
0000005FFFF5000000000000
0000009FFFF1000000000000
000000CFFFD0000000000000
000000FFFFA0000000000000
000003FFFF60000000000000
000007FFFF30000000000000
00000AFFFE00000000000000
00000DFFFB00000000000000
ENDCHAR
STARTCHAR tcaron
ENCODING 357
SWIDTH 267 0
DWIDTH 9 0
BBX 15 24 -1 0
BITMAP
00000000003CE800
00000000009FFF20
00000000006FFF20
00003578800AFC00
0001FFFF9008F400
0004FFFF504F7000
0007FFFF20250000
000BFFFD00000000
00FFFFFFF9000000
004FFFF821000000
006FFFF400000000
009FFFF100000000
00CFFFC000000000
00FFFF9000000000
03FFFF6000000000
07FFFF3000000000
0AFFFE0000000000
0DFFFB0000000000
1FFFF80008900000
3FFFF6002E500000
3FFFF914DC000000
1FFFFFFFE3000000
0AFFFFFE40000000
019DFC7100000000
ENDCHAR
STARTCHAR Tbar
ENCODING 358
SWIDTH 481 0
DWIDTH 15 0
BBX 23 24 0 0
BITMAP
0000016ACEFFDA6100000050
00019FFFFFFFFFFEA42039D0
003EFFFFDEFFFFFFFFFFFF90
02EFFC4109FFFFFFFFFFFF30
0CFF90000CFFFE159CEEB400
4FFE00000FFFFA0000000000
8FF800003FFFF70000000000
BFF500006FFFF40000000000
CFF300009FFFF10000000000
AFF30000CFFFC00000000000
5FF30001FFFF900000000000
05A50004FFFF600000000000
00000007FFFF300000000000
0000000AFFFE000000000000
002FFFFFFFFFFFFFE0000000
005EEEEFFFFEEEEEA0000000
0000004FFFF5000000000000
0000007FFFF2000000000000
000000BFFFD0000000000000
000000EFFFA0000000000000
000003FFFF60000000000000
000006FFFF30000000000000
000009FFFE00000000000000
00000DFFFB00000000000000
ENDCHAR
STARTCHAR tbar
ENCODING 359
SWIDTH 267 0
DWIDTH 9 0
BBX 11 21 -1 0
BITMAP
000058ACA000
0001FFFF8000
0004FFFF5000
0007FFFF2000
000BFFFD0000
00FFFFFFF900
005FFFF82100
006FFFF30000
3EEFFFFEE600
7FFFFFFFF200
00EFFFA00000
03FFFF700000
06FFFF300000
09FFFF000000
0DFFFC000000
1FFFF8000780
3FFFF6002E60
3FFFF913DD00
1FFFFFFFF300
0AFFFFFE4000
019DFC710000
ENDCHAR
STARTCHAR Utilde
ENCODING 360
SWIDTH 716 0
DWIDTH 23 0
BBX 26 30 -1 0
BITMAP
00000000000000046752000010
00000000000005EFFFFFD98B40
0000000000006FFFFFFFFFF600
00000000000161137BEFD92000
00000000000000000000000000
00000000000000000000000000
0000000159CEFE4000006FFFF1
0000018EFFFFFF200000AFFFD0
00006EFC5AFFFD000000DFFFA0
000AFF600EFFF9000001FFFF70
009FF6002FFFF5000004FFFF30
05FFB0006FFFF1000008FFFF00
0CFF4000AFFFB000000BFFFC00
1FFF0000EFFF7000000EFFF900
2FFD0003FFFF3000003FFFF600
0EFC0007FFFE0000006FFFF200
06EE000AFFFA0000009FFFE000
0014100EFFF6000000DFFFB000
0000003FFFF2000001FFFF7000
0000006FFFD0000005FFFF4000
000000AFFFA0000009FFFE0000
000000CFFF7000000DFFFA0000
000000FFFF5000003FFFF60000
000002FFFF3000008FFFE10000
000003FFFF300001EFFF900000
000002FFFF500007FFFF200000
000001FFFFD3028FFFF8000000
000000AFFFFFFFFFFFA0000000
0000002DFFFFFFFFF800000000
000000017BEFFEB82000000000
ENDCHAR
STARTCHAR utilde
ENCODING 361
SWIDTH 505 0
DWIDTH 16 0
BBX 19 22 -1 0
BITMAP
00000004675200001000
000005EFFFFFD98B5000
00006FFFFFFFFFF70000
000061137BEFD9300000
00000000000000000000
00000000000000000000
000EFFFA001FFFF90000
002FFFF7004FFFF50000
005FFFF4007FFFF20000
009FFFF100AFFFE00000
00CFFFC000DFFFB00000
00FFFF9001FFFF800000
03FFFF6005FFFF400000
07FFFF3008FFFF100000
0AFFFE000BFFFD000000
0DFFFB000EFFFA000000
1FFFF8003FFFF7001C40
3FFFF600AFFFF4007E00
3FFFF928FFFFF815E700
1FFFFFFF9EFFFFFFC000
0AFFFFFB09FFFFFC1000
019DEC60019EEC600000
ENDCHAR
STARTCHAR Umacron
ENCODING 362
SWIDTH 716 0
DWIDTH 23 0
BBX 26 29 -1 0
BITMAP
0000000000000DFFFFFFFFF600
0000000000001EEEEEEEEEE200
00000000000000000000000000
00000000000000000000000000
00000000000000000000000000
0000000159CEFE4000006FFFF1
0000018EFFFFFF200000AFFFD0
00006EFC5AFFFD000000DFFFA0
000AFF600EFFF9000001FFFF70
009FF6002FFFF5000004FFFF30
05FFB0006FFFF1000008FFFF00
0CFF4000AFFFB000000BFFFC00
1FFF0000EFFF7000000EFFF900
2FFD0003FFFF3000003FFFF600
0EFC0007FFFE0000006FFFF200
06EE000AFFFA0000009FFFE000
0014100EFFF6000000DFFFB000
0000003FFFF2000001FFFF7000
0000006FFFD0000005FFFF4000
000000AFFFA0000009FFFE0000
000000CFFF7000000DFFFA0000
000000FFFF5000003FFFF60000
000002FFFF3000008FFFE10000
000003FFFF300001EFFF900000
000002FFFF500007FFFF200000
000001FFFFD3028FFFF8000000
000000AFFFFFFFFFFFA0000000
0000002DFFFFFFFFF800000000
000000017BEFFEB82000000000
ENDCHAR
STARTCHAR umacron
ENCODING 363
SWIDTH 505 0
DWIDTH 16 0
BBX 19 21 -1 0
BITMAP
00000DEEEEEEEEE40000
00003FFFFFFFFFF10000
00000000000000000000
00000000000000000000
00000000000000000000
000EFFFA001FFFF90000
002FFFF7004FFFF50000
005FFFF4007FFFF20000
009FFFF100AFFFE00000
00CFFFC000DFFFB00000
00FFFF9001FFFF800000
03FFFF6005FFFF400000
07FFFF3008FFFF100000
0AFFFE000BFFFD000000
0DFFFB000EFFFA000000
1FFFF8003FFFF7001C40
3FFFF600AFFFF4007E00
3FFFF928FFFFF815E700
1FFFFFFF9EFFFFFFC000
0AFFFFFB09FFFFFC1000
019DEC60019EEC600000
ENDCHAR
STARTCHAR Ubreve
ENCODING 364
SWIDTH 716 0
DWIDTH 23 0
BBX 26 30 -1 0
BITMAP
0000000000000FFE000006FF60
0000000000000CFF60005EFC10
00000000000004FFFDCEFFB100
000000000000003ADFED940000
00000000000000000000000000
00000000000000000000000000
0000000159CEFE4000006FFFF1
0000018EFFFFFF200000AFFFD0
00006EFC5AFFFD000000DFFFA0
000AFF600EFFF9000001FFFF70
009FF6002FFFF5000004FFFF30
05FFB0006FFFF1000008FFFF00
0CFF4000AFFFB000000BFFFC00
1FFF0000EFFF7000000EFFF900
2FFD0003FFFF3000003FFFF600
0EFC0007FFFE0000006FFFF200
06EE000AFFFA0000009FFFE000
0014100EFFF6000000DFFFB000
0000003FFFF2000001FFFF7000
0000006FFFD0000005FFFF4000
000000AFFFA0000009FFFE0000
000000CFFF7000000DFFFA0000
000000FFFF5000003FFFF60000
000002FFFF3000008FFFE10000
000003FFFF300001EFFF900000
000002FFFF500007FFFF200000
000001FFFFD3028FFFF8000000
000000AFFFFFFFFFFFA0000000
0000002DFFFFFFFFF800000000
000000017BEFFEB82000000000
ENDCHAR
STARTCHAR ubreve
ENCODING 365
SWIDTH 505 0
DWIDTH 16 0
BBX 19 23 -1 0
BITMAP
00003FFA000009FF3000
00001EFF40018FFA0000
000007FFFDCEFF900000
0000005BEFEC82000000
00000000000000000000
00000000000000000000
00000000000000000000
000EFFFA001FFFF90000
002FFFF7004FFFF50000
005FFFF4007FFFF20000
009FFFF100AFFFE00000
00CFFFC000DFFFB00000
00FFFF9001FFFF800000
03FFFF6005FFFF400000
07FFFF3008FFFF100000
0AFFFE000BFFFD000000
0DFFFB000EFFFA000000
1FFFF8003FFFF7001C40
3FFFF600AFFFF4007E00
3FFFF928FFFFF815E700
1FFFFFFF9EFFFFFFC000
0AFFFFFB09FFFFFC1000
019DEC60019EEC600000
ENDCHAR
STARTCHAR Uring
ENCODING 366
SWIDTH 716 0
DWIDTH 23 0
BBX 26 31 -1 0
BITMAP
00000000000000006DE8000000
0000000000000003F41E400000
0000000000000007C00C600000
0000000000000006D13E300000
0000000000000000AED6000000
00000000000000000000000000
00000000000000000000000000
0000000159CEFE4000006FFFF1
0000018EFFFFFF200000AFFFD0
00006EFC5AFFFD000000DFFFA0
000AFF600EFFF9000001FFFF70
009FF6002FFFF5000004FFFF30
05FFB0006FFFF1000008FFFF00
0CFF4000AFFFB000000BFFFC00
1FFF0000EFFF7000000EFFF900
2FFD0003FFFF3000003FFFF600
0EFC0007FFFE0000006FFFF200
06EE000AFFFA0000009FFFE000
0014100EFFF6000000DFFFB000
0000003FFFF2000001FFFF7000
0000006FFFD0000005FFFF4000
000000AFFFA0000009FFFE0000
000000CFFF7000000DFFFA0000
000000FFFF5000003FFFF60000
000002FFFF3000008FFFE10000
000003FFFF300001EFFF900000
000002FFFF500007FFFF200000
000001FFFFD3028FFFF8000000
000000AFFFFFFFFFFFA0000000
0000002DFFFFFFFFF800000000
000000017BEFFEB82000000000
ENDCHAR
STARTCHAR uring
ENCODING 367
SWIDTH 505 0
DWIDTH 16 0
BBX 19 22 -1 0
BITMAP
000000008EEA00000000
00000005E21E50000000
00000008C12E40000000
00000001BED700000000
00000000000000000000
00000000000000000000
000EFFFA001FFFF90000
002FFFF7004FFFF50000
005FFFF4007FFFF20000
009FFFF100AFFFE00000
00CFFFC000DFFFB00000
00FFFF9001FFFF800000
03FFFF6005FFFF400000
07FFFF3008FFFF100000
0AFFFE000BFFFD000000
0DFFFB000EFFFA000000
1FFFF8003FFFF7001C40
3FFFF600AFFFF4007E00
3FFFF928FFFFF815E700
1FFFFFFF9EFFFFFFC000
0AFFFFFB09FFFFFC1000
019DEC60019EEC600000
ENDCHAR
STARTCHAR Uhungarumlaut
ENCODING 368
SWIDTH 716 0
DWIDTH 23 0
BBX 26 32 -1 0
BITMAP
00000000000000000DFF50BFF8
00000000000000006FF903FFB0
0000000000000000DFC00AFE20
0000000000000005FE203FF400
000000000000000CF500AF8000
000000000000005F9002FB0000
00000000000000000000000000
00000000000000000000000000
0000000159CEFE4000006FFFF1
0000018EFFFFFF200000AFFFD0
00006EFC5AFFFD000000DFFFA0
000AFF600EFFF9000001FFFF70
009FF6002FFFF5000004FFFF30
05FFB0006FFFF1000008FFFF00
0CFF4000AFFFB000000BFFFC00
1FFF0000EFFF7000000EFFF900
2FFD0003FFFF3000003FFFF600
0EFC0007FFFE0000006FFFF200
06EE000AFFFA0000009FFFE000
0014100EFFF6000000DFFFB000
0000003FFFF2000001FFFF7000
0000006FFFD0000005FFFF4000
000000AFFFA0000009FFFE0000
000000CFFF7000000DFFFA0000
000000FFFF5000003FFFF60000
000002FFFF3000008FFFE10000
000003FFFF300001EFFF900000
000002FFFF500007FFFF200000
000001FFFFD3028FFFF8000000
000000AFFFFFFFFFFFA0000000
0000002DFFFFFFFFF800000000
000000017BEFFEB82000000000
ENDCHAR
STARTCHAR uhungarumlaut
ENCODING 369
SWIDTH 505 0
DWIDTH 16 0
BBX 19 24 -1 0
BITMAP
00000000AFF907FFB000
00000002FFC01EFE1000
00000009FE207FF40000
0000002FF500DF800000
0000009F9006FB000000
000002FC000DE1000000
00000000000000000000
00000000000000000000
000EFFFA001FFFF90000
002FFFF7004FFFF50000
005FFFF4007FFFF20000
009FFFF100AFFFE00000
00CFFFC000DFFFB00000
00FFFF9001FFFF800000
03FFFF6005FFFF400000
07FFFF3008FFFF100000
0AFFFE000BFFFD000000
0DFFFB000EFFFA000000
1FFFF8003FFFF7001C40
3FFFF600AFFFF4007E00
3FFFF928FFFFF815E700
1FFFFFFF9EFFFFFFC000
0AFFFFFB09FFFFFC1000
019DEC60019EEC600000
ENDCHAR
STARTCHAR Uogonek
ENCODING 370
SWIDTH 716 0
DWIDTH 23 0
BBX 26 39 -1 -7
BITMAP
00000000000000DFF600000000
000000000000009FF800000000
000000000000004FFB00000000
000000000000000EFD00000000
0000000000000009FF00000000
0000000000000005FF30000000
00000000000000000000000000
00000000000000000000000000
0000000159CEFE4000006FFFF1
0000018EFFFFFF200000AFFFD0
00006EFC5AFFFD000000DFFFA0
000AFF600EFFF9000001FFFF70
009FF6002FFFF5000004FFFF40
05FFB0006FFFF1000008FFFF10
0CFF4000AFFFB000000BFFFC00
1FFF0000EFFF7000000EFFF900
2FFD0002FFFF3000003FFFF600
0EFC0006FFFE0000006FFFF300
06EE000AFFFA0000009FFFE000
0014100EFFF6000000DFFFB000
0000002FFFF2000001FFFF8000
0000006FFFD0000005FFFF4000
0000009FFFA0000009FFFE0000
000000CFFF7000000DFFFB0000
000000EFFF5000003FFFF60000
000001FFFF3000008FFFF10000
000002FFFF300001EFFFA00000
000003FFFF500007FFFF300000
000001FFFFD3028FFFF9000000
000000CFFFFFFFFFFFB0000000
0000003EFFFFFFFFFA10000000
000000029DFFFEC93000000000
00000000009F40000000000000
0000000006FB00000000000000
000000000EF800000000000000
000000002FF900010000000000
000000001FFE316D0000000000
0000000009FFFFE50000000000
00000000018DD9200000000000
ENDCHAR
STARTCHAR uogonek
ENCODING 371
SWIDTH 505 0
DWIDTH 16 0
BBX 19 23 -1 -7
BITMAP
000EFFFA001FFFF90000
002FFFF7004FFFF50000
005FFFF4007FFFF20000
009FFFF100AFFFE00000
00CFFFC000DFFFB00000
00FFFF9001FFFF800000
03FFFF6005FFFF400000
07FFFF3008FFFF100000
0AFFFE000BFFFD000000
0DFFFB000EFFFA000000
1FFFF8003FFFF7001C40
3FFFF600AFFFF4007E10
3FFFF928FFFFF815E800
1FFFFFFF9FFFFFFFD100
0AFFFFFB0AFFFFFD2000
019DEC60019FFF910000
00000000008F71000000
0000000006FC00000000
000000000DF800000000
000000002FF900020000
000000001FFE417D0000
000000000AFFFFF50000
00000000019EEA300000
ENDCHAR
STARTCHAR Wcircumflex
ENCODING 372
SWIDTH 962 0
DWIDTH 31 0
BBX 33 32 0 0
BITMAP
0000000000000000000000035000000000
00000000000000000000004ED000000000
0000000000000000000006FFF300000000
000000000000000000008FFFF800000000
00000000000000000009FE73EC00000000
000000000000000001BE71005F20000000
0000000000000000057100000630000000
0000000000000000000000000000000000
000000059CEFA0000007FFFC0000006FD0
000006EFFFFFB000000CFFFC000000BF70
0003CFD6FFFFB000002FFFFC000001FF20
004EFA10FFFFB000007FFFFC000006FB00
04FFA000FFFFB00000CFFFFD00000BF500
1EFE1000FFFFC00002FFFFFD00001FE100
7FF90000EFFFC00008FFFFFD00006F9000
BFF50000EFFFC0000DFFFFFD0000CF4000
CFF30000EFFFC0003FDDFFFE0002FD0000
9FF30000DFFFD0008F7CFFFE0007F80000
2DF40000DFFFD000DF2CFFFE000CF20000
00430000DFFFD003FB0CFFFE002FB00000
00000000CFFFD008F50BFFFE007F600000
00000000CFFFD00DE10BFFFF00CE100000
00000000CFFFE03F900BFFFF02FA000000
00000000BFFFE09F400AFFFF07F4000000
00000000BFFFE0ED000AFFFF0DD0000000
00000000BFFFE4F7000AFFFF3F80000000
00000000AFFFF9F20009FFFF8F20000000
00000000AFFFFEB00009FFFFEC00000000
00000000AFFFFF600009FFFFF600000000
000000009FFFFE100008FFFFF100000000
000000009FFFF9000008FFFFA000000000
000000008FFFF4000007FFFF5000000000
ENDCHAR
STARTCHAR wcircumflex
ENCODING 373
SWIDTH 661 0
DWIDTH 21 0
BBX 22 24 -1 0
BITMAP
00000000000001C7000000
0000000000001CFB000000
000000000002DFFF100000
00000000002DFFEF500000
0000000002DFC43F900000
000000002DD50008D00000
0000000076000000810000
0000000000000000000000
000EFFFA001FFFF901BEB1
002FFFF7004FFFF604FFF7
005FFFF4007FFFF201DEFA
009FFFF100AFFFE00004F9
00CFFFC000DFFFB00005F8
00FFFF9001FFFF800009F6
03FFFF6005FFFF50000CF3
07FFFF3008FFFF10002FE0
0AFFFE000BFFFD00008FA0
0DFFFB000EFFFA0001EF50
1FFFF8003FFFF70008FD00
3FFFF600AFFFF4003FF500
3FFFF917FFFFF615EFA000
1FFFFFFFCFFFFFFFFD1000
0AFFFFFB0CFFFFFFB10000
019DEC60019DFEB5000000
ENDCHAR
STARTCHAR Ycircumflex
ENCODING 374
SWIDTH 620 0
DWIDTH 20 0
BBX 23 32 0 0
BITMAP
000000000000000004400000
00000000000000005FC00000
0000000000000007FFF20000
000000000000009FFFF60000
0000000000001AFE74FB0000
000000000001CE71007F1000
000000000005610000062000
000000000000000000000000
000000059CEFC0000001EF20
000006EFFFFFF1000006FA00
0003CFD6EFFFF400000CF400
004EFA10BFFFF800003FC000
04FFA0007FFFFC00009F5000
1EFE10003FFFFF1001FD0000
7FF900000EFFFF4007F70000
BFF500000AFFFF800DE10000
CFF3000007FFFFB04F900000
9FF3000003FFFFE0AF200000
2DF4000000EFFFF5FB000000
0043000000AFFFFEF4000000
00000000006FFFFFC0000000
00000000002FFFFF60000000
00000000001FFFFF10000000
00000000004FFFFC00000000
00000000007FFFF900000000
0000000000BFFFF600000000
0000000000EFFFF300000000
0000000002FFFFE000000000
0000000005FFFFB000000000
0000000009FFFF8000000000
000000000CFFFF5000000000
000000000FFFFF2000000000
ENDCHAR
STARTCHAR ycircumflex
ENCODING 375
SWIDTH 505 0
DWIDTH 16 0
BBX 18 32 -1 -8
BITMAP
00000000001C700000
0000000002DFC00000
000000003EFFF20000
00000004EFDBF70000
0000006FE601DC0000
000007E700003E2000
000001000000010000
000000000000000000
000EFFFA001FFFF900
002FFFF7004FFFF500
005FFFF4007FFFF200
009FFFF100AFFFE000
00CFFFC000DFFFB000
00FFFF9002FFFF7000
03FFFF6005FFFF4000
07FFFF3008FFFF1000
0AFFFE000BFFFD0000
0DFFFB000EFFFA0000
1FFFF8003FFFF60089
3FFFF600AFFFF301E6
3FFFFA28FFFFF008E1
1FFFFFFFFFFFC06F50
0AFFFFFBFFFFCBE600
019DFC64FFFFFA3000
0000028EFFFF300000
00008FEEFFFE000000
000BF91DFFFB000000
005F802FFFF7000000
008F308FFFF2000000
008FC9FFFFA0000000
003FFFFFFC10000000
0003BEEC6000000000
ENDCHAR
STARTCHAR Ydieresis
ENCODING 376
SWIDTH 620 0
DWIDTH 20 0
BBX 23 30 0 0
BITMAP
0000000000003DE5006EC200
000000000000CFFE00FFFA00
000000000000CFFE00FFFA00
0000000000003DE5006ED300
000000000000000000000000
000000000000000000000000
000000059CEFC0000001EF20
000006EFFFFFF1000006FA00
0003CFD6EFFFF400000CF400
004EFA10BFFFF800003FC000
04FFA0007FFFFC00009F5000
1EFE10003FFFFF1001FD0000
7FF900000EFFFF4007F70000
BFF500000AFFFF800DE10000
CFF3000007FFFFB04F900000
9FF3000003FFFFE0AF200000
2DF4000000EFFFF5FB000000
0043000000AFFFFEF4000000
00000000006FFFFFC0000000
00000000002FFFFF60000000
00000000001FFFFF10000000
00000000004FFFFC00000000
00000000007FFFF900000000
0000000000BFFFF600000000
0000000000EFFFF300000000
0000000002FFFFE000000000
0000000005FFFFB000000000
0000000009FFFF8000000000
000000000CFFFF5000000000
000000000FFFFF2000000000
ENDCHAR
STARTCHAR Zacute
ENCODING 377
SWIDTH 542 0
DWIDTH 17 0
BBX 18 32 0 0
BITMAP
000000000000004885
00000000000001EFF4
00000000000007FF90
0000000000000EFD10
0000000000006FF500
000000000000DFA000
000000000002881000
000000000000000000
00007DFFFFFFFFFFF6
0008FFFFEEEEFFFFD0
001FFE20000BFFFF60
003FFF30004FFFFD00
001EFE1000BFFFF600
0002520004FFFFD000
000000000CFFFF6000
000000004FFFFD0000
00000000CFFFF60000
00000004FFFFD00000
0000000CFFFF600000
0000005FFFFD000000
000000CFFFF6000000
000005FFFFD0000000
00000CFFFF60000000
00005FFFFD00000000
0000DFFFF600000000
0005FFFFD000000000
000DFFFF6000036100
005FFFFD00004FFC00
00DFFFF600007FFE00
06FFFFD000006FFB00
0DFFFFFEEEEFFFE200
6FFFFFFFFFFFEA2000
ENDCHAR
STARTCHAR zacute
ENCODING 378
SWIDTH 428 0
DWIDTH 14 0
BBX 14 24 0 0
BITMAP
0000000000DFF6
0000000005FFB0
000000000CFF20
000000005FF700
00000000CFC000
00000004FF3000
00000000110000
00000000000000
0006DFFFFFFFF6
007FFEEEFFFFD0
01FFC003FFFF40
03FFD00BFFFB00
00AC505FFFF300
000001DFFF9000
000007FFFE1000
00002EFFF70000
0000AFFFD00000
0004FFFF500000
000CFFFB000000
006FFFF3028800
01EFFFA00BFF50
08FFFF3007FF40
2FFFFFFFEFFA00
BFFFFFFFFD7000
ENDCHAR
STARTCHAR Zdotaccent
ENCODING 379
SWIDTH 530 0
DWIDTH 17 0
BBX 18 30 0 0
BITMAP
0000000000AEA00000
0000000005FFF50000
0000000005FFF50000
0000000000AEA00000
000000000000000000
000000000000000000
00007DFFFFFFFFFFF6
0008FFFFEEEEFFFFD0
001FFE20000BFFFF60
003FFF30004FFFFD00
001EFE1000BFFFF600
0002520004FFFFD000
000000000CFFFF6000
000000004FFFFD0000
00000000CFFFF60000
00000004FFFFD00000
0000000CFFFF600000
0000005FFFFD000000
000000CFFFF6000000
000005FFFFD0000000
00000CFFFF60000000
00005FFFFD00000000
0000DFFFF600000000
0005FFFFD000000000
000DFFFF6000036100
005FFFFD00004FFC00
00DFFFF600007FFE00
06FFFFD000006FFB00
0DFFFFFEEEEFFFE200
6FFFFFFFFFFFEA2000
ENDCHAR
STARTCHAR zdotaccent
ENCODING 380
SWIDTH 428 0
DWIDTH 14 0
BBX 14 22 0 0
BITMAP
00000004ED3000
0000000DFFC000
0000000DFFC000
00000005ED4000
00000000000000
00000000000000
0006DFFFFFFFF6
007FFEEEFFFFD0
01FFC003FFFF40
03FFD00BFFFB00
00AC505FFFF300
000001DFFF9000
000007FFFE1000
00002EFFF70000
0000AFFFD00000
0004FFFF500000
000CFFFB000000
006FFFF3028800
01EFFFA00BFF50
08FFFF3007FF40
2FFFFFFFEFFA00
BFFFFFFFFD7000
ENDCHAR
STARTCHAR Zcaron
ENCODING 381
SWIDTH 542 0
DWIDTH 17 0
BBX 19 32 0 0
BITMAP
00000000017000000660
0000000000E70006DD20
00000000009F45DFC100
00000000005FFFFA0000
00000000001EFF900000
00000000000AF7000000
00000000000340000000
00000000000000000000
00007DFFFFFFFFFFF600
0008FFFFEEEEFFFFD000
001FFE20000BFFFF6000
003FFF30004FFFFD0000
001EFE1000BFFFF60000
0002520004FFFFD00000
000000000CFFFF600000
000000004FFFFD000000
00000000CFFFF6000000
00000004FFFFD0000000
0000000CFFFF60000000
0000005FFFFD00000000
000000CFFFF600000000
000005FFFFD000000000
00000CFFFF6000000000
00005FFFFD0000000000
0000DFFFF60000000000
0005FFFFD00000000000
000DFFFF600003610000
005FFFFD00004FFC0000
00DFFFF600007FFE0000
06FFFFD000006FFB0000
0DFFFFFEEEEFFFE20000
6FFFFFFFFFFFEA200000
ENDCHAR
STARTCHAR zcaron
ENCODING 382
SWIDTH 428 0
DWIDTH 14 0
BBX 16 24 0 0
BITMAP
000000D600004CB1
0000008E203BFA00
0000003FDBFF8000
0000000DFFF70000
00000009FF500000
00000004E4000000
0000000000000000
0000000000000000
0006DFFFFFFFF600
007FFEEEFFFFD000
01FFC003FFFF4000
03FFD00BFFFB0000
00AC505FFFF30000
000001DFFF900000
000007FFFE100000
00002EFFF7000000
0000AFFFD0000000
0004FFFF50000000
000CFFFB00000000
006FFFF302880000
01EFFFA00BFF5000
08FFFF3007FF4000
2FFFFFFFEFFA0000
BFFFFFFFFD700000
ENDCHAR
STARTCHAR longs
ENCODING 383
SWIDTH 267 0
DWIDTH 9 0
BBX 20 32 -7 -8
BITMAP
00000000000029DFC600
000000000006FFFFFF90
00000000003FFFFFDFF2
0000000000AFFFF406F4
0000000001FFFF9003C3
0000000004FFFF500000
0000000008FFFF200000
000000000BFFFD000000
00000009FFFFFA000000
000000024FFFF7000000
000000005FFFF4000000
000000009FFFF1000000
00000000CFFFD0000000
00000000FFFF90000000
00000003FFFF60000000
00000006FFFF30000000
0000000AFFFE00000000
0000000DFFFC00000000
0000001FFFF800000000
0000004FFFF500000000
0000007FFFF200000000
000000AFFFE000000000
000000EFFFB000000000
000003FFFF7000000000
0017DEFFFF4000000000
04EC48FFFF1000000000
2EB00CFFFD0000000000
8F301FFFF90000000000
9F509FFFF40000000000
7FFEFFFFB00000000000
1DFFFFFD200000000000
019DFC71000000000000
ENDCHAR
STARTCHAR uni018F
ENCODING 399
SWIDTH 544 0
DWIDTH 17 0
BBX 18 24 0 0
BITMAP
0000017BEFEC820000
00006FFFFFFFFF7000
0006FFFFFFFFFFF700
000CFFFFFFFFFFFF20
000EFC52028FFFFF90
0008A0000007FFFFD0
000010000002FFFFF1
000000000000FFFFF3
000000000000FFFFF4
000000000001FFFFF3
000000016ACEFFFFF2
0000018EFFFFFFFFE0
00004DFFE729FFFFB0
0006FFFB100CFFFF70
006FFFB0001FFFFF20
03FFFE20006FFFFB00
0BFFF70000BFFFF400
1FFFF10002FFFFB000
4FFFC00009FFFF2000
5FFFA0002EFFF60000
3FFFA000BFFF800000
0CFFE11AFFF8000000
03EFFFFFFD40000000
0029DFEB6000000000
ENDCHAR
STARTCHAR florin
ENCODING 402
SWIDTH 267 0
DWIDTH 9 0
BBX 22 32 -8 -8
BITMAP
00000000000000029DFD81
000000000000005FFFFFFA
00000000000005FFFA1DFE
0000000000001EFFF20EFE
0000000000009FFFA04FF8
000000000002FFFF502860
000000000008FFFE000000
00000000000DFFFA000000
000000008FFFFFFFFFE000
00000000229FFFF3222000
0000000000CFFFC0000000
0000000001FFFF80000000
0000000006FFFF40000000
000000000AFFFE00000000
000000000EFFFA00000000
000000003FFFF600000000
000000007FFFF200000000
00000000BFFFD000000000
00000001FFFF8000000000
00000005FFFF4000000000
00000009FFFF1000000000
0000000DFFFB0000000000
0000002FFFF60000000000
0000006FFFF10000000000
000000BFFFB00000000000
000001EFFF500000000000
079205FFFE000000000000
8FF50AFFF7000000000000
EFE02FFFD0000000000000
EFD09FFE30000000000000
AFFCFFE400000000000000
19DFD92000000000000000
ENDCHAR
STARTCHAR Ohorn
ENCODING 416
SWIDTH 665 0
DWIDTH 21 0
BBX 24 28 0 0
BITMAP
000000000000000000009EC0
00000000000000000000EFF2
00000000000000000000DFF0
00000000000000000000EFC0
0000000038BDEFEB6003FF50
0000017DFFFFEFFFFD3CFB00
00005DFFB621004CFFFFC100
0008FFD4028CC501EFFE1000
009FFB106FFF90009FFF4000
06FFD106FFFC00006FFF9000
0EFF402EFFF400005FFFC000
4FFC00BFFFC000004FFFE000
7FF805FFFF5000005FFFF000
6FF70BFFFD0000006FFFE000
1DF72FFFF90000008FFFD000
01658FFFF4000000BFFFB000
0000CFFFE0000000EFFF8000
0001FFFFB0000003FFFF4000
0003FFFF80000008FFFE0000
0006FFFF6000000DFFFA0000
0007FFFF4000004FFFF40000
0008FFFF300000CFFFC00000
0008FFFF400005FFFF300000
0006FFFF50002EFFF8000000
0002FFFFB002CFFFA0000000
0000BFFFFB9EFFFA00000000
00002DFFFFFFFE7000000000
0000017CEFDB710000000000
ENDCHAR
STARTCHAR ohorn
ENCODING 417
SWIDTH 439 0
DWIDTH 14 0
BBX 17 21 -1 0
BITMAP
000000000000004710
00000000000003FF80
00000000000002FF90
00000000000002FF60
00000000000005FE10
0000006BEFD71CF700
00003DFFFFFFEFB000
0004EFFF608FFA1000
002EFFF8003FF40000
00BFFFD1002FF60000
05FFFF70003FF70000
0BFFFF10004FF60000
1FFFFC00008FF40000
4FFFF90000CFF20000
6FFFF70002FFD00000
6FFFF60009FF700000
5FFFF6003FFE100000
3FFFFB03DFF6000000
0DFFFFEFFF90000000
04FFFFFFF800000000
003BEFD93000000000
ENDCHAR
STARTCHAR Uhorn
ENCODING 431
SWIDTH 716 0
DWIDTH 23 0
BBX 29 30 -1 0
BITMAP
000000000000000000000000004730
00000000000000000000000003FFC0
00000000000000000000000002FFC0
00000000000000000000000003FF90
00000000000000000000000007FF30
0000000000000000000000004EFA00
0000000159CEFE4000006FFFFFC000
0000018EFFFFFF200000AFFFF91000
00006EFC5AFFFD000000DFFFB00000
000AFF600EFFF9000001FFFF800000
009FF6002FFFF5000004FFFF400000
05FFB0006FFFF1000008FFFF100000
0CFF4000AFFFB000000BFFFD000000
1FFF0000EFFF7000000EFFFA000000
2FFD0003FFFF3000003FFFF6000000
0EFC0007FFFE0000006FFFF3000000
06EE000AFFFA0000009FFFE0000000
0014100EFFF6000000DFFFB0000000
0000003FFFF2000001FFFF80000000
0000006FFFD0000005FFFF40000000
000000AFFFA0000009FFFF10000000
000000CFFF7000000DFFFB00000000
000000FFFF5000003FFFF600000000
000002FFFF3000008FFFF100000000
000003FFFF300001EFFFA000000000
000002FFFF500007FFFF3000000000
000001FFFFD3028FFFF80000000000
000000AFFFFFFFFFFFB00000000000
0000002DFFFFFFFFF8000000000000
000000017BEFFEB820000000000000
ENDCHAR
STARTCHAR uhorn
ENCODING 432
SWIDTH 505 0
DWIDTH 16 0
BBX 19 21 -1 0
BITMAP
0000000000000003CE40
0000000000000005FF70
0000000000000004FF50
0000000000000007FE10
000000000000002EF600
000EFFFA001FFFFFA000
002FFFF7004FFFF90000
005FFFF4007FFFF30000
009FFFF100AFFFE00000
00CFFFC000DFFFB00000
00FFFF9001FFFF800000
03FFFF6005FFFF500000
07FFFF3008FFFF100000
0AFFFE000BFFFD000000
0DFFFB000EFFFA000000
1FFFF8003FFFF7001C40
3FFFF600AFFFF4007E00
3FFFF928FFFFF815E700
1FFFFFFF9EFFFFFFC000
0AFFFFFB09FFFFFC1000
019DEC60019EEC600000
ENDCHAR
STARTCHAR uni01B7
ENCODING 439
SWIDTH 555 0
DWIDTH 18 0
BBX 19 25 0 -1
BITMAP
00003BEFFFFFFFFFFE20
0003EFFFEEEEFFFFF500
000AFF700002EFFF8000
000CFFA0001CFFFC0000
0008FF70009FFFE20000
0000650005FFFF500000
000000002EFFF9000000
00000000CFFFD1000000
00000009FFFE30000000
0000004FFFF700000000
0000008FFFFFB3000000
0000009DFFFFFF600000
000000001AFFFFF30000
0000000000BFFFFA0000
00000000005FFFFE0000
00000000002FFFFF1000
00000000002FFFFF1000
00683000003FFFFF0000
0BFFA000006FFFFB0000
3FFF100000AFFFF60000
5FFD000003FFFFC00000
3FFF20002DFFFE200000
0BFFE869EFFFC2000000
019FFFFFFFC600000000
00015777520000000000
ENDCHAR
STARTCHAR uni01CD
ENCODING 461
SWIDTH 668 0
DWIDTH 21 0
BBX 28 36 0 -4
BITMAP
0000000000000000007200000471
000000000000000000AC0003BE50
0000000000000000005F83BFE300
0000000000000000001FFFFD2000
0000000000000000000BFFC10000
00000000000000000006FA100000
0000000000000000000160000000
0000000000000000000000000000
000000000000000028DFEA100000
0000000000000006EFFFFE000000
000000000000009FFFFFFB000000
00000000000009FE6FFFF8000000
0000000000008FF43FFFF4000000
000000000005FF606FFFF1000000
00000000003EFB00AFFFD0000000
0000000000CFE200DFFFA0000000
0000000008FF7001FFFF70000000
000000002FFD0004FFFF30000000
0017BEFFEFFA3007FFFF00000000
06EFFFFFFFFFFEACFFFC00000000
5FFF821DFF6036CFFFF900000000
AFFD007FFE10002FFFF600000000
8FFF01EFF800006FFFF200000000
068308FFF200009FFFE000000000
00001EFFB00000CFFFB000000000
00007FFF600001FFFF8000000000
0000DFFF100004FFFF5000000000
0004FFFB000007FFFF1000000000
0009FFF600000BFFFD0000000000
000DFFF200000EFFFA0000000000
002FFFE000002FFFF70000000000
004FFFB000006FFFF30000000000
004FFF9000000000000000000000
002FFF8000000000000000000000
0007FF9000000000000000000000
0000266000000000000000000000
ENDCHAR
STARTCHAR uni01CE
ENCODING 462
SWIDTH 526 0
DWIDTH 17 0
BBX 20 24 -1 0
BITMAP
000000005D100017E500
000000001FA006EE4000
000000000BF9DFE30000
0000000006FFFD200000
0000000001FFD2000000
0000000000CC10000000
00000000001000000000
00000000000000000000
0000029DFEA6FFFF4000
00005EFFFFFDFFFF1000
0004FFFF603FFFFC0000
002EFFF7000EFFF90000
00AFFFD0003FFFF60000
03FFFF60006FFFF30000
09FFFF10009FFFE00000
0DFFFC0000CFFFB00000
2FFFF80001FFFF800000
4FFFF60004FFFF500000
6FFFF50007FFFF2004C1
6FFFF5000DFFFE000BA0
4FFFFA01AFFFFF207F20
1EFFFFEFF9FFFFFEF700
06FFFFFF61DFFFFF8000
005CFEA3003BEEA30000
ENDCHAR
STARTCHAR uni01CF
ENCODING 463
SWIDTH 375 0
DWIDTH 12 0
BBX 18 32 0 0
BITMAP
000000003500000174
000000003F40017EA1
000000000DE27EF900
0000000008FFFF7000
0000000004FFF50000
0000000000EE400000
000000000053000000
000000000000000000
000000059CEF900000
000006EFFFFF600000
0003CFEBFFFF300000
004EFA19FFFE000000
04FFB00CFFFB000000
1EFE101FFFF8000000
7FF9004FFFF5000000
BFF5007FFFF2000000
CFF300AFFFE0000000
9FF300DFFFA0000000
2DF402FFFF70000000
004305FFFF40000000
000008FFFF10000000
00000BFFFD00000000
00000EFFF900000000
00003FFFF600000000
00006FFFF300000000
00009FFFF000000000
0000CFFFC000000000
0001FFFF8000000000
0004FFFF5000000000
0007FFFF2000000000
000AFFFE0000000000
000DFFFB0000000000
ENDCHAR
STARTCHAR uni01D0
ENCODING 464
SWIDTH 267 0
DWIDTH 9 0
BBX 13 24 -1 0
BITMAP
0006C000018E40
0001F8018EE300
0000CF9EFD2000
00007FFFC10000
00002FFB100000
00000C90000000
00000000000000
00000000000000
000EFFFA000000
002FFFF7000000
005FFFF4000000
009FFFF1000000
00CFFFC0000000
00FFFF90000000
03FFFF60000000
07FFFF30000000
0AFFFE00000000
0DFFFB00000000
1FFFF800089000
3FFFF6002E5000
3FFFF914DC0000
1FFFFFFFE30000
0AFFFFFE400000
019DFC71000000
ENDCHAR
STARTCHAR uni01D1
ENCODING 465
SWIDTH 665 0
DWIDTH 21 0
BBX 23 32 0 0
BITMAP
000000000000072000004710
0000000000000AB0003BE500
00000000000005F83BFE3000
00000000000001FFFFD20000
00000000000000BFFC100000
000000000000006FB1000000
000000000000001600000000
000000000000000000000000
0000000038BDEFEC82000000
0000017DFFFFEFFFFF700000
00005DFFB621004CFFF60000
0008FFD4028CC501EFFE1000
009FFB106FFF90009FFF7000
06FFD106FFFC00006FFFA000
0EFF402EFFF400005FFFD000
4FFC00BFFFC000004FFFE000
7FF805FFFF5000005FFFF000
6FF70BFFFD0000006FFFE000
1DF72FFFF90000008FFFC000
01658FFFF4000000BFFFA000
0000CFFFE0000000EFFF7000
0001FFFFB0000003FFFF3000
0003FFFF80000008FFFE0000
0006FFFF6000000DFFF90000
0007FFFF4000004FFFF30000
0008FFFF300000CFFFA00000
0008FFFF400005FFFF200000
0006FFFF50002EFFF7000000
0002FFFFB002CFFFA0000000
0000BFFFFB9EFFFA00000000
00002DFFFFFFFE7000000000
0000017CEFDB710000000000
ENDCHAR
STARTCHAR uni01D2
ENCODING 466
SWIDTH 433 0
DWIDTH 14 0
BBX 19 24 -1 0
BITMAP
0000002E200005D80000
0000000CC004CF700000
00000008F9BFF6000000
00000003FFFF50000000
00000000DFE400000000
000000009E3000000000
00000000220000000000
00000000000000000000
0000028CEFC500000000
00006FFFFFFF50000000
0006FFFE40AFD0000000
004FFFF5007FF1000360
00DFFFB002FFF315AE50
06FFFF4005FFFFFE9200
0CFFFE0001CFF9510000
1FFFF90000AFE0000000
5FFFF60000DFC0000000
7FFFF30003FF90000000
9FFFF20009FF30000000
9FFFF3002FFC00000000
7FFFF702CFF400000000
3FFFFFDFFF8000000000
08FFFFFFF70000000000
005BEFEA300000000000
ENDCHAR
STARTCHAR uni01D3
ENCODING 467
SWIDTH 716 0
DWIDTH 23 0
BBX 26 32 -1 0
BITMAP
00000000000000017000000660
0000000000000000E70006DD20
00000000000000009F45DFC100
00000000000000005FFFFA1000
00000000000000000EFF900000
00000000000000000AF7000000
00000000000000000350000000
00000000000000000000000000
0000000159CEFE4000006FFFF1
0000018EFFFFFF200000AFFFD0
00006EFC5AFFFD000000DFFFA0
000AFF600EFFF9000001FFFF70
009FF6002FFFF5000004FFFF30
05FFB0006FFFF1000008FFFF00
0CFF4000AFFFB000000BFFFC00
1FFF0000EFFF7000000EFFF900
2FFD0003FFFF3000003FFFF600
0EFC0007FFFE0000006FFFF200
06EE000AFFFA0000009FFFE000
0014100EFFF6000000DFFFB000
0000003FFFF2000001FFFF7000
0000006FFFD0000005FFFF4000
000000AFFFA0000009FFFE0000
000000CFFF7000000DFFFA0000
000000FFFF5000003FFFF60000
000002FFFF3000008FFFE10000
000003FFFF300001EFFF900000
000002FFFF500007FFFF200000
000001FFFFD3028FFFF8000000
000000AFFFFFFFFFFFA0000000
0000002DFFFFFFFFF800000000
000000017BEFFEB82000000000
ENDCHAR
STARTCHAR uni01D4
ENCODING 468
SWIDTH 505 0
DWIDTH 16 0
BBX 19 24 -1 0
BITMAP
00000008B000029E3000
00000003F7018FD20000
00000000DF9EFC100000
000000008FFFB1000000
000000004FFA00000000
000000000E8000000000
00000000000000000000
00000000000000000000
000EFFFA001FFFF90000
002FFFF7004FFFF50000
005FFFF4007FFFF20000
009FFFF100AFFFE00000
00CFFFC000DFFFB00000
00FFFF9001FFFF800000
03FFFF6005FFFF400000
07FFFF3008FFFF100000
0AFFFE000BFFFD000000
0DFFFB000EFFFA000000
1FFFF8003FFFF7001C40
3FFFF600AFFFF4007E00
3FFFF928FFFFF815E700
1FFFFFFF9EFFFFFFC000
0AFFFFFB09FFFFFC1000
019DEC60019EEC600000
ENDCHAR
STARTCHAR uni01D5
ENCODING 469
SWIDTH 716 0
DWIDTH 23 0
BBX 26 32 -1 0
BITMAP
00000000000001EEEEEEEEEE20
00000000000005FFFFFFFFFE00
00000000000000000000000000
00000000000004DD40007EC200
0000000000000CFFD002FFF900
0000000000000CFFD002FFF900
00000000000004DE50007EC200
00000000000000000000000000
0000000159CEFE4000006FFFF1
0000018EFFFFFF200000AFFFD0
00006EFC5AFFFD000000DFFFA0
000AFF600EFFF9000001FFFF70
009FF6002FFFF5000004FFFF30
05FFB0006FFFF1000008FFFF00
0CFF4000AFFFB000000BFFFC00
1FFF0000EFFF7000000EFFF900
2FFD0003FFFF3000003FFFF600
0EFC0007FFFE0000006FFFF200
06EE000AFFFA0000009FFFE000
0014100EFFF6000000DFFFB000
0000003FFFF2000001FFFF7000
0000006FFFD0000005FFFF4000
000000AFFFA0000009FFFE0000
000000CFFF7000000DFFFA0000
000000FFFF5000003FFFF60000
000002FFFF3000008FFFE10000
000003FFFF300001EFFF900000
000002FFFF500007FFFF200000
000001FFFFD3028FFFF8000000
000000AFFFFFFFFFFFA0000000
0000002DFFFFFFFFF800000000
000000017BEFFEB82000000000
ENDCHAR
STARTCHAR uni01D6
ENCODING 470
SWIDTH 505 0
DWIDTH 16 0
BBX 19 27 -1 0
BITMAP
000000CEEEEEEEEE5000
000002FFFFFFFFFF2000
00000000000000000000
00000000000000000000
00000000000000000000
000001CE7003DE400000
000008FFF20CFFE00000
000008FFF20CFFE00000
000002CE8004DE500000
00000000000000000000
00000000000000000000
000EFFFA001FFFF90000
002FFFF7004FFFF50000
005FFFF4007FFFF20000
009FFFF100AFFFE00000
00CFFFC000DFFFB00000
00FFFF9001FFFF800000
03FFFF6005FFFF400000
07FFFF3008FFFF100000
0AFFFE000BFFFD000000
0DFFFB000EFFFA000000
1FFFF8003FFFF7001C40
3FFFF600AFFFF4007E00
3FFFF928FFFFF815E700
1FFFFFFF9EFFFFFFC000
0AFFFFFB09FFFFFC1000
019DEC60019EEC600000
ENDCHAR
STARTCHAR uni01D7
ENCODING 471
SWIDTH 716 0
DWIDTH 23 0
BBX 26 32 -1 0
BITMAP
00000000000000000048860000
000000000000000000DFF50000
000000000000AEA005FFA1CE70
000000000005FFF50DFE18FFF2
000000000006FFF55FF508FFF2
000000000000AEA0DFA002CE80
00000000000000015510000000
00000000000000000000000000
0000000159CEFE4000006FFFF1
0000018EFFFFFF200000AFFFD0
00006EFC5AFFFD000000DFFFA0
000AFF600EFFF9000001FFFF70
009FF6002FFFF5000004FFFF30
05FFB0006FFFF1000008FFFF00
0CFF4000AFFFB000000BFFFC00
1FFF0000EFFF7000000EFFF900
2FFD0003FFFF3000003FFFF600
0EFC0007FFFE0000006FFFF200
06EE000AFFFA0000009FFFE000
0014100EFFF6000000DFFFB000
0000003FFFF2000001FFFF7000
0000006FFFD0000005FFFF4000
000000AFFFA0000009FFFE0000
000000CFFF7000000DFFFA0000
000000FFFF5000003FFFF60000
000002FFFF3000008FFFE10000
000003FFFF300001EFFF900000
000002FFFF500007FFFF200000
000001FFFFD3028FFFF8000000
000000AFFFFFFFFFFFA0000000
0000002DFFFFFFFFF800000000
000000017BEFFEB82000000000
ENDCHAR
STARTCHAR uni01D8
ENCODING 472
SWIDTH 505 0
DWIDTH 16 0
BBX 19 30 -1 0
BITMAP
00000000000078830000
000000000004FFD10000
00000000000CFF400000
00000000004FF9000000
0000000000BFE1000000
0000000003FF50000000
00000000048600000000
00000000000000000000
000001CE7003DE400000
000008FFF20CFFE00000
000008FFF20CFFE00000
000002CE8004DE500000
00000000000000000000
00000000000000000000
000EFFFA001FFFF90000
002FFFF7004FFFF50000
005FFFF4007FFFF20000
009FFFF100AFFFE00000
00CFFFC000DFFFB00000
00FFFF9001FFFF800000
03FFFF6005FFFF400000
07FFFF3008FFFF100000
0AFFFE000BFFFD000000
0DFFFB000EFFFA000000
1FFFF8003FFFF7001C40
3FFFF600AFFFF4007E00
3FFFF928FFFFF815E700
1FFFFFFF9EFFFFFFC000
0AFFFFFB09FFFFFC1000
019DEC60019EEC600000
ENDCHAR
ENDFONT
